<?xml version="1.0" encoding="UTF-8"?>
<svg xmlns="http://www.w3.org/2000/svg" xmlns:xlink="http://www.w3.org/1999/xlink" width="150px" height="150px" viewBox="0 0 150 150" version="1.1">
<defs>
<linearGradient id="linear0" gradientUnits="userSpaceOnUse" x1="16.803" y1="16.631" x2="15.013" y2="22.411" gradientTransform="matrix(4.6875,0,0,-4.6875,0,150)">
<stop offset="0" style="stop-color:rgb(33.333333%,6.666667%,13.333333%);stop-opacity:1;"/>
<stop offset="0.23" style="stop-color:rgb(33.333333%,13.333333%,20%);stop-opacity:1;"/>
<stop offset="0.36" style="stop-color:rgb(33.333333%,20%,26.666667%);stop-opacity:1;"/>
<stop offset="0.51" style="stop-color:rgb(40%,26.666667%,33.333333%);stop-opacity:1;"/>
<stop offset="0.66" style="stop-color:rgb(33.333333%,40%,53.333333%);stop-opacity:1;"/>
<stop offset="0.84" style="stop-color:rgb(13.333333%,60%,86.666667%);stop-opacity:1;"/>
</linearGradient>
<linearGradient id="linear1" gradientUnits="userSpaceOnUse" x1="29.71" y1="18.983" x2="11.71" y2="14.563" gradientTransform="matrix(4.6875,0,0,4.6875,0,0)">
<stop offset="0.081" style="stop-color:rgb(80%,20%,20%);stop-opacity:1;"/>
<stop offset="0.189" style="stop-color:rgb(87.058824%,32.156863%,22.352941%);stop-opacity:1;"/>
<stop offset="0.313" style="stop-color:rgb(94.117647%,43.137255%,24.313725%);stop-opacity:1;"/>
<stop offset="0.421" style="stop-color:rgb(98.039216%,50.196078%,25.882353%);stop-opacity:1;"/>
<stop offset="0.5" style="stop-color:rgb(99.607843%,52.54902%,26.27451%);stop-opacity:1;"/>
<stop offset="0.58" style="stop-color:rgb(98.039216%,49.803922%,25.882353%);stop-opacity:1;"/>
<stop offset="0.696" style="stop-color:rgb(93.72549%,42.352941%,24.313725%);stop-opacity:1;"/>
<stop offset="0.833" style="stop-color:rgb(86.27451%,29.803922%,21.568627%);stop-opacity:1;"/>
<stop offset="0.916" style="stop-color:rgb(81.176471%,21.176471%,20%);stop-opacity:1;"/>
</linearGradient>
</defs>
<g id="surface1">
<path style=" stroke:none;fill-rule:nonzero;fill:rgb(26.666667%,60%,86.666667%);fill-opacity:1;" d="M 9.375 82.265625 L 46.734375 67.171875 C 54.484375 111.902344 30.113281 156.015625 -11.882812 173.261719 C -53.875 190.507812 -102.214844 176.261719 -128.144531 138.996094 C -154.070312 101.730469 -150.621094 51.453125 -119.851562 18.074219 C -89.078125 -15.304688 -39.246094 -22.820312 0 0 C 3.089844 -1.640625 8.902344 -0.75 19.546875 -13.964844 C 29.855469 -26.855469 33.136719 -37.875 37.964844 -37.875 C 45.605469 -37.875 51.230469 -21.375 59.765625 3.613281 C 351.152344 37.636719 562.351562 297.664062 535.914062 589.835938 C 509.476562 882.007812 255.035156 1099.898438 -37.726562 1081.070312 C -330.488281 1062.242188 -554.925781 813.550781 -543.714844 520.394531 C -532.503906 227.242188 -289.734375 -3.582031 3.613281 0 C -5.296875 -8.300781 -12.886719 -17.246094 -21.558594 -17.015625 C -29.621094 -16.828125 -38.574219 -7.265625 -48.371094 5.019531 C 80.859375 127.921875 70.546875 134.675781 66.519531 134.53125 C 66.519531 134.53125 56.109375 105.09375 47.394531 100.3125 C 19.695312 100.054688 -2.554688 77.390625 -2.296875 49.6875 C -2.039062 21.988281 20.628906 -0.257812 48.328125 0 L 9.375 82.21875 Z M 9.375 82.265625 "/>
<path style=" stroke:none;fill-rule:nonzero;fill:url(#linear0);" d="M 92.8125 18.839844 C 89.671875 23.0625 85.875 30.796875 79.03125 39.378906 C 68.386719 52.59375 62.625 51.707031 59.484375 53.34375 C 58.546875 34.570312 63.371094 15.957031 73.3125 0 L 88.78125 11.296875 C 75.328125 60.5625 82.359375 41.160156 87.84375 28.59375 C 103.667969 52.652344 101.488281 84.316406 82.511719 105.980469 C 63.539062 127.640625 32.441406 133.976562 6.503906 121.460938 C -19.429688 108.945312 -33.824219 80.65625 -28.671875 52.324219 C -23.519531 23.992188 -0.0898438 2.582031 28.59375 0 Z M 92.8125 18.839844 "/>
<path style=" stroke:none;fill-rule:nonzero;fill:url(#linear1);" d="M 97.5 15.46875 C 87.28125 15.46875 80.296875 69.28125 42.5625 99.332031 C 53.15625 97.597656 62.34375 123.890625 66.5625 134.53125 C 85.3125 131.339844 100.316406 95.484375 115.453125 96.046875 C 124.128906 96.371094 131.714844 104.761719 140.625 113.0625 C 120.28125 70.3125 110.765625 15.464844 97.5 15.464844 Z M 97.5 15.46875 "/>
</g>
</svg>
