<?xml version="1.0" encoding="UTF-8"?>
<svg xmlns="http://www.w3.org/2000/svg" xmlns:xlink="http://www.w3.org/1999/xlink" width="150px" height="150px" viewBox="0 0 150 150" version="1.1">
<defs>
<filter id="alpha" filterUnits="objectBoundingBox" x="0%" y="0%" width="100%" height="100%">
  <feColorMatrix type="matrix" in="SourceGraphic" values="0 0 0 0 1 0 0 0 0 1 0 0 0 0 1 0 0 0 1 0"/>
</filter>
<mask id="mask0">
  <g filter="url(#alpha)">
<rect x="0" y="0" width="150" height="150" style="fill:rgb(0%,0%,0%);fill-opacity:0.901961;stroke:none;"/>
  </g>
</mask>
<clipPath id="clip1">
  <rect x="0" y="0" width="150" height="150"/>
</clipPath>
<g id="surface5" clip-path="url(#clip1)">
<path style="fill:none;stroke-width:0.856;stroke-linecap:round;stroke-linejoin:round;stroke:rgb(52.156863%,52.156863%,52.156863%);stroke-opacity:1;stroke-dasharray:0.407,0.8139;stroke-miterlimit:7.976;" d="M 63.973333 63.783333 L 125.063333 63.783333 M 63.973333 63.783333 L 107.17 20.586667 M 63.973333 63.783333 L 63.973333 2.693333 M 63.973333 63.783333 L 20.776667 20.586667 M 63.973333 63.783333 L 2.883333 63.783333 M 63.973333 63.783333 L 20.776667 106.98 M 63.973333 63.783333 L 63.973333 124.873333 M 63.973333 63.783333 L 107.17 106.98 " transform="matrix(1.171875,0,0,1.171875,0,0)"/>
</g>
<mask id="mask1">
  <g filter="url(#alpha)">
<rect x="0" y="0" width="150" height="150" style="fill:rgb(0%,0%,0%);fill-opacity:0.901961;stroke:none;"/>
  </g>
</mask>
<clipPath id="clip2">
  <rect x="0" y="0" width="150" height="150"/>
</clipPath>
<g id="surface8" clip-path="url(#clip2)">
<path style="fill:none;stroke-width:0.856;stroke-linecap:square;stroke-linejoin:round;stroke:rgb(50.588235%,50.588235%,50.588235%);stroke-opacity:1;stroke-dasharray:0.407,0.8139;stroke-miterlimit:199.409;" d="M 70.763333 63.783333 L 70.563333 62.14 L 69.97 60.596667 L 69.02 59.243333 L 67.77 58.156667 L 66.296667 57.406667 L 64.686667 57.033333 L 63.033333 57.063333 L 61.433333 57.493333 L 59.986667 58.293333 L 58.776667 59.423333 L 57.876667 60.81 L 57.336667 62.376667 L 57.193333 64.023333 L 57.453333 65.656667 L 58.096667 67.18 L 59.093333 68.503333 L 60.376667 69.543333 L 61.876667 70.24 L 63.5 70.556667 L 65.153333 70.47 L 66.736667 69.986667 L 68.153333 69.133333 L 69.323333 67.963333 L 70.173333 66.546667 L 70.66 64.966667 L 70.763333 63.783333 " transform="matrix(1.171875,0,0,1.171875,0,0)"/>
</g>
<mask id="mask2">
  <g filter="url(#alpha)">
<rect x="0" y="0" width="150" height="150" style="fill:rgb(0%,0%,0%);fill-opacity:0.901961;stroke:none;"/>
  </g>
</mask>
<clipPath id="clip3">
  <rect x="0" y="0" width="150" height="150"/>
</clipPath>
<g id="surface11" clip-path="url(#clip3)">
<path style="fill:none;stroke-width:0.856;stroke-linecap:square;stroke-linejoin:round;stroke:rgb(50.588235%,50.588235%,50.588235%);stroke-opacity:1;stroke-dasharray:0.407,0.8139;stroke-miterlimit:199.409;" d="M 84.34 63.783333 L 84.14 60.95 L 83.55 58.173333 L 82.576667 55.503333 L 81.246667 52.993333 L 79.573333 50.693333 L 77.603333 48.65 L 75.363333 46.9 L 72.903333 45.48 L 70.27 44.416667 L 67.513333 43.73 L 64.686667 43.433333 L 61.846667 43.53 L 59.05 44.026667 L 56.346667 44.903333 L 53.793333 46.146667 L 51.436667 47.736667 L 49.326667 49.636667 L 47.5 51.813333 L 45.996667 54.223333 L 44.84 56.816667 L 44.056667 59.546667 L 43.663333 62.363333 L 43.663333 65.203333 L 44.056667 68.016667 L 44.84 70.746667 L 45.996667 73.343333 L 47.5 75.753333 L 49.326667 77.93 L 51.436667 79.83 L 53.793333 81.42 L 56.346667 82.663333 L 59.05 83.54 L 61.846667 84.033333 L 64.686667 84.133333 L 67.513333 83.836667 L 70.27 83.15 L 72.903333 82.083333 L 75.363333 80.663333 L 77.603333 78.913333 L 79.573333 76.87 L 81.243333 74.573333 L 82.576667 72.063333 L 83.55 69.393333 L 84.14 66.613333 L 84.34 63.783333 " transform="matrix(1.171875,0,0,1.171875,0,0)"/>
</g>
<mask id="mask3">
  <g filter="url(#alpha)">
<rect x="0" y="0" width="150" height="150" style="fill:rgb(0%,0%,0%);fill-opacity:0.901961;stroke:none;"/>
  </g>
</mask>
<clipPath id="clip4">
  <rect x="0" y="0" width="150" height="150"/>
</clipPath>
<g id="surface14" clip-path="url(#clip4)">
<path style="fill:none;stroke-width:0.856;stroke-linecap:square;stroke-linejoin:round;stroke:rgb(50.588235%,50.588235%,50.588235%);stroke-opacity:1;stroke-dasharray:0.407,0.8139;stroke-miterlimit:199.409;" d="M 97.913333 63.783333 L 97.73 60.236667 L 97.173333 56.726667 L 96.253333 53.296667 L 94.983333 49.98 L 93.37 46.813333 L 91.433333 43.836667 L 89.196667 41.073333 L 86.686667 38.563333 L 83.926667 36.326667 L 80.946667 34.393333 L 77.78 32.78 L 74.463333 31.506667 L 71.033333 30.586667 L 67.523333 30.033333 L 63.976667 29.846667 L 60.426667 30.033333 L 56.92 30.586667 L 53.49 31.506667 L 50.173333 32.78 L 47.006667 34.393333 L 44.026667 36.326667 L 41.266667 38.563333 L 38.753333 41.073333 L 36.52 43.836667 L 34.583333 46.813333 L 32.97 49.98 L 31.696667 53.296667 L 30.78 56.726667 L 30.223333 60.236667 L 30.04 63.783333 L 30.223333 67.333333 L 30.78 70.84 L 31.7 74.27 L 32.97 77.586667 L 34.583333 80.753333 L 36.52 83.733333 L 38.753333 86.493333 L 41.266667 89.003333 L 44.026667 91.24 L 47.006667 93.176667 L 50.173333 94.79 L 53.49 96.063333 L 56.92 96.983333 L 60.43 97.536667 L 63.976667 97.723333 L 67.523333 97.536667 L 71.033333 96.98 L 74.463333 96.063333 L 77.78 94.79 L 80.946667 93.176667 L 83.923333 91.24 L 86.686667 89.003333 L 89.196667 86.493333 L 91.433333 83.733333 L 93.37 80.753333 L 94.983333 77.586667 L 96.253333 74.27 L 97.173333 70.84 L 97.73 67.333333 L 97.913333 63.783333 " transform="matrix(1.171875,0,0,1.171875,0,0)"/>
</g>
<mask id="mask4">
  <g filter="url(#alpha)">
<rect x="0" y="0" width="150" height="150" style="fill:rgb(0%,0%,0%);fill-opacity:0.901961;stroke:none;"/>
  </g>
</mask>
<clipPath id="clip5">
  <rect x="0" y="0" width="150" height="150"/>
</clipPath>
<g id="surface17" clip-path="url(#clip5)">
<path style="fill:none;stroke-width:0.856;stroke-linecap:square;stroke-linejoin:round;stroke:rgb(50.588235%,50.588235%,50.588235%);stroke-opacity:1;stroke-dasharray:0.407,0.8139;stroke-miterlimit:199.409;" d="M 111.49 63.783333 L 111.23 58.816667 L 110.45 53.906667 L 109.163333 49.103333 L 107.38 44.46 L 105.123333 40.03 L 102.413333 35.856667 L 99.286667 31.993333 L 95.77 28.473333 L 91.903333 25.346667 L 87.733333 22.636667 L 83.3 20.38 L 78.656667 18.6 L 73.853333 17.313333 L 68.943333 16.533333 L 63.976667 16.273333 L 59.01 16.533333 L 54.1 17.313333 L 49.293333 18.6 L 44.653333 20.38 L 40.22 22.636667 L 36.05 25.346667 L 32.183333 28.476667 L 28.666667 31.993333 L 25.536667 35.86 L 22.83 40.03 L 20.573333 44.463333 L 18.79 49.103333 L 17.503333 53.906667 L 16.723333 58.82 L 16.463333 63.786667 L 16.723333 68.75 L 17.503333 73.663333 L 18.79 78.466667 L 20.573333 83.11 L 22.83 87.54 L 25.536667 91.71 L 28.666667 95.576667 L 32.183333 99.093333 L 36.05 102.223333 L 40.22 104.933333 L 44.653333 107.19 L 49.293333 108.97 L 54.1 110.26 L 59.01 111.036667 L 63.976667 111.296667 L 68.943333 111.036667 L 73.853333 110.26 L 78.656667 108.97 L 83.3 107.19 L 87.733333 104.933333 L 91.903333 102.223333 L 95.77 99.093333 L 99.286667 95.576667 L 102.416667 91.71 L 105.126667 87.54 L 107.38 83.11 L 109.163333 78.466667 L 110.45 73.663333 L 111.226667 68.753333 L 111.49 63.786667 " transform="matrix(1.171875,0,0,1.171875,0,0)"/>
</g>
<mask id="mask5">
  <g filter="url(#alpha)">
<rect x="0" y="0" width="150" height="150" style="fill:rgb(0%,0%,0%);fill-opacity:0.6;stroke:none;"/>
  </g>
</mask>
<clipPath id="clip6">
  <rect x="0" y="0" width="150" height="150"/>
</clipPath>
<g id="surface20" clip-path="url(#clip6)">
<path style=" stroke:none;fill-rule:nonzero;fill:rgb(0%,29.803922%,100%);fill-opacity:1;" d="M 74.96875 74.746094 L 75.121094 74.699219 L 75.425781 74.597656 L 75.574219 74.550781 L 75.726562 74.5 L 75.878906 74.453125 L 76.027344 74.402344 L 76.179688 74.351562 L 76.332031 74.304688 L 76.484375 74.253906 L 76.632812 74.207031 L 76.9375 74.105469 L 77.085938 74.058594 L 77.238281 74.007812 L 77.390625 73.960938 L 77.539062 73.910156 L 77.691406 73.859375 L 77.84375 73.8125 L 77.996094 73.761719 L 78.144531 73.714844 L 78.449219 73.613281 L 78.597656 73.566406 L 78.75 73.515625 L 78.902344 73.46875 L 79.050781 73.417969 L 79.203125 73.367188 L 79.355469 73.320312 L 79.507812 73.269531 L 79.65625 73.222656 L 79.960938 73.121094 L 80.109375 73.074219 L 80.261719 73.023438 L 80.414062 72.976562 L 80.5625 72.925781 L 80.714844 72.875 L 80.867188 72.828125 L 81.019531 72.777344 L 81.167969 72.730469 L 81.472656 72.628906 L 81.621094 72.582031 L 81.773438 72.53125 L 81.925781 72.484375 L 82.074219 72.433594 L 82.226562 72.382812 L 82.378906 72.335938 L 82.53125 72.285156 L 82.679688 72.238281 L 82.984375 72.136719 L 83.132812 72.089844 L 83.285156 72.039062 L 83.4375 71.992188 L 83.585938 71.941406 L 83.738281 71.890625 L 83.890625 71.84375 L 84.042969 71.792969 L 84.191406 71.746094 L 84.496094 71.644531 L 84.644531 71.597656 L 84.796875 71.546875 L 84.949219 71.5 L 85.097656 71.449219 L 85.25 71.398438 L 85.402344 71.351562 L 85.554688 71.300781 L 85.703125 71.253906 L 86.007812 71.152344 L 86.15625 71.105469 L 86.308594 71.054688 L 86.460938 71.007812 L 86.609375 70.957031 L 86.761719 70.90625 L 86.914062 70.859375 L 87.066406 70.808594 L 87.214844 70.761719 L 87.519531 70.660156 L 87.667969 70.613281 L 87.820312 70.5625 L 87.972656 70.515625 L 88.121094 70.464844 L 88.273438 70.414062 L 88.425781 70.367188 L 88.578125 70.316406 L 88.726562 70.269531 L 89.03125 70.167969 L 89.179688 70.121094 L 89.332031 70.070312 L 89.484375 70.023438 L 89.632812 69.972656 L 89.785156 69.921875 L 89.9375 69.875 L 90.089844 69.824219 L 90.117188 69.878906 L 90.132812 69.925781 L 90.148438 69.976562 L 90.195312 70.117188 L 90.207031 70.167969 L 90.222656 70.214844 L 90.234375 70.261719 L 90.25 70.308594 L 90.261719 70.355469 L 90.277344 70.40625 L 90.289062 70.453125 L 90.304688 70.5 L 90.316406 70.550781 L 90.328125 70.597656 L 90.34375 70.644531 L 90.355469 70.691406 L 90.367188 70.742188 L 90.382812 70.789062 L 90.394531 70.835938 L 90.40625 70.886719 L 90.429688 70.980469 L 90.441406 71.03125 L 90.464844 71.125 L 90.488281 71.226562 L 90.496094 71.273438 L 90.507812 71.324219 L 90.519531 71.371094 L 90.527344 71.421875 L 90.539062 71.472656 L 90.550781 71.519531 L 90.558594 71.570312 L 90.570312 71.617188 L 90.582031 71.667969 L 90.589844 71.71875 L 90.597656 71.765625 L 90.609375 71.816406 L 90.617188 71.863281 L 90.628906 71.914062 L 90.636719 71.964844 L 90.644531 72.011719 L 90.652344 72.0625 L 90.660156 72.109375 L 90.675781 72.210938 L 90.683594 72.257812 L 90.691406 72.308594 L 90.699219 72.355469 L 90.714844 72.457031 L 90.722656 72.503906 L 90.730469 72.554688 L 90.734375 72.601562 L 90.75 72.703125 L 90.757812 72.75 L 90.761719 72.800781 L 90.769531 72.847656 L 90.773438 72.898438 L 90.78125 72.949219 L 90.785156 72.996094 L 90.792969 73.046875 L 90.796875 73.09375 L 90.804688 73.195312 L 90.8125 73.242188 L 90.816406 73.292969 L 90.820312 73.339844 L 90.84375 73.644531 L 90.847656 73.691406 L 90.859375 73.84375 L 90.859375 73.894531 L 90.863281 73.945312 L 90.863281 73.996094 L 90.871094 74.097656 L 90.871094 74.148438 L 90.875 74.195312 L 90.875 74.296875 L 90.878906 74.347656 L 90.878906 74.449219 L 90.882812 74.5 L 90.882812 74.75 L 75.128906 74.75 Z M 74.96875 74.746094 "/>
</g>
<mask id="mask6">
  <g filter="url(#alpha)">
<rect x="0" y="0" width="150" height="150" style="fill:rgb(0%,0%,0%);fill-opacity:0.6;stroke:none;"/>
  </g>
</mask>
<clipPath id="clip7">
  <rect x="0" y="0" width="150" height="150"/>
</clipPath>
<g id="surface23" clip-path="url(#clip7)">
<path style=" stroke:none;fill-rule:nonzero;fill:rgb(80.784314%,100%,16.078431%);fill-opacity:1;" d="M 74.96875 74.746094 L 75.304688 73.855469 L 75.472656 73.40625 L 75.808594 72.515625 L 75.976562 72.066406 L 76.3125 71.175781 L 76.480469 70.726562 L 76.648438 70.28125 L 76.8125 69.835938 L 76.980469 69.390625 L 77.148438 68.941406 L 77.484375 68.050781 L 77.652344 67.601562 L 78.15625 66.265625 L 78.324219 65.816406 L 78.488281 65.371094 L 78.65625 64.925781 L 78.824219 64.476562 L 79.160156 63.585938 L 79.328125 63.136719 L 79.664062 62.246094 L 79.832031 61.796875 L 80 61.351562 L 80.164062 60.90625 L 80.332031 60.460938 L 80.5 60.011719 L 80.835938 59.121094 L 81.003906 58.671875 L 81.339844 57.78125 L 81.507812 57.332031 L 81.675781 56.886719 L 81.839844 56.441406 L 82.007812 55.996094 L 82.175781 55.546875 L 82.511719 54.65625 L 82.679688 54.207031 L 83.015625 53.316406 L 83.183594 52.867188 L 83.351562 52.421875 L 83.515625 51.976562 L 83.683594 51.53125 L 83.851562 51.082031 L 84.1875 50.191406 L 84.355469 49.742188 L 84.691406 48.851562 L 84.859375 48.402344 L 85.027344 47.957031 L 85.191406 47.511719 L 85.359375 47.066406 L 85.527344 46.617188 L 85.863281 45.726562 L 86.03125 45.277344 L 86.367188 44.386719 L 86.535156 43.9375 L 86.703125 43.492188 L 86.867188 43.046875 L 87.035156 42.601562 L 87.203125 42.152344 L 87.539062 41.261719 L 87.707031 40.8125 L 88.042969 39.921875 L 88.210938 39.472656 L 88.378906 39.027344 L 88.542969 38.582031 L 88.710938 38.136719 L 88.878906 37.6875 L 89.214844 36.796875 L 89.382812 36.347656 L 89.71875 35.457031 L 89.886719 35.007812 L 90.054688 34.5625 L 90.21875 34.117188 L 90.386719 33.671875 L 90.554688 33.222656 L 90.890625 32.332031 L 91.058594 31.882812 L 91.226562 31.4375 L 91.40625 30.957031 L 91.574219 30.507812 L 91.742188 30.0625 L 91.882812 30.117188 L 92.023438 30.167969 L 92.164062 30.222656 L 92.300781 30.277344 L 92.582031 30.386719 L 92.71875 30.441406 L 92.859375 30.5 L 93 30.554688 L 93.136719 30.613281 L 93.277344 30.671875 L 93.414062 30.726562 L 93.550781 30.785156 L 93.691406 30.84375 L 93.828125 30.902344 L 93.964844 30.964844 L 94.238281 31.082031 L 94.378906 31.144531 L 94.515625 31.203125 L 94.789062 31.328125 L 94.921875 31.390625 L 95.195312 31.515625 L 95.332031 31.582031 L 95.46875 31.644531 L 95.601562 31.710938 L 95.738281 31.773438 L 95.871094 31.839844 L 96.007812 31.90625 L 96.140625 31.972656 L 96.277344 32.039062 L 96.542969 32.171875 L 96.675781 32.242188 L 96.808594 32.308594 L 96.945312 32.378906 L 97.074219 32.449219 L 97.207031 32.515625 L 97.472656 32.65625 L 97.605469 32.730469 L 97.871094 32.871094 L 98 32.945312 L 98.132812 33.015625 L 98.261719 33.089844 L 98.394531 33.164062 L 98.523438 33.238281 L 98.65625 33.3125 L 99.042969 33.535156 L 99.171875 33.613281 L 99.300781 33.6875 L 99.558594 33.84375 L 99.6875 33.917969 L 100.074219 34.152344 L 100.199219 34.234375 L 100.328125 34.3125 L 100.453125 34.390625 L 100.578125 34.472656 L 100.707031 34.550781 L 101.082031 34.796875 L 101.210938 34.878906 L 101.460938 35.042969 L 101.585938 35.128906 L 101.707031 35.210938 L 101.957031 35.382812 L 102.078125 35.464844 L 102.203125 35.550781 L 102.324219 35.636719 L 102.449219 35.722656 L 102.570312 35.8125 L 102.691406 35.898438 L 102.816406 35.984375 L 102.9375 36.074219 L 103.058594 36.160156 L 103.179688 36.25 L 103.300781 36.335938 L 103.421875 36.425781 L 103.539062 36.515625 L 103.78125 36.695312 L 103.898438 36.785156 L 104.019531 36.878906 L 104.136719 36.96875 L 104.257812 37.058594 L 104.726562 37.433594 L 104.132812 38.175781 L 103.832031 38.550781 L 103.535156 38.921875 L 103.238281 39.296875 L 102.644531 40.039062 L 102.34375 40.414062 L 102.046875 40.785156 L 101.75 41.160156 L 101.15625 41.902344 L 100.855469 42.277344 L 100.5625 42.65625 L 100.265625 43.027344 L 99.964844 43.402344 L 99.667969 43.773438 L 99.371094 44.148438 L 99.074219 44.519531 L 98.777344 44.894531 L 98.480469 45.265625 L 98.183594 45.640625 L 97.882812 46.011719 L 97.585938 46.386719 L 96.992188 47.128906 L 96.695312 47.503906 L 96.394531 47.875 L 96.097656 48.25 L 95.503906 48.992188 L 95.207031 49.367188 L 94.90625 49.738281 L 94.609375 50.113281 L 94.015625 50.855469 L 93.71875 51.230469 L 93.417969 51.601562 L 93.121094 51.976562 L 92.527344 52.71875 L 92.230469 53.09375 L 91.929688 53.464844 L 91.632812 53.839844 L 91.039062 54.582031 L 90.742188 54.957031 L 90.441406 55.328125 L 90.144531 55.703125 L 89.550781 56.445312 L 89.253906 56.835938 L 88.957031 57.207031 L 88.660156 57.582031 L 88.363281 57.953125 L 88.0625 58.328125 L 87.765625 58.699219 L 87.46875 59.074219 L 87.171875 59.445312 L 86.875 59.820312 L 86.574219 60.191406 L 86.277344 60.566406 L 85.683594 61.308594 L 85.386719 61.683594 L 85.085938 62.054688 L 84.789062 62.429688 L 84.195312 63.171875 L 83.898438 63.546875 L 83.597656 63.917969 L 83.300781 64.292969 L 82.707031 65.035156 L 82.410156 65.410156 L 82.109375 65.78125 L 81.8125 66.15625 L 81.21875 66.898438 L 80.921875 67.273438 L 80.625 67.65625 L 80.328125 68.03125 L 80.03125 68.402344 L 79.730469 68.773438 L 79.433594 69.148438 L 79.136719 69.519531 L 78.839844 69.894531 L 78.542969 70.265625 L 78.242188 70.636719 L 77.945312 71.011719 L 77.648438 71.382812 L 77.351562 71.757812 L 77.054688 72.128906 L 76.753906 72.5 L 76.457031 72.875 L 76.160156 73.246094 L 75.863281 73.621094 L 75.566406 73.992188 L 75.265625 74.363281 Z M 74.96875 74.746094 "/>
</g>
<mask id="mask7">
  <g filter="url(#alpha)">
<rect x="0" y="0" width="150" height="150" style="fill:rgb(0%,0%,0%);fill-opacity:0.6;stroke:none;"/>
  </g>
</mask>
<clipPath id="clip8">
  <rect x="0" y="0" width="150" height="150"/>
</clipPath>
<g id="surface26" clip-path="url(#clip8)">
<path style=" stroke:none;fill-rule:nonzero;fill:rgb(100%,40.784314%,0%);fill-opacity:1;" d="M 74.96875 74.746094 L 74.15625 73.769531 L 73.746094 73.28125 L 72.933594 72.304688 L 72.523438 71.816406 L 72.117188 71.324219 L 71.707031 70.835938 L 70.894531 69.859375 L 70.484375 69.371094 L 70.078125 68.882812 L 69.667969 68.394531 L 68.855469 67.417969 L 68.445312 66.929688 L 68.039062 66.4375 L 67.628906 65.949219 L 66.816406 64.972656 L 66.40625 64.484375 L 66 63.996094 L 65.589844 63.507812 L 64.777344 62.53125 L 64.367188 62.042969 L 63.960938 61.550781 L 63.550781 61.0625 L 62.738281 60.085938 L 62.328125 59.597656 L 61.921875 59.109375 L 61.511719 58.621094 L 60.699219 57.644531 L 60.289062 57.15625 L 59.882812 56.664062 L 59.472656 56.175781 L 58.660156 55.199219 L 58.25 54.710938 L 57.84375 54.222656 L 57.433594 53.734375 L 56.621094 52.757812 L 56.210938 52.269531 L 55.804688 51.777344 L 55.394531 51.289062 L 54.582031 50.3125 L 54.171875 49.824219 L 53.765625 49.335938 L 53.355469 48.847656 L 52.542969 47.871094 L 52.132812 47.382812 L 51.726562 46.890625 L 51.316406 46.402344 L 50.503906 45.425781 L 50.09375 44.9375 L 49.6875 44.449219 L 49.277344 43.960938 L 48.464844 42.984375 L 48.054688 42.496094 L 47.648438 42.003906 L 47.238281 41.515625 L 46.425781 40.539062 L 46.015625 40.050781 L 45.609375 39.5625 L 45.199219 39.074219 L 44.386719 38.097656 L 43.976562 37.609375 L 43.570312 37.117188 L 43.160156 36.628906 L 42.347656 35.652344 L 41.9375 35.164062 L 41.53125 34.675781 L 41.121094 34.1875 L 40.308594 33.210938 L 39.898438 32.722656 L 39.492188 32.230469 L 39.082031 31.742188 L 38.269531 30.765625 L 37.859375 30.277344 L 37.453125 29.789062 L 37.042969 29.300781 L 36.636719 28.828125 L 36.226562 28.339844 L 35.820312 27.851562 L 35.410156 27.363281 L 35.003906 26.875 L 34.597656 26.382812 L 34.1875 25.894531 L 34.417969 25.703125 L 34.652344 25.511719 L 34.882812 25.324219 L 35.117188 25.132812 L 35.351562 24.945312 L 35.585938 24.761719 L 35.820312 24.574219 L 36.296875 24.207031 L 36.773438 23.847656 L 37.257812 23.488281 L 37.496094 23.3125 L 37.742188 23.136719 L 37.984375 22.960938 L 38.230469 22.789062 L 38.472656 22.617188 L 38.71875 22.445312 L 38.96875 22.273438 L 39.214844 22.105469 L 39.464844 21.9375 L 39.710938 21.773438 L 39.960938 21.605469 L 40.214844 21.441406 L 40.464844 21.28125 L 40.71875 21.117188 L 40.96875 20.957031 L 41.222656 20.796875 L 41.480469 20.640625 L 41.734375 20.484375 L 41.992188 20.328125 L 42.246094 20.171875 L 42.761719 19.867188 L 43.023438 19.714844 L 43.28125 19.566406 L 44.066406 19.121094 L 44.589844 18.832031 L 44.855469 18.691406 L 45.121094 18.546875 L 45.382812 18.40625 L 45.652344 18.269531 L 46.183594 17.996094 L 46.449219 17.863281 L 46.71875 17.726562 L 46.988281 17.59375 L 47.527344 17.335938 L 47.800781 17.207031 L 48.070312 17.078125 L 48.34375 16.949219 L 48.617188 16.824219 L 49.4375 16.460938 L 49.714844 16.339844 L 49.988281 16.222656 L 50.542969 15.988281 L 51.375 15.648438 L 51.652344 15.539062 L 52.214844 15.320312 L 52.492188 15.214844 L 53.054688 15.003906 L 53.335938 14.902344 L 53.621094 14.800781 L 54.183594 14.605469 L 54.753906 14.410156 L 55.039062 14.316406 L 55.320312 14.222656 L 55.609375 14.128906 L 56.179688 13.949219 L 56.46875 13.863281 L 56.753906 13.777344 L 57.042969 13.691406 L 57.328125 13.605469 L 57.617188 13.523438 L 57.90625 13.445312 L 58.195312 13.363281 L 58.773438 13.207031 L 59.066406 13.132812 L 59.644531 12.984375 L 60.523438 12.773438 L 60.8125 12.707031 L 60.957031 13.328125 L 61.097656 13.945312 L 61.378906 15.1875 L 61.523438 15.804688 L 61.804688 17.046875 L 61.949219 17.664062 L 62.230469 18.90625 L 62.375 19.527344 L 62.515625 20.144531 L 62.796875 21.386719 L 62.941406 22.003906 L 63.222656 23.246094 L 63.367188 23.863281 L 63.648438 25.105469 L 63.792969 25.726562 L 63.933594 26.34375 L 64.214844 27.585938 L 64.359375 28.203125 L 64.640625 29.445312 L 64.785156 30.0625 L 65.066406 31.304688 L 65.210938 31.925781 L 65.351562 32.542969 L 65.492188 33.164062 L 65.625 33.800781 L 65.765625 34.421875 L 65.910156 35.039062 L 66.191406 36.28125 L 66.335938 36.898438 L 66.617188 38.140625 L 66.757812 38.757812 L 66.902344 39.378906 L 67.183594 40.621094 L 67.328125 41.238281 L 67.609375 42.480469 L 67.753906 43.097656 L 68.035156 44.339844 L 68.175781 44.957031 L 68.320312 45.578125 L 68.601562 46.820312 L 68.746094 47.4375 L 69.027344 48.679688 L 69.171875 49.296875 L 69.453125 50.539062 L 69.59375 51.15625 L 69.738281 51.777344 L 70.019531 53.019531 L 70.164062 53.636719 L 70.445312 54.878906 L 70.589844 55.496094 L 70.871094 56.738281 L 71.011719 57.355469 L 71.15625 57.976562 L 71.4375 59.21875 L 71.582031 59.835938 L 71.863281 61.078125 L 72.007812 61.695312 L 72.289062 62.9375 L 72.429688 63.554688 L 72.574219 64.175781 L 72.855469 65.417969 L 73 66.035156 L 73.28125 67.277344 L 73.425781 67.894531 L 73.847656 69.757812 L 73.992188 70.375 L 74.273438 71.617188 L 74.417969 72.234375 L 74.699219 73.476562 L 74.84375 74.09375 L 74.972656 74.746094 Z M 74.96875 74.746094 "/>
</g>
<mask id="mask8">
  <g filter="url(#alpha)">
<rect x="0" y="0" width="150" height="150" style="fill:rgb(0%,0%,0%);fill-opacity:0.6;stroke:none;"/>
  </g>
</mask>
<clipPath id="clip9">
  <rect x="0" y="0" width="150" height="150"/>
</clipPath>
<g id="surface29" clip-path="url(#clip9)">
<path style=" stroke:none;fill-rule:nonzero;fill:rgb(100%,76.862745%,0%);fill-opacity:1;" d="M 74.96875 74.746094 L 74.421875 74.847656 L 73.875 74.945312 L 73.324219 75.046875 L 72.777344 75.144531 L 72.226562 75.246094 L 71.679688 75.34375 L 71.132812 75.445312 L 70.582031 75.542969 L 70.035156 75.644531 L 69.492188 75.742188 L 68.945312 75.839844 L 68.394531 75.941406 L 67.847656 76.039062 L 67.296875 76.140625 L 66.75 76.238281 L 66.203125 76.339844 L 65.652344 76.4375 L 65.105469 76.539062 L 64.554688 76.636719 L 64.007812 76.738281 L 63.460938 76.835938 L 62.917969 76.933594 L 62.371094 77.03125 L 61.820312 77.132812 L 61.273438 77.230469 L 60.726562 77.332031 L 60.179688 77.429688 L 59.628906 77.53125 L 59.082031 77.628906 L 58.53125 77.730469 L 57.984375 77.828125 L 57.4375 77.929688 L 56.886719 78.027344 L 56.339844 78.128906 L 55.789062 78.226562 L 55.242188 78.328125 L 54.695312 78.425781 L 54.144531 78.527344 L 53.597656 78.625 L 53.046875 78.726562 L 52.5 78.824219 L 51.953125 78.925781 L 51.402344 79.023438 L 50.855469 79.125 L 50.304688 79.222656 L 49.757812 79.324219 L 49.210938 79.421875 L 48.660156 79.523438 L 48.113281 79.621094 L 47.578125 79.71875 L 47.03125 79.816406 L 46.480469 79.917969 L 45.933594 80.015625 L 45.382812 80.117188 L 44.835938 80.214844 L 44.289062 80.316406 L 43.738281 80.414062 L 43.191406 80.515625 L 42.640625 80.613281 L 42.09375 80.714844 L 41.546875 80.8125 L 40.996094 80.914062 L 40.449219 81.011719 L 39.898438 81.113281 L 39.351562 81.210938 L 38.804688 81.3125 L 38.253906 81.410156 L 37.707031 81.511719 L 37.15625 81.609375 L 36.609375 81.710938 L 36.0625 81.808594 L 35.511719 81.910156 L 34.964844 82.007812 L 34.414062 82.109375 L 33.867188 82.207031 L 33.320312 82.308594 L 32.769531 82.40625 L 32.222656 82.507812 L 31.671875 82.605469 L 31.125 82.707031 L 30.578125 82.804688 L 30.027344 82.90625 L 29.480469 83.003906 L 28.929688 83.105469 L 28.382812 83.203125 L 27.855469 83.296875 L 27.308594 83.394531 L 26.757812 83.496094 L 26.210938 83.59375 L 25.664062 83.695312 L 25.117188 83.792969 L 24.566406 83.894531 L 24.019531 83.992188 L 23.46875 84.09375 L 22.921875 84.191406 L 22.375 84.292969 L 21.824219 84.390625 L 21.277344 84.492188 L 20.726562 84.589844 L 20.179688 84.691406 L 20.117188 84.347656 L 20.058594 84.003906 L 20 83.65625 L 19.945312 83.3125 L 19.894531 82.964844 L 19.753906 81.921875 L 19.710938 81.578125 L 19.667969 81.230469 L 19.589844 80.535156 L 19.554688 80.183594 L 19.492188 79.488281 L 19.464844 79.140625 L 19.4375 78.789062 L 19.390625 78.09375 L 19.371094 77.742188 L 19.351562 77.394531 L 19.339844 77.042969 L 19.324219 76.695312 L 19.316406 76.347656 L 19.304688 75.996094 L 19.296875 75.648438 L 19.292969 75.296875 L 19.292969 74.246094 L 19.296875 73.894531 L 19.3125 73.199219 L 19.324219 72.847656 L 19.335938 72.5 L 19.351562 72.148438 L 19.367188 71.800781 L 19.386719 71.453125 L 19.410156 71.101562 L 19.433594 70.753906 L 19.460938 70.402344 L 19.488281 70.054688 L 19.550781 69.359375 L 19.585938 69.011719 L 19.625 68.664062 L 19.664062 68.3125 L 19.703125 67.96875 L 19.75 67.621094 L 19.792969 67.273438 L 19.84375 66.925781 L 19.890625 66.582031 L 19.945312 66.234375 L 20 65.890625 L 20.054688 65.542969 L 20.113281 65.199219 L 20.238281 64.511719 L 20.371094 63.824219 L 20.511719 63.136719 L 20.585938 62.796875 L 20.664062 62.453125 L 20.742188 62.113281 L 20.988281 61.09375 L 21.074219 60.753906 L 21.164062 60.414062 L 21.445312 59.40625 L 21.542969 59.066406 L 21.640625 58.734375 L 21.742188 58.398438 L 21.847656 58.0625 L 21.953125 57.730469 L 22.171875 57.066406 L 22.398438 56.402344 L 22.515625 56.074219 L 22.632812 55.742188 L 22.875 55.085938 L 23 54.761719 L 23.125 54.433594 L 23.253906 54.109375 L 23.652344 53.136719 L 23.792969 52.816406 L 23.929688 52.492188 L 24.070312 52.175781 L 24.359375 51.535156 L 24.503906 51.21875 L 24.652344 50.902344 L 24.804688 50.585938 L 25.304688 50.828125 L 25.808594 51.070312 L 26.308594 51.308594 L 26.8125 51.550781 L 27.8125 52.035156 L 28.316406 52.277344 L 28.816406 52.515625 L 29.320312 52.757812 L 30.320312 53.242188 L 30.824219 53.484375 L 31.324219 53.722656 L 31.828125 53.964844 L 32.828125 54.449219 L 33.332031 54.691406 L 33.832031 54.929688 L 34.335938 55.171875 L 35.335938 55.65625 L 35.839844 55.898438 L 36.339844 56.136719 L 36.84375 56.378906 L 37.84375 56.863281 L 38.347656 57.105469 L 38.847656 57.34375 L 39.351562 57.585938 L 40.351562 58.070312 L 40.855469 58.3125 L 41.355469 58.550781 L 41.859375 58.792969 L 42.859375 59.277344 L 43.363281 59.519531 L 43.863281 59.757812 L 44.367188 60 L 45.367188 60.484375 L 45.871094 60.726562 L 46.371094 60.964844 L 46.875 61.207031 L 47.875 61.691406 L 48.378906 61.933594 L 48.878906 62.171875 L 49.382812 62.414062 L 50.382812 62.898438 L 50.886719 63.140625 L 51.386719 63.378906 L 51.890625 63.621094 L 52.890625 64.105469 L 53.394531 64.347656 L 53.894531 64.585938 L 54.398438 64.828125 L 55.398438 65.3125 L 55.902344 65.554688 L 56.402344 65.792969 L 56.90625 66.035156 L 57.90625 66.519531 L 58.410156 66.761719 L 58.910156 67 L 59.414062 67.242188 L 60.414062 67.726562 L 60.917969 67.96875 L 61.417969 68.207031 L 61.921875 68.449219 L 62.921875 68.933594 L 63.425781 69.175781 L 63.925781 69.414062 L 64.429688 69.65625 L 65.429688 70.140625 L 65.933594 70.382812 L 66.433594 70.621094 L 66.9375 70.863281 L 67.9375 71.347656 L 68.441406 71.589844 L 68.941406 71.828125 L 69.445312 72.070312 L 70.445312 72.554688 L 70.949219 72.796875 L 71.449219 73.035156 L 71.953125 73.277344 L 72.953125 73.761719 L 73.457031 74.003906 L 73.957031 74.242188 L 74.460938 74.484375 Z M 74.96875 74.746094 "/>
</g>
<mask id="mask9">
  <g filter="url(#alpha)">
<rect x="0" y="0" width="150" height="150" style="fill:rgb(0%,0%,0%);fill-opacity:0.6;stroke:none;"/>
  </g>
</mask>
<clipPath id="clip10">
  <rect x="0" y="0" width="150" height="150"/>
</clipPath>
<g id="surface32" clip-path="url(#clip10)">
<path style=" stroke:none;fill-rule:nonzero;fill:rgb(16.078431%,100%,80.784314%);fill-opacity:1;" d="M 74.96875 74.746094 L 74.710938 74.929688 L 74.449219 75.109375 L 74.1875 75.292969 L 73.925781 75.472656 L 73.664062 75.65625 L 73.402344 75.835938 L 73.140625 76.019531 L 72.878906 76.195312 L 72.617188 76.375 L 72.09375 76.742188 L 71.832031 76.921875 L 71.574219 77.101562 L 71.050781 77.46875 L 70.789062 77.648438 L 70.527344 77.832031 L 70.265625 78.011719 L 70.003906 78.195312 L 69.742188 78.375 L 69.480469 78.558594 L 69.21875 78.738281 L 68.960938 78.921875 L 68.699219 79.101562 L 68.4375 79.285156 L 68.175781 79.464844 L 67.914062 79.648438 L 67.652344 79.828125 L 67.390625 80.011719 L 67.128906 80.191406 L 66.867188 80.375 L 66.605469 80.554688 L 66.347656 80.738281 L 66.085938 80.917969 L 65.824219 81.101562 L 65.5625 81.28125 L 65.300781 81.464844 L 65.039062 81.644531 L 64.777344 81.828125 L 64.515625 82.007812 L 64.253906 82.191406 L 63.992188 82.371094 L 63.734375 82.554688 L 63.472656 82.734375 L 63.210938 82.917969 L 62.949219 83.097656 L 62.6875 83.28125 L 62.425781 83.460938 L 62.164062 83.644531 L 61.902344 83.824219 L 61.640625 84.007812 L 61.378906 84.1875 L 61.121094 84.371094 L 60.859375 84.550781 L 60.585938 84.710938 L 60.324219 84.894531 L 60.0625 85.074219 L 59.800781 85.257812 L 59.539062 85.4375 L 59.28125 85.621094 L 59.019531 85.800781 L 58.757812 85.984375 L 58.496094 86.164062 L 58.234375 86.347656 L 57.972656 86.527344 L 57.710938 86.710938 L 57.449219 86.890625 L 57.1875 87.074219 L 56.925781 87.253906 L 56.667969 87.4375 L 56.40625 87.617188 L 56.144531 87.800781 L 55.882812 87.980469 L 55.621094 88.164062 L 55.359375 88.34375 L 55.097656 88.527344 L 54.835938 88.707031 L 54.574219 88.890625 L 54.3125 89.070312 L 54.054688 89.253906 L 53.792969 89.433594 L 53.53125 89.617188 L 53.269531 89.796875 L 53.007812 89.980469 L 52.746094 90.160156 L 52.484375 90.34375 L 52.222656 90.523438 L 51.960938 90.707031 L 51.699219 90.886719 L 51.441406 91.070312 L 51.179688 91.25 L 50.917969 91.433594 L 50.65625 91.613281 L 50.394531 91.796875 L 50.132812 91.976562 L 49.871094 92.160156 L 49.609375 92.339844 L 49.347656 92.523438 L 49.078125 92.683594 L 48.816406 92.867188 L 48.789062 92.824219 L 48.761719 92.785156 L 48.734375 92.742188 L 48.703125 92.703125 L 48.675781 92.660156 L 48.648438 92.621094 L 48.621094 92.578125 L 48.59375 92.539062 L 48.5625 92.496094 L 48.535156 92.457031 L 48.507812 92.414062 L 48.480469 92.375 L 48.453125 92.332031 L 48.421875 92.289062 L 48.394531 92.246094 L 48.371094 92.203125 L 48.34375 92.164062 L 48.234375 91.992188 L 48.207031 91.953125 L 48.125 91.824219 L 48.101562 91.78125 L 48.074219 91.742188 L 47.964844 91.570312 L 47.9375 91.53125 L 47.914062 91.488281 L 47.859375 91.402344 L 47.835938 91.359375 L 47.808594 91.320312 L 47.785156 91.277344 L 47.730469 91.191406 L 47.707031 91.148438 L 47.679688 91.105469 L 47.65625 91.0625 L 47.601562 90.976562 L 47.578125 90.933594 L 47.550781 90.886719 L 47.527344 90.84375 L 47.5 90.800781 L 47.476562 90.757812 L 47.449219 90.714844 L 47.402344 90.628906 L 47.375 90.585938 L 47.328125 90.5 L 47.304688 90.453125 L 47.277344 90.410156 L 47.230469 90.324219 L 47.203125 90.28125 L 47.15625 90.195312 L 47.128906 90.152344 L 47.105469 90.109375 L 47.082031 90.0625 L 46.964844 89.847656 L 46.941406 89.800781 L 46.917969 89.757812 L 46.894531 89.710938 L 46.847656 89.625 L 46.824219 89.578125 L 46.800781 89.535156 L 46.777344 89.488281 L 46.753906 89.445312 L 46.726562 89.402344 L 46.703125 89.355469 L 46.679688 89.3125 L 46.660156 89.265625 L 46.613281 89.179688 L 46.59375 89.132812 L 46.570312 89.089844 L 46.546875 89.042969 L 46.527344 89 L 46.503906 88.957031 L 46.480469 88.910156 L 46.460938 88.867188 L 46.4375 88.820312 L 46.390625 88.734375 L 46.371094 88.6875 L 46.347656 88.640625 L 46.324219 88.597656 L 46.304688 88.550781 L 46.589844 88.414062 L 46.878906 88.273438 L 47.164062 88.136719 L 47.453125 88 L 47.738281 87.859375 L 48.027344 87.722656 L 48.3125 87.582031 L 48.601562 87.445312 L 48.886719 87.308594 L 49.175781 87.167969 L 49.460938 87.03125 L 49.75 86.890625 L 50.035156 86.753906 L 50.324219 86.617188 L 50.609375 86.476562 L 50.898438 86.339844 L 51.183594 86.199219 L 51.472656 86.0625 L 51.757812 85.925781 L 52.046875 85.785156 L 52.332031 85.648438 L 52.621094 85.507812 L 52.90625 85.371094 L 53.195312 85.234375 L 53.480469 85.09375 L 53.769531 84.957031 L 54.054688 84.816406 L 54.34375 84.679688 L 54.628906 84.542969 L 54.917969 84.402344 L 55.203125 84.265625 L 55.492188 84.125 L 55.777344 83.988281 L 56.066406 83.851562 L 56.351562 83.710938 L 56.640625 83.574219 L 56.925781 83.433594 L 57.214844 83.296875 L 57.5 83.160156 L 57.789062 83.019531 L 58.074219 82.882812 L 58.363281 82.742188 L 58.648438 82.605469 L 58.9375 82.46875 L 59.222656 82.328125 L 59.511719 82.191406 L 59.796875 82.050781 L 60.085938 81.914062 L 60.371094 81.777344 L 60.660156 81.636719 L 60.945312 81.5 L 61.234375 81.359375 L 61.519531 81.222656 L 61.808594 81.085938 L 62.09375 80.945312 L 62.382812 80.808594 L 62.667969 80.667969 L 62.957031 80.53125 L 63.242188 80.394531 L 63.53125 80.253906 L 63.816406 80.117188 L 64.105469 79.976562 L 64.390625 79.839844 L 64.679688 79.703125 L 64.964844 79.5625 L 65.253906 79.425781 L 65.539062 79.285156 L 65.828125 79.148438 L 66.113281 79.011719 L 66.402344 78.871094 L 66.6875 78.734375 L 66.976562 78.59375 L 67.261719 78.457031 L 67.550781 78.320312 L 67.835938 78.179688 L 68.125 78.042969 L 68.410156 77.902344 L 68.699219 77.765625 L 68.984375 77.628906 L 69.273438 77.488281 L 69.558594 77.351562 L 69.847656 77.210938 L 70.132812 77.074219 L 70.421875 76.9375 L 70.707031 76.796875 L 70.996094 76.660156 L 71.28125 76.519531 L 71.570312 76.382812 L 71.855469 76.246094 L 72.144531 76.105469 L 72.429688 75.96875 L 72.71875 75.828125 L 73.003906 75.691406 L 73.292969 75.554688 L 73.578125 75.414062 L 73.867188 75.277344 L 74.152344 75.136719 L 74.441406 75 L 74.726562 74.863281 Z M 74.96875 74.746094 "/>
</g>
<mask id="mask10">
  <g filter="url(#alpha)">
<rect x="0" y="0" width="150" height="150" style="fill:rgb(0%,0%,0%);fill-opacity:0.6;stroke:none;"/>
  </g>
</mask>
<clipPath id="clip11">
  <rect x="0" y="0" width="150" height="150"/>
</clipPath>
<g id="surface35" clip-path="url(#clip11)">
<path style=" stroke:none;fill-rule:nonzero;fill:rgb(49.019608%,100%,47.843137%);fill-opacity:1;" d="M 74.96875 74.746094 L 75.039062 75.140625 L 75.105469 75.53125 L 75.171875 75.925781 L 75.238281 76.316406 L 75.304688 76.710938 L 75.371094 77.101562 L 75.4375 77.496094 L 75.503906 77.886719 L 75.570312 78.28125 L 75.640625 78.671875 L 75.707031 79.066406 L 75.773438 79.457031 L 75.839844 79.851562 L 75.90625 80.242188 L 75.972656 80.636719 L 76.039062 81.027344 L 76.105469 81.421875 L 76.171875 81.8125 L 76.238281 82.207031 L 76.308594 82.597656 L 76.375 82.992188 L 76.441406 83.382812 L 76.507812 83.777344 L 76.574219 84.167969 L 76.640625 84.5625 L 76.707031 84.953125 L 76.773438 85.347656 L 76.839844 85.738281 L 76.90625 86.132812 L 76.976562 86.523438 L 77.042969 86.917969 L 77.109375 87.308594 L 77.175781 87.703125 L 77.242188 88.09375 L 77.308594 88.488281 L 77.375 88.878906 L 77.441406 89.273438 L 77.507812 89.664062 L 77.574219 90.058594 L 77.644531 90.449219 L 77.710938 90.84375 L 77.777344 91.234375 L 77.84375 91.628906 L 77.910156 92.019531 L 77.976562 92.414062 L 78.042969 92.804688 L 78.109375 93.199219 L 78.175781 93.589844 L 78.242188 93.984375 L 78.3125 94.375 L 78.378906 94.769531 L 78.445312 95.160156 L 78.511719 95.554688 L 78.578125 95.945312 L 78.644531 96.339844 L 78.710938 96.730469 L 78.777344 97.125 L 78.84375 97.515625 L 78.910156 97.910156 L 78.980469 98.300781 L 79.046875 98.695312 L 79.113281 99.085938 L 79.179688 99.480469 L 79.246094 99.871094 L 79.3125 100.265625 L 79.378906 100.65625 L 79.445312 101.050781 L 79.511719 101.441406 L 79.578125 101.835938 L 79.648438 102.226562 L 79.714844 102.621094 L 79.78125 103.011719 L 79.847656 103.40625 L 79.914062 103.796875 L 79.980469 104.191406 L 80.046875 104.582031 L 80.113281 104.976562 L 80.179688 105.367188 L 80.246094 105.761719 L 80.316406 106.152344 L 80.382812 106.546875 L 80.449219 106.9375 L 80.515625 107.332031 L 80.582031 107.722656 L 80.648438 108.117188 L 80.714844 108.507812 L 80.78125 108.902344 L 80.847656 109.292969 L 80.914062 109.6875 L 80.984375 110.078125 L 81.050781 110.472656 L 81.117188 110.863281 L 81.183594 111.257812 L 81.25 111.648438 L 81.316406 112.042969 L 81.382812 112.433594 L 81.449219 112.828125 L 81.515625 113.21875 L 81.582031 113.613281 L 81.652344 114.003906 L 81.496094 114.03125 L 81.34375 114.054688 L 81.1875 114.082031 L 81.03125 114.105469 L 80.878906 114.128906 L 80.722656 114.152344 L 80.570312 114.171875 L 80.414062 114.195312 L 80.257812 114.214844 L 80.105469 114.234375 L 79.949219 114.253906 L 79.796875 114.273438 L 79.640625 114.292969 L 79.484375 114.308594 L 79.332031 114.328125 L 78.863281 114.375 L 78.710938 114.390625 L 78.554688 114.40625 L 78.398438 114.417969 L 78.242188 114.433594 L 77.617188 114.480469 L 77.460938 114.488281 L 77.304688 114.5 L 77.152344 114.507812 L 76.683594 114.53125 L 76.527344 114.535156 L 76.371094 114.542969 L 75.746094 114.558594 L 75.59375 114.5625 L 75.4375 114.5625 L 75.28125 114.566406 L 74.65625 114.566406 L 74.5 114.5625 L 74.34375 114.5625 L 74.1875 114.558594 L 74.035156 114.554688 L 73.722656 114.546875 L 73.542969 114.492188 L 73.386719 114.484375 L 73.230469 114.480469 L 72.605469 114.449219 L 72.292969 114.425781 L 72.136719 114.417969 L 71.984375 114.40625 L 71.828125 114.394531 L 71.671875 114.378906 L 71.359375 114.355469 L 70.734375 114.292969 L 70.582031 114.273438 L 70.429688 114.257812 L 70.273438 114.238281 L 70.121094 114.222656 L 69.964844 114.203125 L 69.808594 114.179688 L 69.65625 114.160156 L 69.5 114.140625 L 69.347656 114.117188 L 69.035156 114.070312 L 68.882812 114.046875 L 68.726562 114.023438 L 68.574219 114 L 68.417969 113.972656 L 68.265625 113.945312 L 68.113281 113.921875 L 67.957031 113.894531 L 67.804688 113.863281 L 67.652344 113.835938 L 67.496094 113.808594 L 67.191406 113.746094 L 67.039062 113.71875 L 66.882812 113.6875 L 66.730469 113.652344 L 66.425781 113.589844 L 66.121094 113.519531 L 66.300781 112.746094 L 66.390625 112.355469 L 66.476562 111.96875 L 66.566406 111.582031 L 66.65625 111.191406 L 66.835938 110.417969 L 66.921875 110.03125 L 67.011719 109.640625 L 67.191406 108.867188 L 67.28125 108.476562 L 67.367188 108.089844 L 67.457031 107.703125 L 67.546875 107.3125 L 67.726562 106.539062 L 67.8125 106.152344 L 67.902344 105.761719 L 68.082031 104.988281 L 68.171875 104.597656 L 68.257812 104.210938 L 68.347656 103.824219 L 68.4375 103.433594 L 68.617188 102.660156 L 68.703125 102.273438 L 68.792969 101.882812 L 68.972656 101.109375 L 69.0625 100.71875 L 69.148438 100.332031 L 69.238281 99.945312 L 69.328125 99.554688 L 69.507812 98.78125 L 69.59375 98.394531 L 69.683594 98.003906 L 69.863281 97.230469 L 69.953125 96.839844 L 70.039062 96.453125 L 70.128906 96.066406 L 70.21875 95.675781 L 70.398438 94.902344 L 70.484375 94.515625 L 70.574219 94.125 L 70.753906 93.351562 L 70.84375 92.960938 L 70.929688 92.574219 L 71.019531 92.1875 L 71.109375 91.796875 L 71.289062 91.023438 L 71.375 90.636719 L 71.464844 90.246094 L 71.644531 89.472656 L 71.734375 89.082031 L 71.820312 88.695312 L 71.910156 88.308594 L 72 87.917969 L 72.179688 87.144531 L 72.265625 86.757812 L 72.355469 86.367188 L 72.535156 85.59375 L 72.625 85.203125 L 72.710938 84.816406 L 72.800781 84.429688 L 72.890625 84.039062 L 73.070312 83.265625 L 73.15625 82.878906 L 73.246094 82.488281 L 73.425781 81.714844 L 73.515625 81.324219 L 73.601562 80.9375 L 73.691406 80.550781 L 73.78125 80.160156 L 73.960938 79.386719 L 74.046875 79 L 74.136719 78.609375 L 74.316406 77.835938 L 74.40625 77.445312 L 74.492188 77.058594 L 74.582031 76.671875 L 74.671875 76.28125 L 74.851562 75.507812 L 74.9375 75.121094 L 74.972656 74.746094 Z M 74.96875 74.746094 "/>
</g>
<mask id="mask11">
  <g filter="url(#alpha)">
<rect x="0" y="0" width="150" height="150" style="fill:rgb(0%,0%,0%);fill-opacity:0.6;stroke:none;"/>
  </g>
</mask>
<clipPath id="clip12">
  <rect x="0" y="0" width="150" height="150"/>
</clipPath>
<g id="surface38" clip-path="url(#clip12)">
<path style=" stroke:none;fill-rule:nonzero;fill:rgb(100%,40.784314%,0%);fill-opacity:1;" d="M 74.96875 74.746094 L 75.472656 75.136719 L 75.972656 75.53125 L 76.476562 75.921875 L 77.476562 76.703125 L 77.980469 77.09375 L 78.480469 77.488281 L 78.984375 77.878906 L 79.984375 78.660156 L 80.488281 79.050781 L 80.988281 79.445312 L 81.492188 79.835938 L 81.992188 80.226562 L 82.5 80.613281 L 83 81.003906 L 83.503906 81.394531 L 84.003906 81.789062 L 84.507812 82.179688 L 85.507812 82.960938 L 86.011719 83.351562 L 86.511719 83.746094 L 87.015625 84.136719 L 88.015625 84.917969 L 88.519531 85.308594 L 89.019531 85.703125 L 89.523438 86.09375 L 90.523438 86.875 L 91.027344 87.265625 L 91.527344 87.660156 L 92.03125 88.050781 L 93.03125 88.832031 L 93.535156 89.222656 L 94.035156 89.617188 L 94.539062 90.007812 L 95.539062 90.789062 L 96.042969 91.179688 L 96.542969 91.574219 L 97.046875 91.964844 L 98.046875 92.746094 L 98.550781 93.136719 L 99.050781 93.53125 L 99.554688 93.921875 L 100.554688 94.703125 L 101.058594 95.09375 L 101.558594 95.488281 L 102.0625 95.878906 L 103.0625 96.660156 L 103.566406 97.050781 L 104.066406 97.445312 L 104.570312 97.835938 L 105.570312 98.617188 L 106.074219 99.007812 L 106.574219 99.402344 L 107.078125 99.792969 L 108.078125 100.574219 L 108.582031 100.964844 L 109.082031 101.359375 L 109.585938 101.75 L 110.585938 102.53125 L 111.089844 102.921875 L 111.589844 103.316406 L 112.09375 103.707031 L 113.09375 104.488281 L 113.597656 104.878906 L 114.097656 105.273438 L 114.601562 105.664062 L 115.601562 106.445312 L 116.105469 106.835938 L 116.605469 107.230469 L 117.109375 107.621094 L 118.109375 108.402344 L 118.613281 108.792969 L 119.113281 109.1875 L 119.617188 109.578125 L 120.617188 110.359375 L 121.121094 110.75 L 121.621094 111.144531 L 122.125 111.535156 L 123.125 112.316406 L 123.628906 112.707031 L 124.128906 113.101562 L 124.632812 113.492188 L 125.132812 113.882812 L 125.039062 114 L 124.949219 114.121094 L 124.386719 114.824219 L 124.292969 114.9375 L 124.199219 115.054688 L 124.101562 115.171875 L 124.007812 115.285156 L 123.910156 115.402344 L 123.816406 115.519531 L 123.71875 115.632812 L 123.625 115.746094 L 123.527344 115.863281 L 123.136719 116.316406 L 123.039062 116.433594 L 122.941406 116.546875 L 122.839844 116.65625 L 122.644531 116.882812 L 122.542969 116.996094 L 122.445312 117.109375 L 122.34375 117.21875 L 122.246094 117.332031 L 122.144531 117.441406 L 122.042969 117.554688 L 121.941406 117.664062 L 121.84375 117.773438 L 121.738281 117.886719 L 121.230469 118.433594 L 121.125 118.542969 L 121.023438 118.652344 L 120.917969 118.761719 L 120.816406 118.867188 L 120.710938 118.976562 L 120.605469 119.082031 L 120.503906 119.191406 L 120.398438 119.300781 L 120.1875 119.511719 L 120.082031 119.621094 L 119.765625 119.9375 L 119.65625 120.042969 L 119.445312 120.253906 L 119.335938 120.359375 L 119.230469 120.460938 L 119.011719 120.671875 L 118.90625 120.773438 L 118.796875 120.878906 L 118.6875 120.980469 L 118.578125 121.085938 L 118.03125 121.59375 L 117.917969 121.695312 L 117.808594 121.796875 L 117.730469 121.875 L 117.617188 121.976562 L 117.507812 122.078125 L 117.394531 122.175781 L 117.285156 122.277344 L 117.171875 122.375 L 117.058594 122.476562 L 116.945312 122.574219 L 116.835938 122.671875 L 116.609375 122.867188 L 116.496094 122.96875 L 116.382812 123.066406 L 116.265625 123.160156 L 115.925781 123.453125 L 115.808594 123.546875 L 115.695312 123.644531 L 115.578125 123.742188 L 115.464844 123.835938 L 115.347656 123.933594 L 115.230469 124.027344 L 115.117188 124.121094 L 114.648438 124.496094 L 114.25 124 L 113.855469 123.503906 L 113.457031 123.003906 L 113.058594 122.507812 L 112.664062 122.007812 L 112.265625 121.511719 L 111.867188 121.011719 L 111.472656 120.515625 L 111.074219 120.015625 L 110.675781 119.519531 L 110.277344 119.019531 L 109.882812 118.523438 L 109.484375 118.023438 L 109.085938 117.527344 L 108.691406 117.027344 L 108.292969 116.53125 L 107.894531 116.03125 L 107.5 115.535156 L 107.101562 115.035156 L 106.703125 114.539062 L 106.304688 114.039062 L 105.910156 113.542969 L 105.511719 113.042969 L 105.113281 112.546875 L 104.71875 112.046875 L 104.332031 111.5625 L 103.933594 111.066406 L 103.535156 110.566406 L 103.140625 110.070312 L 102.742188 109.570312 L 102.34375 109.074219 L 101.945312 108.574219 L 101.550781 108.078125 L 101.152344 107.578125 L 100.753906 107.082031 L 100.359375 106.582031 L 99.960938 106.085938 L 99.5625 105.585938 L 99.167969 105.089844 L 98.769531 104.589844 L 98.371094 104.09375 L 97.972656 103.59375 L 97.578125 103.097656 L 97.179688 102.597656 L 96.78125 102.101562 L 96.386719 101.601562 L 95.988281 101.105469 L 95.589844 100.605469 L 95.195312 100.109375 L 94.796875 99.609375 L 94.398438 99.113281 L 94 98.613281 L 93.605469 98.117188 L 93.207031 97.617188 L 92.808594 97.121094 L 92.414062 96.621094 L 92.015625 96.125 L 91.617188 95.625 L 91.222656 95.128906 L 90.824219 94.628906 L 90.425781 94.132812 L 90.027344 93.632812 L 89.632812 93.136719 L 89.234375 92.636719 L 88.835938 92.140625 L 88.441406 91.640625 L 88.042969 91.144531 L 87.644531 90.644531 L 87.25 90.148438 L 86.851562 89.648438 L 86.453125 89.152344 L 86.054688 88.652344 L 85.660156 88.15625 L 85.261719 87.65625 L 84.863281 87.160156 L 84.46875 86.660156 L 84.070312 86.164062 L 83.671875 85.664062 L 83.277344 85.167969 L 82.878906 84.667969 L 82.480469 84.171875 L 82.085938 83.671875 L 81.6875 83.175781 L 81.289062 82.675781 L 80.890625 82.179688 L 80.496094 81.679688 L 80.097656 81.183594 L 79.699219 80.683594 L 79.304688 80.1875 L 78.90625 79.6875 L 78.507812 79.191406 L 78.113281 78.691406 L 77.714844 78.195312 L 77.316406 77.695312 L 76.917969 77.199219 L 76.523438 76.699219 L 76.125 76.203125 L 75.726562 75.703125 L 75.332031 75.207031 L 74.972656 74.746094 Z M 74.96875 74.746094 "/>
</g>
</defs>
<g id="surface1">
<path style=" stroke:none;fill-rule:nonzero;fill:rgb(100%,100%,100%);fill-opacity:1;" d="M 74.96875 146.589844 C 55.847656 146.589844 37.871094 139.140625 24.347656 125.621094 C 10.828125 112.101562 3.378906 94.121094 3.378906 75 C 3.378906 55.878906 10.828125 37.898438 24.347656 24.378906 C 37.871094 10.859375 55.847656 3.410156 74.96875 3.410156 C 94.09375 3.410156 112.070312 10.855469 125.59375 24.378906 C 139.117188 37.898438 146.5625 55.878906 146.5625 75 C 146.5625 94.121094 139.113281 112.101562 125.59375 125.621094 C 112.070312 139.144531 94.09375 146.589844 74.96875 146.589844 Z M 74.96875 146.589844 "/>
<use xlink:href="#surface5" mask="url(#mask0)"/>
<use xlink:href="#surface8" mask="url(#mask1)"/>
<use xlink:href="#surface11" mask="url(#mask2)"/>
<use xlink:href="#surface14" mask="url(#mask3)"/>
<use xlink:href="#surface17" mask="url(#mask4)"/>
<path style=" stroke:none;fill-rule:nonzero;fill:rgb(6.666667%,33.333333%,48.627451%);fill-opacity:1;" d="M 75 147.65625 C 55.59375 147.65625 37.347656 140.097656 23.625 126.375 C 9.902344 112.652344 2.34375 94.40625 2.34375 75 C 2.34375 55.59375 9.902344 37.347656 23.625 23.625 C 37.347656 9.898438 55.59375 2.34375 75 2.34375 C 94.40625 2.34375 112.652344 9.902344 126.375 23.625 C 140.097656 37.347656 147.65625 55.59375 147.65625 75 C 147.65625 94.40625 140.097656 112.652344 126.375 126.375 C 112.652344 140.097656 94.40625 147.65625 75 147.65625 Z M 75 4.476562 C 56.164062 4.476562 38.453125 11.8125 25.132812 25.132812 C 11.8125 38.453125 4.476562 56.164062 4.476562 75 C 4.476562 93.835938 11.8125 111.546875 25.132812 124.867188 C 38.453125 138.1875 56.164062 145.523438 75 145.523438 C 93.835938 145.523438 111.546875 138.1875 124.867188 124.867188 C 138.1875 111.546875 145.523438 93.835938 145.523438 75 C 145.523438 56.164062 138.1875 38.453125 124.867188 25.132812 C 111.546875 11.8125 93.835938 4.476562 75 4.476562 Z M 75 4.476562 "/>
<use xlink:href="#surface20" mask="url(#mask5)"/>
<use xlink:href="#surface23" mask="url(#mask6)"/>
<use xlink:href="#surface26" mask="url(#mask7)"/>
<use xlink:href="#surface29" mask="url(#mask8)"/>
<use xlink:href="#surface32" mask="url(#mask9)"/>
<use xlink:href="#surface35" mask="url(#mask10)"/>
<use xlink:href="#surface38" mask="url(#mask11)"/>
<path style=" stroke:none;fill-rule:nonzero;fill:rgb(17.254902%,17.254902%,17.254902%);fill-opacity:1;" d="M 90.878906 75.230469 L 74.96875 75.230469 C 74.734375 75.226562 74.535156 75.054688 74.496094 74.820312 C 74.460938 74.589844 74.597656 74.363281 74.820312 74.285156 L 89.953125 69.371094 C 90.074219 69.332031 90.207031 69.34375 90.320312 69.398438 C 90.4375 69.457031 90.523438 69.558594 90.5625 69.683594 C 91.09375 71.320312 91.367188 73.023438 91.363281 74.746094 C 91.363281 75.015625 91.148438 75.230469 90.878906 75.230469 Z M 78.03125 74.261719 L 90.386719 74.261719 C 90.347656 72.96875 90.144531 71.6875 89.785156 70.445312 Z M 78.03125 74.261719 "/>
<path style=" stroke:none;fill-rule:nonzero;fill:rgb(17.254902%,17.254902%,17.254902%);fill-opacity:1;" d="M 74.96875 75.230469 C 74.8125 75.230469 74.664062 75.152344 74.574219 75.023438 C 74.484375 74.890625 74.460938 74.726562 74.515625 74.578125 L 91.289062 29.894531 C 91.332031 29.773438 91.421875 29.675781 91.539062 29.625 C 91.65625 29.570312 91.792969 29.566406 91.910156 29.609375 C 96.648438 31.386719 101.078125 33.898438 105.03125 37.054688 C 105.242188 37.21875 105.273438 37.523438 105.109375 37.734375 L 75.347656 75.046875 C 75.257812 75.164062 75.117188 75.230469 74.96875 75.230469 Z M 92.023438 30.691406 L 76.5 72.050781 L 104.046875 37.511719 C 100.398438 34.65625 96.34375 32.359375 92.023438 30.691406 Z M 92.023438 30.691406 "/>
<path style=" stroke:none;fill-rule:nonzero;fill:rgb(17.254902%,17.254902%,17.254902%);fill-opacity:1;" d="M 74.96875 75.230469 C 74.828125 75.230469 74.691406 75.167969 74.597656 75.058594 L 33.816406 26.207031 C 33.734375 26.109375 33.695312 25.980469 33.707031 25.855469 C 33.71875 25.726562 33.777344 25.609375 33.878906 25.527344 C 41.648438 19.042969 50.839844 14.488281 60.703125 12.234375 C 60.964844 12.175781 61.226562 12.339844 61.285156 12.601562 L 75.445312 74.640625 C 75.492188 74.859375 75.386719 75.082031 75.1875 75.183594 C 75.117188 75.214844 75.046875 75.230469 74.96875 75.230469 Z M 34.871094 25.960938 L 74.046875 72.886719 L 60.445312 13.289062 C 51.066406 15.507812 42.320312 19.84375 34.871094 25.960938 Z M 34.871094 25.960938 "/>
<path style=" stroke:none;fill-rule:nonzero;fill:rgb(17.254902%,17.254902%,17.254902%);fill-opacity:1;" d="M 20.183594 85.171875 C 19.949219 85.171875 19.75 85.003906 19.707031 84.777344 C 17.585938 73.191406 19.238281 60.976562 24.371094 50.375 C 24.484375 50.132812 24.773438 50.035156 25.015625 50.148438 L 75.179688 74.308594 C 75.371094 74.398438 75.480469 74.601562 75.453125 74.808594 C 75.425781 75.019531 75.265625 75.183594 75.058594 75.222656 L 20.273438 85.164062 C 20.242188 85.171875 20.214844 85.171875 20.183594 85.171875 Z M 25.03125 51.234375 C 20.222656 61.40625 18.648438 73.042969 20.578125 84.125 L 73.417969 74.539062 Z M 25.03125 51.234375 "/>
<path style=" stroke:none;fill-rule:nonzero;fill:rgb(17.254902%,17.254902%,17.254902%);fill-opacity:1;" d="M 48.816406 93.351562 C 48.65625 93.347656 48.507812 93.273438 48.417969 93.140625 C 47.453125 91.75 46.601562 90.285156 45.867188 88.761719 C 45.808594 88.644531 45.800781 88.511719 45.84375 88.390625 C 45.886719 88.269531 45.976562 88.171875 46.09375 88.113281 L 74.757812 74.308594 C 74.988281 74.191406 75.269531 74.273438 75.398438 74.496094 C 75.527344 74.71875 75.460938 75.003906 75.246094 75.144531 L 49.09375 93.265625 C 49.011719 93.320312 48.914062 93.351562 48.816406 93.351562 Z M 46.953125 88.773438 C 47.542969 89.953125 48.210938 91.09375 48.941406 92.1875 L 69.632812 77.855469 L 46.953125 88.777344 Z M 46.953125 88.773438 "/>
<path style=" stroke:none;fill-rule:nonzero;fill:rgb(17.254902%,17.254902%,17.254902%);fill-opacity:1;" d="M 74.988281 115 C 71.964844 115 68.9375 114.660156 66.011719 113.992188 C 65.75 113.933594 65.589844 113.675781 65.648438 113.414062 L 74.496094 74.636719 C 74.546875 74.414062 74.757812 74.222656 74.984375 74.261719 C 75.214844 74.265625 75.410156 74.4375 75.449219 74.664062 L 82.109375 113.875 C 82.152344 114.140625 81.976562 114.390625 81.710938 114.433594 C 79.492188 114.8125 77.242188 115 74.988281 115 Z M 66.699219 113.152344 C 71.386719 114.160156 76.332031 114.300781 81.074219 113.558594 L 74.902344 77.230469 Z M 66.699219 113.152344 "/>
<path style=" stroke:none;fill-rule:nonzero;fill:rgb(17.254902%,17.254902%,17.254902%);fill-opacity:1;" d="M 114.648438 124.984375 C 114.5 124.984375 114.359375 124.914062 114.265625 124.800781 L 74.589844 75.046875 C 74.4375 74.855469 74.449219 74.578125 74.621094 74.402344 C 74.796875 74.226562 75.074219 74.210938 75.265625 74.363281 L 125.460938 113.480469 C 125.671875 113.644531 125.710938 113.949219 125.546875 114.160156 C 122.445312 118.136719 118.890625 121.734375 114.945312 124.878906 C 114.863281 124.945312 114.753906 124.984375 114.648438 124.984375 Z M 77.902344 77.644531 L 114.722656 123.816406 C 118.328125 120.894531 121.601562 117.585938 124.484375 113.945312 Z M 77.902344 77.644531 "/>
</g>
</svg>
