<?xml version="1.0" encoding="UTF-8"?>
<svg xmlns="http://www.w3.org/2000/svg" xmlns:xlink="http://www.w3.org/1999/xlink" width="150px" height="150px" viewBox="0 0 150 150" version="1.1">
<g id="surface1">
<path style=" stroke:none;fill-rule:evenodd;fill:rgb(26.27451%,60%,20.392157%);fill-opacity:1;" d="M 103.167969 50.171875 C 105.050781 55.609375 106.40625 61.164062 106.851562 66.921875 C 107.402344 74.066406 107.148438 81.15625 105.644531 88.183594 C 105.605469 88.378906 105.515625 88.558594 105.453125 88.746094 C 104.980469 88.746094 104.5 88.6875 104.035156 88.761719 C 100.136719 89.375 96.238281 90.007812 92.339844 90.640625 C 88.3125 91.292969 84.277344 91.917969 80.253906 92.617188 C 78.828125 92.863281 77.066406 92.570312 76.492188 94.539062 C 76.472656 94.59375 76.308594 94.601562 76.214844 94.632812 L 76.410156 82.855469 L 76.210938 54.433594 L 78.089844 54.113281 C 81.160156 53.609375 84.230469 53.101562 87.300781 52.613281 C 90.96875 52.027344 94.640625 51.464844 98.308594 50.894531 C 99.925781 50.644531 101.546875 50.410156 103.167969 50.171875 Z M 103.167969 50.171875 "/>
<path style=" stroke:none;fill-rule:evenodd;fill:rgb(27.058824%,64.705882%,21.960784%);fill-opacity:1;" d="M 72.339844 128.96875 C 70.359375 127.265625 68.308594 125.640625 66.410156 123.847656 C 56.195312 114.214844 48.722656 102.875 45.042969 89.199219 C 44.03125 85.4375 43.355469 81.613281 43.136719 77.726562 C 42.984375 75.003906 42.765625 72.257812 42.957031 69.550781 C 43.46875 62.351562 44.507812 55.222656 46.621094 48.285156 L 46.738281 48.125 C 46.941406 48.398438 47.238281 48.636719 47.339844 48.945312 C 49.402344 55.015625 51.449219 61.09375 53.484375 67.171875 C 59.878906 86.273438 66.269531 105.378906 72.675781 124.476562 C 72.800781 124.847656 73.125 125.152344 73.359375 125.488281 Z M 72.339844 128.96875 "/>
<path style=" stroke:none;fill-rule:evenodd;fill:rgb(27.45098%,62.745098%,21.568627%);fill-opacity:1;" d="M 103.167969 50.171875 C 101.546875 50.410156 99.925781 50.640625 98.308594 50.890625 C 94.636719 51.460938 90.96875 52.027344 87.300781 52.609375 C 84.226562 53.097656 81.15625 53.609375 78.085938 54.109375 L 76.210938 54.433594 L 76.195312 53.207031 C 76.132812 52.199219 76.027344 51.195312 76.015625 50.1875 C 75.933594 43.769531 75.886719 37.351562 75.804688 30.929688 C 75.757812 26.910156 75.683594 22.894531 75.601562 18.878906 C 75.550781 16.382812 75.496094 13.882812 75.382812 11.390625 C 75.320312 10.050781 75.105469 8.71875 75.019531 7.378906 C 74.96875 6.609375 75.039062 5.835938 75.050781 5.0625 C 76.011719 6.917969 76.945312 8.785156 77.929688 10.625 C 79.484375 13.539062 81.964844 15.683594 84.191406 18.023438 C 93.007812 27.269531 99.269531 38.023438 103.167969 50.171875 Z M 103.167969 50.171875 "/>
<path style=" stroke:none;fill-rule:evenodd;fill:rgb(25.098039%,58.039216%,20%);fill-opacity:1;" d="M 76.214844 94.632812 C 76.308594 94.601562 76.472656 94.59375 76.488281 94.539062 C 77.066406 92.566406 78.828125 92.863281 80.253906 92.617188 C 84.277344 91.917969 88.308594 91.292969 92.339844 90.640625 C 96.238281 90.007812 100.132812 89.371094 104.035156 88.757812 C 104.496094 88.6875 104.980469 88.746094 105.453125 88.746094 C 104.722656 91.347656 104.148438 94.003906 103.222656 96.535156 C 102.171875 99.40625 100.902344 102.203125 99.554688 104.949219 C 74.421875 112.800781 47.164062 102.601562 33.355469 80.183594 C 19.546875 57.765625 22.699219 28.835938 41.015625 9.921875 C 59.332031 -8.996094 88.144531 -13.078125 110.996094 0 C 108.746094 2.703125 106.238281 5.203125 103.726562 7.671875 C 102.339844 9.039062 100.703125 10.152344 99.179688 11.378906 L 98.78125 11.109375 L 97.359375 9.890625 L 95.890625 6.664062 C 116.003906 22.339844 120.554688 50.910156 106.300781 72.054688 C 92.050781 93.199219 63.859375 99.703125 41.785156 86.941406 C 19.707031 74.175781 11.28125 46.503906 22.496094 23.601562 C 33.710938 0.699219 60.742188 -9.613281 84.359375 0 L 84.386719 -0.65625 L 84.585938 -3.5 C 84.652344 -4.46875 84.742188 -5.441406 84.785156 -6.414062 C 84.933594 -9.90625 85.066406 -13.402344 85.203125 -16.894531 Z M 76.214844 94.632812 "/>
<path style=" stroke:none;fill-rule:evenodd;fill:rgb(30.980392%,66.666667%,25.490196%);fill-opacity:1;" d="M 76.214844 94.632812 C 76.074219 98.125 75.945312 101.621094 75.796875 105.117188 C 75.753906 106.089844 75.664062 107.058594 75.597656 108.03125 L 74.703125 108.367188 C 72.710938 102.507812 70.71875 96.707031 68.769531 90.890625 C 65.546875 81.273438 62.363281 71.636719 59.144531 62.015625 C 51.253906 41.390625 43.496094 20.71875 35.863281 0 C 35.742188 -0.363281 35.386719 -0.648438 35.140625 -0.96875 L 40.878906 -11.515625 C 41.074219 -11.175781 41.335938 -10.855469 41.460938 -10.488281 C 3951.960938 -785.035156 7751.199219 1752.960938 8532.914062 5662.035156 C 9314.628906 9571.109375 6783.605469 13374.996094 2875.96875 14163.875 C -1031.667969 14952.753906 -4840.1875 12428.707031 -5636.226562 8522.523438 C -6432.265625 4616.335938 -3915.203125 803.199219 -10.488281 0 C -7.070312 10.230469 -3.675781 20.46875 -0.257812 30.699219 C -0.125 31.109375 0.101562 31.488281 0.316406 31.945312 L 1.101562 31.03125 L 0.90625 42.8125 Z M 76.214844 94.632812 "/>
<path style=" stroke:none;fill-rule:evenodd;fill:rgb(29.019608%,65.490196%,23.529412%);fill-opacity:1;" d="M 50.570312 37.765625 C 50.820312 38.085938 51.171875 38.371094 51.296875 38.734375 C 937.59375 2808.113281 -585.632812 5772.210938 -3353.292969 6663.855469 C -6120.953125 7555.496094 -9087.988281 6038 -9984.972656 3272.066406 C -10881.960938 506.132812 -9370.195312 -2463.828125 -6605.996094 -3366.152344 C -3841.800781 -4268.476562 -868.925781 -2762.449219 38.734375 0 C 41.953125 9.621094 45.136719 19.257812 48.359375 28.878906 C 50.304688 34.691406 52.296875 40.492188 54.289062 46.351562 L 55.1875 46.015625 L 54.988281 48.859375 L 54.804688 49.511719 C 54.492188 52.625 54.230469 55.746094 53.851562 58.851562 C 53.660156 60.40625 53.253906 61.933594 52.945312 63.476562 C 52.714844 63.140625 52.390625 62.832031 52.261719 62.460938 C 45.855469 43.363281 39.46875 24.257812 33.074219 5.15625 C 26.996094 3.449219 20.917969 1.730469 14.847656 0 C 14.746094 -0.308594 14.449219 -0.550781 14.246094 -0.824219 L 18.078125 -11.183594 Z M 50.570312 37.765625 "/>
<path style=" stroke:none;fill-rule:evenodd;fill:rgb(34.117647%,68.235294%,27.843137%);fill-opacity:1;" d="M 76.410156 82.855469 L 75.625 83.769531 C 75.410156 83.308594 75.183594 82.929688 75.046875 82.523438 C 71.632812 72.292969 68.238281 62.054688 64.820312 51.824219 C 56.894531 34.578125 49.035156 17.304688 41.246094 0 C 41.121094 -0.367188 40.859375 -0.6875 40.664062 -1.03125 L 47.757812 -10.363281 C 47.984375 -10.066406 48.300781 -9.800781 48.417969 -9.460938 C 50.386719 -3.695312 52.339844 2.078125 54.28125 7.855469 C 56.09375 13.25 57.878906 18.652344 59.710938 24.042969 C 59.835938 24.402344 60.265625 24.660156 60.550781 24.964844 L 60.5625 26.1875 C 60.632812 35.660156 60.699219 45.132812 60.765625 54.605469 Z M 76.410156 82.855469 "/>
<path style=" stroke:none;fill-rule:evenodd;fill:rgb(37.647059%,69.803922%,30.980392%);fill-opacity:1;" d="M 76.195312 53.207031 C 75.910156 52.902344 75.484375 52.648438 75.359375 52.285156 C 73.527344 46.898438 71.738281 41.496094 69.925781 36.097656 C 67.984375 30.320312 66.035156 24.550781 64.0625 18.78125 C 63.949219 18.445312 63.628906 18.179688 63.40625 17.878906 C 65.710938 15.621094 67.949219 13.28125 70.347656 11.125 C 72.484375 9.210938 74.199219 7.15625 74.277344 4.132812 C 74.28125 4.007812 74.347656 3.882812 74.445312 3.53125 L 75.054688 5.058594 C 75.039062 5.835938 74.96875 6.609375 75.019531 7.378906 C 75.109375 8.71875 75.324219 10.050781 75.386719 11.390625 C 75.5 13.882812 75.550781 16.378906 75.601562 18.875 C 75.683594 22.894531 75.757812 26.910156 75.808594 30.929688 C 75.886719 37.347656 75.9375 43.769531 76.019531 50.1875 C 76.027344 51.195312 76.132812 52.203125 76.195312 53.207031 Z M 76.195312 53.207031 "/>
<path style=" stroke:none;fill-rule:evenodd;fill:rgb(66.27451%,66.666667%,53.333333%);fill-opacity:1;" d="M 73.355469 125.488281 C 73.664062 123.949219 74.070312 122.417969 74.261719 120.863281 C 74.644531 117.761719 74.902344 114.640625 75.214844 111.527344 L 75.292969 111.515625 L 75.371094 111.527344 C 44.574219 101.542969 27.699219 68.484375 37.683594 37.6875 C 47.667969 6.886719 80.730469 -9.984375 111.527344 0 C 111.320312 0.273438 111.027344 0.515625 110.921875 0.820312 C 110.066406 3.222656 109.265625 5.644531 108.410156 8.046875 C 108.292969 8.375 107.964844 8.632812 107.734375 8.917969 L 106.859375 5.910156 L 107.878906 2.433594 Z M 73.355469 125.488281 "/>
<path style=" stroke:none;fill-rule:evenodd;fill:rgb(71.372549%,70.980392%,59.607843%);fill-opacity:1;" d="M 73.214844 131.976562 C 73.445312 131.6875 73.769531 131.433594 73.886719 131.105469 C 74.742188 128.703125 75.546875 126.285156 76.398438 123.878906 C 76.507812 123.574219 76.796875 123.332031 77.003906 123.058594 L 78.476562 126.285156 C 78.183594 126.699219 77.785156 127.070312 77.621094 127.53125 L 74.804688 135.800781 C 74.691406 136.132812 74.292969 136.367188 74.027344 136.648438 Z M 73.214844 131.976562 "/>
<path style=" stroke:none;fill-rule:evenodd;fill:rgb(76.078431%,75.686275%,65.490196%);fill-opacity:1;" d="M 74.027344 136.648438 C 74.292969 136.367188 74.6875 136.132812 74.804688 135.800781 L 77.621094 127.527344 C 77.78125 127.070312 78.183594 126.695312 78.476562 126.285156 L 79.898438 127.5 C 79.210938 128.179688 78.828125 128.964844 79.058594 129.957031 L 78.625 131.375 C 78.429688 131.617188 78.144531 131.828125 78.046875 132.105469 C 77.066406 134.921875 76.125 137.75 75.136719 140.566406 C 75.011719 140.925781 74.664062 141.203125 74.417969 141.519531 C 74.289062 139.894531 74.160156 138.273438 74.027344 136.648438 Z M 74.027344 136.648438 "/>
<path style=" stroke:none;fill-rule:evenodd;fill:rgb(80.784314%,80.392157%,71.764706%);fill-opacity:1;" d="M 74.417969 141.519531 C 74.664062 141.203125 75.011719 140.921875 75.136719 140.566406 C 76.128906 137.753906 77.066406 134.921875 78.050781 132.105469 C 78.148438 131.828125 78.429688 131.617188 78.628906 131.375 L 78.03125 137.871094 C 77.871094 138.054688 77.640625 138.214844 77.566406 138.429688 C 76.890625 140.320312 76.257812 142.226562 75.578125 144.117188 C 75.441406 144.507812 75.171875 144.851562 74.964844 145.21875 C 74.78125 144.976562 74.449219 144.742188 74.433594 144.488281 C 74.375 143.503906 74.414062 142.507812 74.417969 141.519531 Z M 74.417969 141.519531 "/>
<path style=" stroke:none;fill-rule:evenodd;fill:rgb(85.882353%,85.490196%,78.039216%);fill-opacity:1;" d="M 74.964844 145.21875 C 75.171875 144.851562 75.4375 144.507812 75.578125 144.117188 C 76.257812 142.226562 76.890625 140.324219 77.5625 138.429688 C 77.640625 138.214844 77.871094 138.054688 78.03125 137.871094 L 78.042969 142.136719 L 76.617188 145.796875 Z M 74.964844 145.21875 "/>
<path style=" stroke:none;fill-rule:evenodd;fill:rgb(92.156863%,91.372549%,86.27451%);fill-opacity:1;" d="M 76.617188 145.796875 L 78.042969 142.136719 L 78.339844 146.46875 Z M 76.617188 145.796875 "/>
<path style=" stroke:none;fill-rule:evenodd;fill:rgb(80.784314%,80.392157%,71.764706%);fill-opacity:1;" d="M 79.058594 129.957031 C 78.828125 128.964844 79.210938 128.179688 79.898438 127.5 L 80.292969 127.769531 Z M 79.058594 129.957031 "/>
<path style=" stroke:none;fill-rule:evenodd;fill:rgb(30.980392%,66.666667%,25.490196%);fill-opacity:1;" d="M 75.371094 111.53125 L 75.292969 111.515625 L 75.214844 111.527344 L 75.398438 110.875 Z M 75.371094 111.53125 "/>
</g>
</svg>
