<?xml version="1.0" encoding="UTF-8"?>
<svg xmlns="http://www.w3.org/2000/svg" xmlns:xlink="http://www.w3.org/1999/xlink" width="150px" height="150px" viewBox="0 0 150 150" version="1.1">
<g id="surface1">
<path style=" stroke:none;fill-rule:nonzero;fill:rgb(0%,38.039216%,54.117647%);fill-opacity:1;" d="M 137.046875 114.617188 C 129.007812 114.398438 122.863281 115.148438 117.613281 117.359375 C 116.121094 117.992188 113.738281 118.007812 113.496094 119.875 C 114.316406 120.734375 114.445312 122.019531 115.09375 123.078125 C 116.351562 125.105469 118.464844 127.824219 120.355469 129.25 C 122.421875 130.808594 124.546875 132.476562 126.757812 133.824219 C 130.695312 136.222656 135.085938 137.59375 138.875 139.996094 C 141.109375 141.414062 143.328125 143.199219 145.507812 144.796875 C 146.585938 145.589844 147.308594 146.820312 148.707031 147.3125 L 148.707031 147.085938 C 147.972656 146.148438 147.78125 144.863281 147.109375 143.882812 L 144.132812 140.910156 C 141.226562 137.054688 137.539062 133.664062 133.617188 130.851562 C 130.488281 128.605469 123.488281 125.570312 122.183594 121.933594 L 121.957031 121.703125 C 124.171875 121.453125 126.769531 120.652344 128.816406 120.101562 C 132.253906 119.183594 135.328125 119.421875 138.875 118.503906 L 143.679688 117.132812 L 143.679688 116.21875 C 141.882812 114.375 140.605469 111.9375 138.648438 110.273438 C 133.527344 105.914062 127.941406 101.558594 122.1875 97.925781 C 118.992188 95.910156 115.050781 94.601562 111.667969 92.894531 C 110.527344 92.320312 108.53125 92.019531 107.777344 91.0625 C 106 88.800781 105.035156 85.929688 103.664062 83.289062 C 100.792969 77.761719 97.976562 71.726562 95.433594 65.910156 C 93.699219 61.945312 92.566406 58.035156 90.402344 54.476562 C 80.019531 37.40625 68.84375 27.105469 51.53125 16.976562 C 47.847656 14.824219 43.410156 13.972656 38.722656 12.859375 C 36.210938 12.710938 33.695312 12.554688 31.179688 12.402344 C 29.644531 11.761719 28.046875 9.882812 26.605469 8.972656 C 20.871094 5.347656 6.160156 -2.53125 1.914062 7.832031 C -0.769531 14.371094 5.921875 20.75 8.3125 24.066406 C 9.996094 26.386719 12.144531 28.996094 13.34375 31.609375 C 14.136719 33.328125 14.269531 35.054688 14.945312 36.871094 C 16.609375 41.351562 18.054688 46.222656 20.207031 50.359375 C 21.292969 52.457031 22.488281 54.660156 23.863281 56.535156 C 24.707031 57.683594 26.148438 58.1875 26.378906 59.964844 C 24.964844 61.941406 24.886719 65.007812 24.09375 67.511719 C 20.519531 78.777344 21.867188 92.785156 27.066406 101.125 C 28.660156 103.683594 32.417969 109.175781 37.582031 107.070312 C 42.101562 105.230469 41.09375 99.523438 42.386719 94.492188 C 42.675781 93.351562 42.496094 92.511719 43.070312 91.75 L 43.070312 91.976562 L 47.1875 100.207031 C 50.234375 105.113281 55.640625 110.242188 60.222656 113.703125 C 62.597656 115.496094 64.46875 118.597656 67.539062 119.644531 L 67.539062 119.417969 L 67.308594 119.417969 C 66.714844 118.488281 65.78125 118.105469 65.023438 117.359375 C 63.234375 115.605469 61.246094 113.425781 59.765625 111.414062 C 55.597656 105.757812 51.917969 99.566406 48.5625 93.125 C 46.957031 90.042969 45.566406 86.652344 44.214844 83.519531 C 43.695312 82.3125 43.703125 80.484375 42.617188 79.859375 C 41.136719 82.15625 38.957031 84.011719 37.8125 86.71875 C 35.984375 91.050781 35.75 96.335938 35.070312 101.8125 C 34.667969 101.953125 34.847656 101.855469 34.613281 102.039062 C 31.425781 101.269531 30.308594 97.992188 29.125 95.179688 C 26.132812 88.066406 25.574219 76.613281 28.210938 68.425781 C 28.890625 66.308594 31.972656 59.636719 30.722656 57.679688 C 30.128906 55.726562 28.164062 54.597656 27.066406 53.105469 C 25.707031 51.261719 24.347656 48.832031 23.40625 46.703125 C 20.957031 41.15625 19.8125 34.929688 17.234375 29.324219 C 16 26.644531 13.914062 23.933594 12.203125 21.550781 C 10.308594 18.910156 8.183594 16.964844 6.714844 13.777344 C 6.191406 12.640625 5.484375 10.824219 6.257812 9.660156 C 6.503906 8.871094 6.851562 8.542969 7.628906 8.289062 C 8.957031 7.265625 12.648438 8.628906 14.03125 9.199219 C 17.695312 10.722656 20.757812 12.175781 23.863281 14.234375 C 25.351562 15.222656 26.863281 17.132812 28.664062 17.664062 L 30.722656 17.664062 C 33.941406 18.402344 37.546875 17.890625 40.554688 18.804688 C 45.871094 20.421875 50.636719 22.933594 54.960938 25.664062 C 68.140625 33.988281 78.917969 45.832031 86.289062 59.964844 C 87.472656 62.242188 87.988281 64.410156 89.03125 66.824219 C 91.136719 71.691406 93.792969 76.699219 95.890625 81.460938 C 97.980469 86.207031 100.019531 91 102.976562 94.953125 C 104.535156 97.027344 110.539062 98.140625 113.269531 99.296875 C 115.179688 100.105469 118.316406 100.949219 120.128906 102.039062 C 123.589844 104.128906 126.945312 106.613281 130.191406 108.898438 C 131.8125 110.042969 136.800781 112.550781 137.046875 114.617188 Z M 34.839844 27.5 C 33.160156 27.46875 31.976562 27.683594 30.722656 27.953125 L 30.722656 28.183594 L 30.949219 28.183594 C 31.75 29.828125 33.164062 30.886719 34.152344 32.300781 C 34.914062 33.902344 35.675781 35.5 36.4375 37.101562 L 36.664062 36.875 C 38.082031 35.875 38.730469 34.28125 38.722656 31.84375 C 38.15625 31.246094 38.070312 30.5 37.578125 29.785156 C 36.929688 28.835938 35.664062 28.296875 34.839844 27.5 Z M 34.839844 27.5 "/>
</g>
</svg>
