<?xml version="1.0" encoding="UTF-8"?>
<svg xmlns="http://www.w3.org/2000/svg" xmlns:xlink="http://www.w3.org/1999/xlink" width="150px" height="150px" viewBox="0 0 150 150" version="1.1">
<g id="surface1">
<path style=" stroke:none;fill-rule:nonzero;fill:rgb(0%,55.294118%,76.078431%);fill-opacity:1;" d="M 134.320312 68.125 C 134.320312 102.738281 106.265625 130.792969 71.652344 130.792969 C 37.035156 130.792969 8.980469 102.738281 8.980469 68.125 C 8.980469 33.507812 37.035156 5.453125 71.652344 5.453125 C 106.265625 5.421875 134.324219 33.507812 134.324219 68.125 "/>
<path style=" stroke:none;fill-rule:nonzero;fill:rgb(100%,100%,100%);fill-opacity:1;" d="M 36.765625 47.566406 C 36.765625 50.328125 34.515625 52.578125 31.753906 52.578125 C 28.992188 52.578125 26.742188 50.328125 26.742188 47.566406 C 26.742188 44.804688 28.992188 42.554688 31.753906 42.554688 C 33.082031 42.554688 34.359375 43.078125 35.300781 44.019531 C 36.242188 44.960938 36.769531 46.238281 36.765625 47.566406 "/>
<path style=" stroke:none;fill-rule:nonzero;fill:rgb(100%,100%,100%);fill-opacity:1;" d="M 37.613281 61.320312 C 37.613281 64.085938 35.367188 66.332031 32.605469 66.332031 C 29.839844 66.332031 27.59375 64.085938 27.59375 61.320312 C 27.59375 58.558594 29.839844 56.3125 32.605469 56.3125 C 33.933594 56.308594 35.210938 56.835938 36.152344 57.773438 C 37.089844 58.714844 37.617188 59.992188 37.613281 61.320312 "/>
<path style=" stroke:none;fill-rule:nonzero;fill:rgb(100%,100%,100%);fill-opacity:1;" d="M 40.679688 75.894531 C 40.679688 78.660156 38.433594 80.90625 35.667969 80.90625 C 32.90625 80.90625 30.660156 78.660156 30.660156 75.894531 C 30.660156 73.132812 32.90625 70.886719 35.667969 70.886719 C 38.433594 70.855469 40.679688 73.101562 40.679688 75.894531 M 47.542969 88.953125 C 47.542969 91.714844 45.296875 93.960938 42.53125 93.960938 C 39.769531 93.960938 37.523438 91.714844 37.523438 88.953125 C 37.523438 86.1875 39.769531 83.941406 42.53125 83.941406 C 45.296875 83.910156 47.542969 86.160156 47.542969 88.953125 "/>
<path style=" stroke:none;fill-rule:nonzero;fill:rgb(100%,100%,100%);fill-opacity:1;" d="M 101.195312 107.199219 C 101.195312 109.964844 98.949219 112.210938 96.183594 112.210938 C 93.421875 112.210938 91.175781 109.964844 91.175781 107.199219 C 91.175781 104.4375 93.421875 102.191406 96.183594 102.191406 C 98.949219 102.191406 101.195312 104.4375 101.195312 107.199219 "/>
<path style=" stroke:none;fill-rule:nonzero;fill:rgb(100%,100%,100%);fill-opacity:1;" d="M 110.304688 96.421875 C 110.304688 99.183594 108.058594 101.429688 105.292969 101.429688 C 102.53125 101.429688 100.285156 99.183594 100.285156 96.421875 C 100.285156 93.65625 102.53125 91.410156 105.292969 91.410156 C 108.058594 91.410156 110.304688 93.65625 110.304688 96.421875 "/>
<path style=" stroke:none;fill-rule:nonzero;fill:rgb(100%,100%,100%);fill-opacity:1;" d="M 83.886719 20.207031 C 83.886719 22.972656 81.640625 25.21875 78.878906 25.21875 C 76.113281 25.21875 73.867188 22.972656 73.867188 20.207031 C 73.867188 17.445312 76.113281 15.199219 78.878906 15.199219 C 81.640625 15.199219 83.886719 17.445312 83.886719 20.207031 "/>
<path style=" stroke:none;fill-rule:nonzero;fill:rgb(100%,100%,100%);fill-opacity:1;" d="M 70.710938 15.585938 C 70.710938 18.347656 68.464844 20.59375 65.699219 20.59375 C 62.9375 20.59375 60.6875 18.355469 60.6875 15.585938 C 60.6875 12.8125 62.9375 10.574219 65.699219 10.574219 C 68.460938 10.574219 70.710938 12.824219 70.710938 15.585938 "/>
<path style="fill-rule:nonzero;fill:rgb(40.784314%,70.196078%,27.45098%);fill-opacity:1;stroke-width:3.5;stroke-linecap:butt;stroke-linejoin:miter;stroke:rgb(100%,100%,100%);stroke-opacity:1;stroke-miterlimit:4;" d="M 166.522603 138.454266 C 166.522603 161.783776 147.609989 180.696389 124.275539 180.696389 C 100.94603 180.696389 82.033416 161.783776 82.033416 138.454266 C 82.033416 115.124757 100.94603 96.212143 124.275539 96.212143 C 147.609989 96.212143 166.522603 115.124757 166.522603 138.454266 Z M 166.522603 138.454266 " transform="matrix(0.790643,0,0,0.790643,7.976794,-56.284298)"/>
<path style="fill-rule:nonzero;fill:rgb(40.784314%,70.196078%,27.45098%);fill-opacity:1;stroke-width:3.5;stroke-linecap:butt;stroke-linejoin:miter;stroke:rgb(100%,100%,100%);stroke-opacity:1;stroke-miterlimit:4;" d="M 100.965792 224.593613 C 100.965792 243.684088 85.491836 259.158045 66.40136 259.158045 C 47.315826 259.158045 31.841869 243.684088 31.841869 224.593613 C 31.841869 205.503138 47.315826 190.029181 66.40136 190.029181 C 85.491836 190.029181 100.965792 205.503138 100.965792 224.593613 Z M 100.965792 224.593613 " transform="matrix(0.790643,0,0,0.790643,7.976794,-56.284298)"/>
<path style="fill-rule:nonzero;fill:rgb(40.784314%,70.196078%,27.45098%);fill-opacity:1;stroke-width:3.5;stroke-linecap:butt;stroke-linejoin:miter;stroke:rgb(100%,100%,100%);stroke-opacity:1;stroke-miterlimit:4;" d="M 60.986464 95.979935 C 60.986464 108.706919 50.670493 119.02289 37.94845 119.02289 C 25.221466 119.02289 14.905495 108.706919 14.905495 95.979935 C 14.905495 83.252952 25.221466 72.936981 37.94845 72.936981 C 50.670493 72.936981 60.986464 83.252952 60.986464 95.979935 Z M 60.986464 95.979935 " transform="matrix(0.790643,0,0,0.790643,7.976794,-56.284298)"/>
</g>
</svg>
