<?xml version="1.0" encoding="UTF-8"?>
<svg xmlns="http://www.w3.org/2000/svg" xmlns:xlink="http://www.w3.org/1999/xlink" width="150px" height="150px" viewBox="0 0 150 150" version="1.1">
<g id="surface1">
<path style=" stroke:none;fill-rule:nonzero;fill:rgb(29.803922%,67.058824%,81.176471%);fill-opacity:1;" d="M 63.65625 31.832031 L 39.027344 19.40625 L 11.984375 32.894531 L 37.289062 45.597656 Z M 74.953125 37.535156 L 100.78125 50.578125 L 73.988281 64.027344 L 48.648438 51.308594 Z M 109.449219 19.585938 L 135.988281 32.894531 L 112.253906 44.808594 L 86.375 31.753906 Z M 98.03125 13.855469 L 74.140625 1.875 L 50.507812 13.671875 L 75.128906 26.082031 Z M 79.351562 116.722656 L 79.351562 149.320312 L 108.292969 134.878906 L 108.265625 102.269531 Z M 108.25 90.882812 L 108.21875 58.617188 L 79.351562 72.96875 L 79.351562 105.25 Z M 142.992188 84.839844 L 142.992188 117.566406 L 118.304688 129.882812 L 118.285156 97.304688 Z M 142.992188 73.398438 L 142.992188 41.328125 L 118.257812 53.621094 L 118.277344 85.953125 Z M 142.992188 73.398438 "/>
<path style=" stroke:none;fill-rule:nonzero;fill:rgb(29.803922%,45.882353%,81.176471%);fill-opacity:1;" d="M 69.136719 72.96875 L 49.648438 63.164062 L 49.648438 105.515625 C 49.648438 105.515625 25.804688 54.792969 23.601562 50.234375 C 23.316406 49.640625 22.144531 49 21.847656 48.839844 C 17.550781 46.597656 5.027344 40.257812 5.027344 40.257812 L 5.027344 115.105469 L 22.351562 124.394531 L 22.351562 85.253906 C 22.351562 85.253906 45.941406 130.578125 46.183594 131.078125 C 46.429688 131.570312 48.785156 136.339844 51.320312 138.019531 C 54.683594 140.253906 69.125 148.9375 69.125 148.9375 Z M 69.136719 72.96875 "/>
</g>
</svg>
