<?xml version="1.0" encoding="UTF-8"?>
<svg xmlns="http://www.w3.org/2000/svg" xmlns:xlink="http://www.w3.org/1999/xlink" width="150px" height="150px" viewBox="0 0 150 146" version="1.1">
<defs>
<radialGradient id="radial0" gradientUnits="userSpaceOnUse" cx="-183.69" cy="328.972" fx="-183.69" fy="328.972" r="0.76" gradientTransform="matrix(137.500067,0,0,132.870256,25308.923112,-43674.42487)">
<stop offset="0" style="stop-color:rgb(20.392157%,21.176471%,30.588235%);stop-opacity:0.980392;"/>
<stop offset="1" style="stop-color:rgb(4.705882%,3.137255%,14.117647%);stop-opacity:1;"/>
</radialGradient>
</defs>
<g id="surface1">
<path style=" stroke:none;fill-rule:nonzero;fill:url(#radial0);" d="M 6.25 6.253906 L 143.75 6.253906 L 143.75 139.746094 L 6.25 139.746094 Z M 6.25 6.253906 "/>
<path style=" stroke:none;fill-rule:nonzero;fill:rgb(19.215686%,77.254902%,94.117647%);fill-opacity:1;" d="M 6.25 6.253906 L 143.75 6.253906 L 143.75 139.746094 L 6.25 139.746094 Z M 0 145.984375 L 150 145.984375 L 150 0.015625 L 0 0.015625 Z M 101.125 59.898438 C 96.1875 59.898438 94.5 62.394531 94.5 64.453125 C 94.5 66.699219 95.625 68.257812 102.25 71.691406 C 112.0625 76.429688 115.125 80.984375 115.125 87.660156 C 115.125 97.640625 107.5 103.003906 97.1875 103.003906 C 91.75 103.003906 87.0625 101.882812 84.375 100.324219 C 83.9375 100.136719 83.875 99.824219 83.875 99.324219 L 83.875 90.15625 C 83.875 89.53125 84.1875 89.34375 84.625 89.65625 C 88.5625 92.214844 93.0625 93.335938 97.1875 93.335938 C 102.125 93.335938 104.1875 91.277344 104.1875 88.46875 C 104.1875 86.222656 102.75 84.226562 96.4375 80.984375 C 87.5625 76.742188 83.875 72.4375 83.875 65.265625 C 83.875 57.21875 90.1875 50.542969 101.125 50.542969 C 106.5 50.542969 110.25 51.355469 112.3125 52.289062 C 112.8125 52.601562 112.9375 53.101562 112.9375 53.535156 L 112.9375 62.082031 C 112.9375 62.582031 112.625 62.894531 112 62.707031 C 109.25 60.960938 105.1875 59.898438 101.125 59.898438 Z M 47.375 67.324219 C 48.8125 67.449219 49.9375 67.449219 52.4375 67.449219 C 59.75 67.449219 66.625 64.890625 66.625 54.972656 C 66.625 47.050781 61.6875 43.058594 53.375 43.058594 C 50.875 43.058594 48.5 43.183594 47.375 43.246094 Z M 36.25 34.199219 C 36.25 33.761719 37.125 33.449219 37.625 33.449219 C 41.625 33.261719 47.5625 33.136719 53.75 33.136719 C 71.0625 33.136719 77.8125 42.621094 77.8125 54.722656 C 77.8125 70.566406 66.3125 77.367188 52.1875 77.367188 C 49.8125 77.367188 49 77.242188 47.3125 77.242188 L 47.3125 101.195312 C 47.3125 101.695312 47.125 101.945312 46.5625 101.945312 L 37 101.945312 C 36.5 101.945312 36.25 101.757812 36.25 101.195312 Z M 36.25 34.199219 "/>
</g>
</svg>
