<?xml version="1.0" encoding="UTF-8"?>
<svg xmlns="http://www.w3.org/2000/svg" xmlns:xlink="http://www.w3.org/1999/xlink" width="150px" height="150px" viewBox="0 0 150 150" version="1.1">
<g id="surface1">
<path style=" stroke:none;fill-rule:nonzero;fill:rgb(6.666667%,61.568627%,100%);fill-opacity:1;" d="M 6.816406 0 L 143.183594 0 C 146.949219 0 150 3.050781 150 6.816406 L 150 143.183594 C 150 146.949219 146.949219 150 143.183594 150 L 6.816406 150 C 3.050781 150 0 146.949219 0 143.183594 L 0 6.816406 C 0 3.050781 3.050781 0 6.816406 0 Z M 6.816406 0 "/>
<path style=" stroke:none;fill-rule:nonzero;fill:rgb(14.509804%,99.607843%,99.215686%);fill-opacity:1;" d="M 95.453125 61.363281 C 95.453125 65.128906 92.402344 68.183594 88.636719 68.183594 C 84.871094 68.183594 81.816406 65.128906 81.816406 61.363281 C 81.816406 57.597656 84.871094 54.546875 88.636719 54.546875 C 92.402344 54.546875 95.453125 57.597656 95.453125 61.363281 Z M 95.453125 61.363281 "/>
<path style=" stroke:none;fill-rule:nonzero;fill:rgb(14.509804%,99.607843%,99.215686%);fill-opacity:1;" d="M 122.726562 34.089844 C 122.726562 37.855469 119.675781 40.910156 115.910156 40.910156 C 112.144531 40.910156 109.089844 37.855469 109.089844 34.089844 C 109.089844 30.324219 112.144531 27.273438 115.910156 27.273438 C 119.675781 27.273438 122.726562 30.324219 122.726562 34.089844 Z M 122.726562 34.089844 "/>
<path style=" stroke:none;fill-rule:nonzero;fill:rgb(14.509804%,99.607843%,99.215686%);fill-opacity:1;" d="M 95.453125 34.089844 C 95.453125 37.855469 92.402344 40.910156 88.636719 40.910156 C 84.871094 40.910156 81.816406 37.855469 81.816406 34.089844 C 81.816406 30.324219 84.871094 27.273438 88.636719 27.273438 C 92.402344 27.273438 95.453125 30.324219 95.453125 34.089844 Z M 95.453125 34.089844 "/>
<path style=" stroke:none;fill-rule:nonzero;fill:rgb(14.509804%,99.607843%,99.215686%);fill-opacity:1;" d="M 68.183594 34.089844 C 68.183594 37.855469 65.128906 40.910156 61.363281 40.910156 C 57.597656 40.910156 54.546875 37.855469 54.546875 34.089844 C 54.546875 30.324219 57.597656 27.273438 61.363281 27.273438 C 65.128906 27.273438 68.183594 30.324219 68.183594 34.089844 Z M 68.183594 34.089844 "/>
<path style=" stroke:none;fill-rule:nonzero;fill:rgb(14.509804%,99.607843%,99.215686%);fill-opacity:1;" d="M 40.910156 34.089844 C 40.910156 37.855469 37.855469 40.910156 34.089844 40.910156 C 30.324219 40.910156 27.273438 37.855469 27.273438 34.089844 C 27.273438 30.324219 30.324219 27.273438 34.089844 27.273438 C 37.855469 27.273438 40.910156 30.324219 40.910156 34.089844 Z M 40.910156 34.089844 "/>
<path style=" stroke:none;fill-rule:nonzero;fill:rgb(14.509804%,99.607843%,99.215686%);fill-opacity:1;" d="M 40.910156 61.363281 C 40.910156 65.128906 37.855469 68.183594 34.089844 68.183594 C 30.324219 68.183594 27.273438 65.128906 27.273438 61.363281 C 27.273438 57.597656 30.324219 54.546875 34.089844 54.546875 C 37.855469 54.546875 40.910156 57.597656 40.910156 61.363281 Z M 40.910156 61.363281 "/>
<path style=" stroke:none;fill-rule:nonzero;fill:rgb(100%,100%,100%);fill-opacity:1;" d="M 34.089844 81.816406 C 30.324219 81.816406 27.273438 84.871094 27.273438 88.636719 L 27.273438 115.910156 C 27.273438 119.675781 30.324219 122.726562 34.089844 122.726562 C 37.855469 122.726562 40.910156 119.675781 40.910156 115.910156 L 40.910156 88.636719 C 40.910156 84.871094 37.855469 81.816406 34.089844 81.816406 Z M 34.089844 81.816406 "/>
<path style=" stroke:none;fill-rule:nonzero;fill:rgb(100%,100%,100%);fill-opacity:1;" d="M 88.636719 81.816406 C 84.871094 81.816406 81.816406 84.871094 81.816406 88.636719 L 81.816406 115.910156 C 81.816406 119.675781 84.871094 122.726562 88.636719 122.726562 C 92.402344 122.726562 95.453125 119.675781 95.453125 115.910156 L 95.453125 88.636719 C 95.453125 84.871094 92.402344 81.816406 88.636719 81.816406 Z M 88.636719 81.816406 "/>
<path style=" stroke:none;fill-rule:nonzero;fill:rgb(100%,100%,100%);fill-opacity:1;" d="M 61.363281 54.546875 C 57.597656 54.546875 54.546875 57.597656 54.546875 61.363281 L 54.546875 115.910156 C 54.546875 119.675781 57.597656 122.726562 61.363281 122.726562 C 65.128906 122.726562 68.183594 119.675781 68.183594 115.910156 L 68.183594 61.363281 C 68.183594 57.597656 65.128906 54.546875 61.363281 54.546875 Z M 61.363281 54.546875 "/>
<path style=" stroke:none;fill-rule:nonzero;fill:rgb(100%,100%,100%);fill-opacity:1;" d="M 115.910156 54.546875 C 112.144531 54.546875 109.089844 57.597656 109.089844 61.363281 L 109.089844 115.910156 C 109.089844 119.675781 112.144531 122.726562 115.910156 122.726562 C 119.675781 122.726562 122.726562 119.675781 122.726562 115.910156 L 122.726562 61.363281 C 122.726562 57.597656 119.675781 54.546875 115.910156 54.546875 Z M 115.910156 54.546875 "/>
</g>
</svg>
