<?xml version="1.0" encoding="UTF-8"?>
<svg xmlns="http://www.w3.org/2000/svg" xmlns:xlink="http://www.w3.org/1999/xlink" width="150px" height="150px" viewBox="0 0 150 150" version="1.1">
<g id="surface1">
<path style=" stroke:none;fill-rule:nonzero;fill:rgb(0%,0%,0%);fill-opacity:1;" d="M 130.960938 48.210938 L 133.675781 48.210938 C 134.335938 48.210938 134.882812 48.757812 134.882812 49.445312 L 134.882812 72.730469 C 134.867188 73.390625 134.335938 73.925781 133.675781 73.9375 L 130.960938 73.9375 C 130.292969 73.9375 129.746094 73.402344 129.730469 72.730469 L 129.730469 49.445312 C 129.730469 48.757812 130.273438 48.210938 130.960938 48.210938 Z M 138.542969 54.992188 L 141.261719 54.992188 C 141.917969 54.992188 142.460938 55.539062 142.460938 56.21875 L 142.460938 71.976562 C 142.449219 72.632812 141.921875 73.164062 141.261719 73.179688 L 138.542969 73.179688 C 137.875 73.179688 137.324219 72.644531 137.3125 71.976562 L 137.3125 56.226562 C 137.3125 55.511719 137.855469 54.992188 138.542969 54.992188 Z M 146.082031 63.636719 L 148.769531 63.636719 C 149.457031 63.636719 150 64.179688 150 64.867188 L 150 69.355469 C 149.984375 70.023438 149.4375 70.554688 148.769531 70.554688 L 146.082031 70.554688 C 145.402344 70.554688 144.851562 70.007812 144.851562 69.332031 L 144.851562 64.84375 C 144.847656 64.519531 144.980469 64.210938 145.210938 63.984375 C 145.445312 63.761719 145.757812 63.640625 146.082031 63.65625 Z M 123.398438 45.96875 L 126.09375 45.96875 C 126.769531 45.96875 127.320312 46.515625 127.324219 47.195312 L 127.324219 51.6875 C 127.296875 52.347656 126.753906 52.871094 126.09375 52.867188 L 123.375 52.867188 C 122.714844 52.867188 122.171875 52.339844 122.148438 51.679688 L 122.148438 47.195312 C 122.152344 46.519531 122.699219 45.972656 123.375 45.96875 Z M 123.398438 54.992188 L 126.09375 54.992188 C 126.769531 54.992188 127.320312 55.542969 127.324219 56.21875 L 127.324219 60.332031 C 127.3125 61 126.765625 61.539062 126.09375 61.539062 L 123.375 61.539062 C 122.707031 61.535156 122.164062 61 122.148438 60.332031 L 122.148438 56.21875 C 122.152344 55.542969 122.699219 54.996094 123.375 54.992188 Z M 123.398438 63.664062 L 126.09375 63.664062 C 126.765625 63.664062 127.3125 64.199219 127.324219 64.867188 L 127.324219 71.617188 C 127.3125 72.289062 126.765625 72.824219 126.09375 72.824219 L 123.375 72.824219 C 122.710938 72.820312 122.167969 72.289062 122.148438 71.625 L 122.148438 64.867188 C 122.164062 64.199219 122.707031 63.664062 123.375 63.664062 Z M 115.648438 44.082031 L 118.367188 44.082031 C 119.035156 44.09375 119.570312 44.636719 119.574219 45.304688 L 119.574219 52.417969 C 119.570312 53.085938 119.035156 53.628906 118.367188 53.644531 L 115.65625 53.644531 C 114.980469 53.644531 114.429688 53.097656 114.425781 52.417969 L 114.425781 45.304688 C 114.429688 44.628906 114.980469 44.082031 115.65625 44.082031 Z M 115.648438 56.125 L 118.367188 56.125 C 119.039062 56.136719 119.574219 56.6875 119.574219 57.355469 L 119.574219 70.867188 C 119.558594 71.527344 119.027344 72.054688 118.367188 72.070312 L 115.65625 72.070312 C 114.988281 72.070312 114.441406 71.535156 114.425781 70.867188 L 114.425781 57.355469 C 114.425781 56.675781 114.976562 56.125 115.65625 56.125 Z M 108.125 41.835938 L 110.84375 41.835938 C 111.507812 41.839844 112.050781 42.371094 112.070312 43.039062 L 112.070312 71.625 C 112.050781 72.289062 111.507812 72.820312 110.84375 72.824219 L 108.125 72.824219 C 107.457031 72.824219 106.910156 72.292969 106.894531 71.625 L 106.894531 43.039062 C 106.910156 42.371094 107.457031 41.835938 108.125 41.835938 Z M 108.125 105.425781 L 110.84375 105.425781 C 111.519531 105.429688 112.070312 105.980469 112.070312 106.65625 L 112.070312 111.144531 C 112.050781 111.808594 111.507812 112.339844 110.84375 112.34375 L 108.125 112.34375 C 107.449219 112.34375 106.898438 111.796875 106.894531 111.117188 L 106.894531 106.632812 C 106.917969 105.96875 107.460938 105.441406 108.125 105.445312 Z M 100.375 99.398438 L 103.09375 99.398438 C 103.769531 99.402344 104.320312 99.953125 104.320312 100.632812 L 104.320312 111.117188 C 104.316406 111.792969 103.769531 112.339844 103.09375 112.34375 L 100.398438 112.34375 C 99.730469 112.332031 99.195312 111.785156 99.195312 111.117188 L 99.195312 100.625 C 99.195312 99.953125 99.730469 99.40625 100.398438 99.394531 Z M 100.375 67.417969 L 103.09375 67.417969 C 103.769531 67.421875 104.316406 67.96875 104.320312 68.644531 L 104.320312 75.730469 C 104.324219 76.058594 104.195312 76.378906 103.96875 76.613281 C 103.738281 76.847656 103.421875 76.980469 103.09375 76.980469 L 100.398438 76.980469 C 99.730469 76.96875 99.195312 76.425781 99.195312 75.757812 L 99.195312 68.644531 C 99.195312 67.976562 99.730469 67.433594 100.398438 67.417969 Z M 100.375 39.945312 L 103.09375 39.945312 C 103.769531 39.945312 104.320312 40.496094 104.320312 41.175781 L 104.320312 63.707031 C 104.320312 64.382812 103.769531 64.933594 103.09375 64.9375 L 100.398438 64.9375 C 99.730469 64.925781 99.195312 64.375 99.195312 63.707031 L 99.195312 41.175781 C 99.195312 40.503906 99.730469 39.957031 100.398438 39.945312 Z M 92.75 40.320312 L 95.460938 40.320312 C 96.140625 40.320312 96.695312 40.871094 96.695312 41.550781 L 96.695312 54.6875 C 96.675781 55.355469 96.128906 55.886719 95.460938 55.886719 L 92.742188 55.886719 C 92.089844 55.871094 91.558594 55.34375 91.542969 54.6875 L 91.542969 41.550781 C 91.546875 40.882812 92.078125 40.34375 92.742188 40.324219 Z M 92.75 58.394531 L 95.460938 58.394531 C 96.132812 58.394531 96.679688 58.929688 96.695312 59.601562 L 96.695312 97.960938 C 96.691406 98.640625 96.140625 99.1875 95.460938 99.1875 L 92.742188 99.1875 C 92.078125 99.171875 91.546875 98.628906 91.542969 97.960938 L 91.542969 59.601562 C 91.558594 58.941406 92.085938 58.410156 92.742188 58.394531 Z M 92.75 101.667969 L 95.460938 101.667969 C 96.132812 101.667969 96.679688 102.203125 96.695312 102.875 L 96.695312 110 C 96.679688 110.671875 96.132812 111.207031 95.460938 111.207031 L 92.742188 111.207031 C 92.085938 111.191406 91.558594 110.660156 91.542969 110 L 91.542969 102.875 C 91.558594 102.214844 92.085938 101.683594 92.742188 101.667969 Z M 85.1875 41.429688 L 87.875 41.429688 C 88.203125 41.429688 88.519531 41.5625 88.753906 41.796875 C 88.984375 42.035156 89.109375 42.351562 89.105469 42.679688 L 89.105469 73.460938 C 89.105469 74.140625 88.558594 74.691406 87.882812 74.695312 L 85.164062 74.695312 C 84.492188 74.679688 83.957031 74.132812 83.957031 73.460938 L 83.957031 42.6875 C 83.957031 42.015625 84.492188 41.46875 85.164062 41.457031 Z M 85.1875 77.195312 L 87.875 77.195312 C 88.554688 77.195312 89.105469 77.746094 89.105469 78.425781 L 89.105469 102.851562 C 89.105469 103.527344 88.558594 104.078125 87.882812 104.082031 L 85.164062 104.082031 C 84.492188 104.066406 83.957031 103.519531 83.957031 102.851562 L 83.957031 78.425781 C 83.957031 77.753906 84.492188 77.207031 85.164062 77.195312 Z M 77.582031 40.320312 L 80.300781 40.320312 C 80.96875 40.335938 81.5 40.882812 81.5 41.550781 L 81.5 61.417969 C 81.496094 62.085938 80.964844 62.625 80.300781 62.644531 L 77.582031 62.644531 C 76.902344 62.644531 76.351562 62.097656 76.351562 61.417969 L 76.351562 41.574219 C 76.351562 40.894531 76.902344 40.34375 77.582031 40.34375 Z M 77.582031 65.175781 L 80.300781 65.175781 C 80.957031 65.191406 81.484375 65.71875 81.5 66.375 L 81.5 82.914062 C 81.488281 83.570312 80.957031 84.101562 80.300781 84.117188 L 77.582031 84.117188 C 76.910156 84.117188 76.363281 83.582031 76.351562 82.914062 L 76.351562 66.375 C 76.367188 65.707031 76.914062 65.175781 77.582031 65.175781 Z M 77.582031 86.601562 L 80.300781 86.601562 C 80.964844 86.617188 81.496094 87.160156 81.5 87.824219 L 81.5 95.3125 C 81.5 95.980469 80.96875 96.527344 80.300781 96.542969 L 77.582031 96.542969 C 76.902344 96.542969 76.351562 95.992188 76.351562 95.3125 L 76.351562 87.824219 C 76.351562 87.148438 76.902344 86.601562 77.582031 86.601562 Z M 69.957031 39.585938 L 72.667969 39.585938 C 73.328125 39.589844 73.871094 40.113281 73.894531 40.773438 L 73.894531 49.792969 C 73.878906 50.460938 73.335938 50.996094 72.667969 51 L 69.925781 51 C 69.257812 50.996094 68.714844 50.460938 68.699219 49.792969 L 68.699219 40.792969 C 68.703125 40.117188 69.25 39.570312 69.925781 39.570312 Z M 69.957031 53.507812 L 72.667969 53.507812 C 73.335938 53.507812 73.875 54.039062 73.894531 54.707031 L 73.894531 89.292969 C 73.890625 89.96875 73.34375 90.515625 72.667969 90.519531 L 69.925781 90.519531 C 69.25 90.515625 68.703125 89.96875 68.699219 89.292969 L 68.699219 54.707031 C 68.71875 54.039062 69.257812 53.507812 69.925781 53.507812 Z M 62.300781 104.644531 L 65.011719 104.644531 C 65.691406 104.644531 66.242188 105.195312 66.242188 105.875 L 66.242188 111.09375 C 66.242188 111.773438 65.691406 112.324219 65.011719 112.324219 L 62.300781 112.324219 C 61.628906 112.3125 61.09375 111.765625 61.09375 111.09375 L 61.09375 105.875 C 61.09375 105.203125 61.628906 104.65625 62.300781 104.644531 Z M 62.300781 38.03125 L 65.011719 38.03125 C 65.691406 38.03125 66.242188 38.582031 66.242188 39.261719 L 66.242188 71.21875 C 66.230469 71.890625 65.683594 72.425781 65.011719 72.425781 L 62.300781 72.425781 C 61.640625 72.410156 61.105469 71.878906 61.09375 71.21875 L 61.09375 39.28125 C 61.097656 38.613281 61.632812 38.070312 62.300781 38.054688 Z M 62.300781 74.929688 L 65.011719 74.929688 C 65.679688 74.929688 66.226562 75.464844 66.242188 76.132812 L 66.242188 89.269531 C 66.242188 89.945312 65.691406 90.492188 65.011719 90.492188 L 62.300781 90.492188 C 61.632812 90.480469 61.097656 89.9375 61.09375 89.269531 L 61.09375 76.125 C 61.109375 75.46875 61.640625 74.9375 62.300781 74.925781 Z M 54.667969 99.023438 L 57.382812 99.023438 C 58.03125 99.039062 58.5625 99.554688 58.585938 100.207031 L 58.585938 111.09375 C 58.585938 111.765625 58.050781 112.3125 57.382812 112.324219 L 54.667969 112.324219 C 53.988281 112.324219 53.4375 111.773438 53.4375 111.09375 L 53.4375 100.230469 C 53.4375 99.550781 53.988281 99 54.667969 99 Z M 54.667969 61.367188 L 57.382812 61.367188 C 58.050781 61.382812 58.585938 61.929688 58.585938 62.601562 L 58.585938 89.289062 C 58.574219 89.949219 58.042969 90.480469 57.382812 90.492188 L 54.667969 90.492188 C 53.992188 90.492188 53.441406 89.945312 53.4375 89.269531 L 53.4375 62.601562 C 53.460938 61.9375 54.003906 61.410156 54.667969 61.414062 Z M 54.667969 37.65625 L 57.382812 37.65625 C 58.050781 37.667969 58.585938 38.214844 58.585938 38.882812 L 58.585938 57.664062 C 58.585938 58.332031 58.050781 58.875 57.382812 58.886719 L 54.667969 58.886719 C 53.992188 58.886719 53.441406 58.339844 53.4375 57.664062 L 53.4375 38.875 C 53.441406 38.199219 53.992188 37.648438 54.667969 37.648438 Z M 47.039062 38.03125 L 49.757812 38.03125 C 50.433594 38.035156 50.980469 38.585938 50.980469 39.261719 L 50.980469 43.75 C 50.964844 44.414062 50.421875 44.945312 49.757812 44.949219 L 47.039062 44.949219 C 46.375 44.941406 45.839844 44.410156 45.824219 43.75 L 45.824219 39.261719 C 45.824219 38.59375 46.359375 38.042969 47.03125 38.03125 Z M 47.039062 47.082031 L 49.757812 47.082031 C 50.421875 47.085938 50.964844 47.617188 50.980469 48.28125 L 50.980469 82.914062 C 50.96875 83.582031 50.425781 84.117188 49.757812 84.117188 L 47.039062 84.117188 C 46.375 84.105469 45.84375 83.574219 45.832031 82.914062 L 45.832031 48.3125 C 45.84375 47.652344 46.375 47.121094 47.039062 47.105469 Z M 47.039062 86.601562 L 49.757812 86.601562 C 50.425781 86.601562 50.96875 87.136719 50.980469 87.804688 L 50.980469 97.179688 C 50.980469 97.859375 50.433594 98.410156 49.757812 98.414062 L 47.039062 98.414062 C 46.367188 98.398438 45.832031 97.851562 45.832031 97.179688 L 45.832031 87.804688 C 45.84375 87.144531 46.375 86.613281 47.039062 86.601562 Z M 47.039062 100.886719 L 49.757812 100.886719 C 50.433594 100.890625 50.980469 101.441406 50.980469 102.117188 L 50.980469 108.09375 C 50.980469 108.769531 50.433594 109.320312 49.757812 109.324219 L 47.039062 109.324219 C 46.367188 109.3125 45.832031 108.765625 45.832031 108.09375 L 45.832031 102.117188 C 45.832031 101.449219 46.367188 100.902344 47.039062 100.886719 Z M 39.40625 41.0625 L 42.117188 41.0625 C 42.785156 41.074219 43.320312 41.621094 43.324219 42.289062 L 43.324219 64.824219 C 43.3125 65.484375 42.78125 66.019531 42.117188 66.03125 L 39.398438 66.03125 C 38.730469 66.027344 38.1875 65.492188 38.175781 64.824219 L 38.175781 42.28125 C 38.179688 41.605469 38.726562 41.058594 39.398438 41.054688 Z M 39.40625 68.53125 L 42.117188 68.53125 C 42.78125 68.542969 43.3125 69.078125 43.324219 69.738281 L 43.324219 74.988281 C 43.320312 75.65625 42.785156 76.199219 42.117188 76.210938 L 39.398438 76.210938 C 38.722656 76.210938 38.175781 75.660156 38.175781 74.980469 L 38.175781 69.738281 C 38.1875 69.070312 38.730469 68.535156 39.398438 68.53125 Z M 39.40625 77.9375 L 42.09375 77.9375 C 42.769531 77.9375 43.320312 78.484375 43.324219 79.164062 L 43.324219 102.457031 C 43.320312 103.132812 42.769531 103.679688 42.09375 103.679688 L 39.40625 103.679688 C 38.730469 103.679688 38.179688 103.132812 38.175781 102.457031 L 38.175781 79.164062 C 38.179688 78.488281 38.726562 77.941406 39.398438 77.9375 Z M 31.363281 59.855469 L 34.863281 59.855469 C 35.320312 59.871094 35.6875 60.246094 35.6875 60.707031 L 35.6875 77.976562 C 35.6875 78.433594 35.320312 78.8125 34.863281 78.824219 L 31.386719 78.824219 C 30.917969 78.824219 30.539062 78.445312 30.539062 77.976562 L 30.539062 60.730469 C 30.53125 60.5 30.617188 60.277344 30.777344 60.113281 C 30.9375 59.949219 31.15625 59.855469 31.386719 59.855469 Z M 31.363281 81.304688 L 34.863281 81.304688 C 35.320312 81.320312 35.6875 81.695312 35.6875 82.15625 L 35.6875 97.675781 C 35.6875 98.136719 35.320312 98.511719 34.863281 98.523438 L 31.386719 98.523438 C 30.917969 98.523438 30.539062 98.144531 30.539062 97.675781 L 30.539062 82.207031 C 30.539062 81.738281 30.917969 81.355469 31.386719 81.355469 Z M 31.363281 44.054688 L 34.863281 44.054688 C 35.320312 44.070312 35.6875 44.445312 35.6875 44.90625 L 35.6875 56.90625 C 35.6875 57.367188 35.320312 57.742188 34.863281 57.757812 L 31.386719 57.757812 C 30.917969 57.757812 30.539062 57.375 30.539062 56.90625 L 30.539062 44.90625 C 30.539062 44.4375 30.917969 44.054688 31.386719 44.054688 Z M 23.757812 47.789062 L 27.207031 47.789062 C 27.667969 47.789062 28.042969 48.152344 28.054688 48.613281 L 28.054688 66.636719 C 28.042969 67.097656 27.667969 67.460938 27.207031 67.460938 L 23.757812 67.460938 C 23.296875 67.460938 22.917969 67.097656 22.90625 66.636719 L 22.90625 48.613281 C 22.917969 48.152344 23.296875 47.789062 23.757812 47.789062 Z M 23.757812 69.664062 L 27.207031 69.664062 C 27.675781 69.664062 28.054688 70.042969 28.054688 70.511719 L 28.054688 94.914062 C 28.054688 95.382812 27.675781 95.761719 27.207031 95.761719 L 23.730469 95.761719 C 23.273438 95.75 22.90625 95.371094 22.90625 94.914062 L 22.90625 70.539062 C 22.90625 70.078125 23.273438 69.699219 23.730469 69.6875 Z M 16.457031 105.425781 L 19.175781 105.425781 C 19.855469 105.425781 20.40625 105.976562 20.40625 106.65625 L 20.40625 111.144531 C 20.390625 111.8125 19.84375 112.34375 19.175781 112.34375 L 16.488281 112.34375 C 15.816406 112.332031 15.277344 111.789062 15.273438 111.117188 L 15.273438 106.632812 C 15.296875 105.976562 15.828125 105.457031 16.480469 105.445312 Z M 16.082031 89.414062 L 19.601562 89.414062 C 20.070312 89.414062 20.449219 89.792969 20.449219 90.261719 L 20.449219 98.148438 C 20.449219 98.621094 20.070312 99 19.601562 99 L 16.101562 99 C 15.640625 98.988281 15.273438 98.609375 15.273438 98.148438 L 15.273438 90.261719 C 15.273438 89.800781 15.644531 89.421875 16.105469 89.414062 Z M 16.082031 59.882812 L 19.601562 59.882812 C 20.058594 59.882812 20.4375 60.246094 20.449219 60.707031 L 20.449219 86.175781 C 20.449219 86.644531 20.070312 87.023438 19.601562 87.023438 L 16.101562 87.023438 C 15.640625 87.011719 15.273438 86.636719 15.273438 86.175781 L 15.273438 60.707031 C 15.289062 60.253906 15.652344 59.890625 16.105469 59.882812 Z M 8.5 97.070312 L 11.96875 97.070312 C 12.4375 97.070312 12.816406 97.445312 12.820312 97.914062 L 12.820312 111.492188 C 12.820312 111.964844 12.4375 112.34375 11.96875 112.34375 L 8.46875 112.34375 C 8 112.339844 7.625 111.960938 7.625 111.492188 L 7.625 97.914062 C 7.625 97.441406 8.003906 97.0625 8.476562 97.0625 Z M 8.875 76.914062 L 11.570312 76.914062 C 12.238281 76.914062 12.785156 77.449219 12.800781 78.117188 L 12.800781 93.78125 C 12.796875 94.457031 12.246094 95.007812 11.570312 95.007812 L 8.851562 95.007812 C 8.175781 95.003906 7.628906 94.457031 7.625 93.78125 L 7.625 78.117188 C 7.636719 77.449219 8.183594 76.914062 8.851562 76.914062 Z M 0.875 93.757812 L 4.324219 93.757812 C 4.792969 93.757812 5.175781 94.132812 5.175781 94.605469 L 5.175781 107.429688 C 5.175781 107.90625 4.800781 108.28125 4.324219 108.28125 L 0.851562 108.28125 C 0.382812 108.28125 0.00390625 107.90625 0 107.4375 L 0 94.613281 C 0 94.136719 0.375 93.761719 0.851562 93.761719 Z M 0.875 93.757812 "/>
</g>
</svg>
