<?xml version="1.0" encoding="UTF-8"?>
<svg xmlns="http://www.w3.org/2000/svg" xmlns:xlink="http://www.w3.org/1999/xlink" width="150px" height="150px" viewBox="0 0 150 150" version="1.1">
<g id="surface1">
<path style=" stroke:none;fill-rule:nonzero;fill:rgb(0%,0%,0%);fill-opacity:1;" d="M 109.933594 107.945312 C 110.851562 100.289062 110.578125 99.164062 116.28125 100.40625 L 117.726562 100.53125 C 122.113281 100.730469 127.847656 99.824219 131.21875 98.261719 C 138.472656 94.894531 142.773438 89.273438 135.621094 90.75 C 119.304688 94.117188 118.183594 88.589844 118.183594 88.589844 C 135.414062 63.027344 142.617188 30.574219 136.398438 22.628906 C 119.441406 0.964844 90.089844 11.207031 89.597656 11.472656 L 89.441406 11.503906 C 86.21875 10.832031 82.609375 10.433594 78.554688 10.367188 C 71.171875 10.246094 65.570312 12.304688 61.316406 15.527344 C 61.316406 15.527344 8.957031 -6.046875 11.390625 42.65625 C 11.910156 53.019531 26.242188 121.054688 43.335938 100.503906 C 49.585938 92.988281 55.621094 86.636719 55.621094 86.636719 C 58.621094 88.625 62.210938 89.644531 65.976562 89.277344 L 66.265625 89.03125 C 66.175781 89.960938 66.214844 90.875 66.382812 91.957031 C 61.980469 96.875 63.273438 97.738281 54.46875 99.550781 C 45.5625 101.386719 50.792969 104.65625 54.210938 105.507812 C 58.351562 106.546875 67.9375 108.011719 74.410156 98.949219 L 74.152344 99.984375 C 75.882812 101.367188 75.765625 109.917969 76.007812 116.027344 C 76.253906 122.136719 76.664062 127.835938 77.910156 131.199219 C 79.15625 134.558594 80.625 143.21875 92.195312 140.738281 C 101.867188 138.671875 109.257812 135.6875 109.933594 107.945312 "/>
<path style=" stroke:none;fill-rule:nonzero;fill:rgb(0%,0%,0%);fill-opacity:1;" d="M 88.425781 146.785156 C 83.308594 146.785156 79.976562 144.804688 77.953125 142.894531 C 74.898438 140.011719 73.6875 136.296875 72.960938 134.078125 L 72.648438 133.152344 C 71.191406 129.21875 70.695312 123.550781 70.402344 116.257812 C 70.359375 115.160156 70.328125 114.03125 70.292969 112.835938 C 70.269531 111.960938 70.238281 110.863281 70.195312 109.714844 C 39.898438 109.207031 15.75 84.234375 16.257812 53.9375 C 16.765625 23.640625 41.734375 -0.507812 72.03125 0 C 68.425781 0.617188 64.546875 0.417969 60.5 -0.59375 C 57.648438 -1.308594 54.683594 -2.785156 52.992188 -5.070312 C 48.066406 -0.757812 43.371094 -1.34375 40.808594 -2.195312 C 36.296875 -3.703125 32.253906 -7.933594 28.457031 -15.128906 C 25.75 -20.257812 23.132812 -26.9375 20.675781 -34.984375 C 16.398438 -49 13.683594 -63.761719 13.441406 -68.609375 C 5.03125 27.769531 9.113281 16.921875 17.925781 10.699219 C 31.824219 0.878906 52.882812 6.652344 60.5625 9.273438 C 65.722656 6.167969 71.789062 4.652344 78.648438 4.761719 C 82.332031 4.820312 85.839844 5.144531 89.097656 5.726562 C 92.496094 4.660156 99.207031 3.125 106.890625 3.21875 C 121.046875 3.390625 132.78125 8.90625 140.816406 19.175781 C 146.550781 26.5 143.714844 41.886719 141.515625 50.40625 C 138.417969 62.390625 132.996094 75.136719 126.332031 86.230469 C 128.140625 86.242188 130.761719 86.027344 134.488281 85.257812 C 141.839844 83.738281 143.992188 87.683594 144.574219 89.445312 C 146.914062 96.527344 136.75 101.878906 133.582031 103.351562 C 129.519531 105.234375 122.898438 106.382812 117.472656 106.136719 L 117.238281 106.121094 L 115.8125 105.996094 L 115.671875 107.183594 L 115.535156 108.34375 C 115.171875 122.40625 113.160156 131.3125 109.027344 137.195312 C 104.695312 143.363281 98.675781 145.09375 93.371094 146.230469 C 91.5625 146.617188 89.917969 146.785156 88.425781 146.785156 Z M 77.65625 95.609375 C 80.960938 98.25 81.25 103.226562 81.511719 112.523438 C 81.542969 113.683594 81.574219 114.78125 81.613281 115.804688 C 81.738281 118.910156 82.03125 126.183594 83.167969 129.253906 C 83.328125 129.691406 83.472656 130.132812 83.625 130.597656 C 84.894531 134.484375 85.53125 136.433594 91.019531 135.261719 C 95.625 134.273438 97.996094 133.386719 99.847656 130.746094 C 102.542969 126.910156 104.050781 119.191406 104.328125 107.808594 L 109.929688 107.945312 L 104.363281 107.277344 L 104.527344 105.886719 C 105.0625 101.304688 105.445312 97.996094 108.507812 95.804688 C 110.964844 94.050781 113.765625 94.21875 115.996094 94.621094 C 113.546875 92.769531 112.867188 90.597656 112.6875 89.707031 L 112.21875 87.40625 L 113.535156 85.457031 C 121.101562 74.230469 127.339844 60.433594 130.652344 47.601562 C 134.058594 34.414062 133.019531 27.414062 131.984375 26.089844 C 118.238281 8.527344 94.402344 15.777344 91.914062 16.601562 L 91.492188 16.828125 L 89.382812 17.21875 L 88.304688 16.996094 C 85.324219 16.378906 82.015625 16.035156 78.46875 15.976562 C 72.894531 15.882812 68.398438 17.203125 64.710938 20 L 62.152344 21.9375 L 59.183594 20.714844 C 52.84375 18.121094 34.214844 12.910156 24.382812 19.871094 C 18.929688 23.734375 16.441406 31.308594 16.996094 42.378906 C 17.179688 46.035156 19.660156 59.871094 23.757812 73.289062 C 29.421875 91.835938 34.566406 97.996094 36.710938 98.710938 C 37.085938 98.839844 38.058594 98.082031 39.027344 96.921875 C -68.929688 220.671875 -253.484375 241.578125 -386.386719 145.105469 C -519.285156 48.636719 -556.59375 -133.3125 -472.378906 -274.300781 C -388.164062 -415.289062 -210.273438 -468.699219 -62.328125 -397.414062 C 85.617188 -326.132812 154.703125 -153.722656 96.917969 0 L 100.164062 -3.414062 L 104.089844 -0.808594 C 105.671875 0.242188 107.417969 0.839844 109.210938 0.953125 L 118.570312 -7.03125 L 117.214844 6.804688 C 117.183594 7.117188 117.167969 7.539062 117.289062 8.324219 L 117.695312 10.949219 L 115.925781 12.925781 L 115.722656 13.15625 L 120.867188 15.527344 L 123.015625 12.832031 Z M 77.65625 95.609375 "/>
<path style=" stroke:none;fill-rule:nonzero;fill:rgb(20%,40.392157%,56.862745%);fill-opacity:1;" d="M 135.621094 90.75 C 119.304688 94.117188 118.183594 88.589844 118.183594 88.589844 C 135.414062 63.027344 142.613281 30.570312 136.398438 22.628906 C 119.441406 0.964844 90.085938 11.210938 89.597656 11.476562 L 89.441406 11.503906 C 86.214844 10.835938 82.609375 10.4375 78.550781 10.371094 C 71.167969 10.25 65.566406 12.308594 61.316406 15.53125 C 61.316406 15.53125 8.953125 -6.042969 11.386719 42.660156 C 11.90625 53.023438 26.238281 121.058594 43.332031 100.507812 C 49.582031 92.992188 55.617188 86.640625 55.617188 86.640625 C 58.617188 88.628906 62.207031 89.648438 65.96875 89.28125 L 66.261719 89.03125 C 66.171875 89.964844 66.214844 90.878906 66.378906 91.960938 C 61.976562 96.878906 63.269531 97.742188 54.464844 99.554688 C 45.554688 101.390625 50.789062 104.660156 54.207031 105.511719 C 58.347656 106.550781 67.933594 108.015625 74.40625 98.953125 L 74.148438 99.988281 C 75.875 101.371094 77.085938 108.976562 76.882812 115.875 C 76.679688 122.769531 76.542969 127.507812 77.902344 131.203125 C 79.261719 134.902344 80.617188 143.222656 92.191406 140.742188 C 101.863281 138.671875 106.871094 133.300781 107.570312 124.34375 C 108.066406 117.972656 109.183594 118.917969 109.257812 113.222656 L 110.15625 110.527344 C 111.191406 101.894531 110.320312 99.109375 116.277344 100.402344 L 117.726562 100.53125 C 122.109375 100.730469 127.847656 99.824219 131.21875 98.257812 C 138.472656 94.894531 142.773438 89.273438 135.621094 90.75 Z M 135.621094 90.75 "/>
<path style=" stroke:none;fill-rule:nonzero;fill:rgb(100%,100%,100%);fill-opacity:1;" d="M 89.011719 143.328125 C 79.367188 143.328125 76.308594 135.6875 75.058594 132.566406 C 73.226562 127.984375 72.832031 110.21875 73.242188 95.648438 C 73.242188 94.621094 74.078125 93.789062 75.105469 93.789062 C 76.132812 93.789062 76.964844 94.621094 76.96875 95.652344 C 76.96875 96.679688 76.136719 97.511719 75.109375 97.515625 C 74.640625 114.320312 75.304688 129.550781 76.660156 132.941406 C 78.773438 138.222656 81.980469 142.84375 91.046875 140.902344 C 99.652344 139.058594 102.875 135.796875 104.308594 127.472656 C 105.410156 121.089844 107.589844 102.921875 107.855469 99.335938 C 107.859375 98.308594 108.695312 97.472656 109.726562 97.476562 C 110.753906 97.476562 111.589844 98.3125 111.589844 99.339844 C 111.589844 100.371094 110.757812 101.207031 109.730469 101.210938 C 109.449219 104.941406 107.28125 123.074219 106.136719 129.703125 C 104.441406 139.53125 100.0625 143.988281 89.972656 146.152344 C 88.257812 146.519531 86.699219 146.683594 85.285156 146.683594 Z M 36.703125 106.015625 C 35.835938 109.789062 32.347656 112.367188 28.488281 112.09375 C 24.625 111.820312 21.535156 108.773438 21.207031 104.917969 C 20.878906 101.058594 23.40625 97.535156 27.164062 96.613281 C 30.925781 95.6875 34.796875 97.636719 36.292969 101.207031 C 30.027344 99.117188 24.058594 88.914062 18.554688 70.875 C 14.363281 57.144531 11.707031 42.8125 11.476562 38.152344 C 10.785156 24.34375 14.339844 14.574219 22.046875 9.117188 C 37.289062 -1.683594 62.929688 8.601562 64.015625 9.042969 C 89.464844 8.089844 110.871094 27.945312 111.828125 53.394531 C 112.785156 78.847656 92.925781 100.253906 67.476562 101.207031 C 67.230469 101.109375 42.640625 91.257812 29.078125 100.875 C 22.488281 105.546875 19.464844 114.226562 20.085938 126.667969 C 20.28125 130.59375 22.761719 144.582031 27.007812 158.484375 C 31.921875 174.589844 37.515625 184.75 42.355469 186.363281 C 43.113281 186.617188 45.425781 187.386719 48.726562 183.414062 C -89.433594 221.640625 -234.640625 152.222656 -291.644531 20.691406 C -348.648438 -110.839844 -300.023438 -264.265625 -177.664062 -338.945312 C -55.300781 -413.628906 103.382812 -386.734375 194.300781 -275.902344 C 285.222656 -165.070312 280.574219 -4.191406 183.414062 101.210938 C 183.355469 101.265625 177.734375 107.148438 171.605469 114.519531 C 168.703125 118.011719 165.917969 119.035156 163.652344 119.035156 Z M 118.066406 90.257812 C 121.089844 91.0625 122.890625 94.167969 122.085938 97.191406 C 121.28125 100.214844 118.175781 102.015625 115.152344 101.207031 C 132.570312 75.363281 138.683594 44.132812 133.445312 37.441406 C 126.855469 29.019531 117.550781 24.625 105.785156 24.367188 C 97.074219 24.179688 90.152344 26.40625 89.019531 26.792969 L 88.734375 26.910156 C 87.597656 27.265625 86.726562 26.644531 86.394531 25.914062 C 107.1875 42.617188 110.503906 73.011719 93.800781 93.800781 C 77.101562 114.59375 46.707031 117.910156 25.914062 101.207031 C 25.96875 101.175781 26.140625 101.105469 26.417969 101.003906 L 26.394531 101.007812 L 26.417969 101 C 28.339844 100.296875 35.371094 98.1875 44.074219 98.289062 C 57.09375 98.425781 67.84375 103.445312 75.167969 112.804688 C 78.636719 117.234375 78.644531 127.4375 75.191406 140.796875 C 71.675781 154.421875 65.054688 169.0625 57.03125 180.964844 C 56.671875 181.503906 56.082031 181.789062 55.480469 181.789062 Z M 118.957031 102.222656 C 115.984375 102.222656 113.316406 101.804688 111.722656 100.847656 C 110.078125 99.863281 109.765625 98.527344 109.726562 97.820312 C 109.277344 89.957031 113.617188 88.585938 115.828125 87.964844 C 115.519531 87.496094 115.082031 86.949219 114.628906 86.382812 C 113.339844 84.769531 111.570312 82.5625 110.210938 79.257812 C 109.996094 78.742188 109.328125 77.546875 108.554688 76.15625 C 104.363281 68.636719 95.632812 52.984375 101.242188 44.96875 C 103.835938 41.261719 109 39.800781 116.613281 40.617188 C 114.375 33.792969 103.710938 12.453125 78.40625 12.035156 C 70.796875 11.910156 64.554688 14.25 59.867188 18.984375 C 49.367188 29.589844 49.746094 48.777344 49.75 48.96875 C 64.175781 48.941406 75.894531 60.613281 75.921875 75.039062 C 75.945312 89.464844 64.273438 101.183594 49.847656 101.207031 C 49.824219 100.355469 49.433594 80.222656 61.046875 68.496094 C 62.640625 10.867188 69.796875 8.15625 78.46875 8.296875 C 94.65625 8.5625 105.078125 16.792969 110.96875 23.652344 C 117.386719 31.125 120.535156 39.367188 120.792969 42.117188 C 120.988281 44.164062 119.519531 44.574219 119.222656 44.632812 L 118.546875 44.648438 C 111.078125 43.453125 106.285156 44.285156 104.304688 47.117188 C 100.039062 53.210938 108.292969 68.015625 111.820312 74.335938 C 112.71875 75.949219 113.367188 77.113281 113.664062 77.835938 C 114.824219 80.640625 116.335938 82.53125 117.546875 84.046875 C 118.613281 85.378906 119.539062 86.535156 119.871094 87.894531 C 120.023438 88.164062 122.203125 91.386719 135.128906 88.71875 C 138.367188 88.046875 140.3125 88.621094 140.90625 90.414062 C 142.074219 93.949219 135.519531 98.070312 131.890625 99.757812 C 128.636719 101.269531 123.449219 102.222656 118.957031 102.222656 Z M 113.453125 97.511719 C 113.863281 97.925781 115.917969 98.640625 120.164062 98.457031 C 123.945312 98.292969 127.929688 97.472656 130.320312 96.363281 C 133.375 94.941406 135.417969 93.355469 136.472656 92.269531 L 135.886719 92.378906 C 127.625 94.085938 121.777344 93.859375 118.511719 91.703125 C 120.601562 89.542969 123.816406 88.902344 126.574219 90.097656 C 129.332031 91.296875 131.0625 94.078125 130.914062 97.082031 C 130.765625 100.085938 128.769531 102.679688 125.90625 103.601562 C 123.042969 104.519531 119.910156 103.566406 118.042969 101.210938 C 117.6875 101.347656 117.359375 101.441406 117.128906 101.503906 C 115.277344 102.023438 113.363281 102.5625 113.617188 107.488281 Z M 60.0625 107.960938 C 58.007812 107.960938 55.847656 107.679688 53.640625 107.128906 C 51.355469 106.554688 47.5 104.832031 47.558594 102.007812 C 47.625 98.832031 52.238281 97.882812 53.976562 97.523438 C 60.25 96.230469 60.660156 95.714844 62.617188 93.222656 C 63.191406 92.5 63.902344 91.59375 64.871094 90.511719 C 66.3125 88.898438 67.886719 88.082031 69.550781 88.082031 C 70.710938 88.082031 71.660156 88.476562 72.289062 88.738281 C 74.289062 89.566406 75.960938 91.574219 76.648438 93.972656 C 77.265625 96.136719 76.96875 98.21875 75.816406 99.839844 C 72.019531 105.148438 66.574219 107.960938 60.0625 107.960938 Z M 51.597656 102.167969 C 52.160156 102.601562 53.289062 103.183594 54.546875 103.5 C 56.460938 103.976562 58.3125 104.21875 60.0625 104.21875 C 65.390625 104.21875 69.667969 102.015625 72.773438 97.664062 C 73.421875 96.757812 73.226562 95.605469 73.054688 95 C 72.691406 93.730469 71.789062 92.574219 70.859375 92.191406 C 70.355469 91.980469 69.9375 91.824219 69.550781 91.824219 C 69.34375 91.824219 68.71875 91.824219 67.660156 93.003906 C 68.746094 95.660156 69.59375 98.40625 70.195312 101.207031 C 67.75 104.308594 66.632812 105.363281 59.367188 106.859375 C 57.59375 107.222656 56.683594 107.59375 56.234375 107.835938 Z M 65.976562 93.542969 C 68.636719 93.980469 70.433594 96.492188 69.996094 99.148438 C 69.558594 101.808594 67.046875 103.609375 64.390625 103.171875 C 59.625 103.082031 55.03125 101.039062 51.542969 97.398438 C 47.132812 92.796875 45.125 86.421875 46.035156 79.90625 C 47.027344 72.832031 46.65625 66.585938 46.457031 63.230469 C 46.402344 62.300781 46.363281 61.625 46.363281 61.160156 C 46.367188 60.566406 46.378906 59 51.625 56.339844 C 53.488281 55.394531 57.230469 53.742188 61.316406 53.320312 C 68.085938 52.621094 72.550781 55.636719 73.886719 61.8125 C 77.492188 78.484375 74.171875 85.859375 71.746094 91.246094 C 71.296875 92.25 70.867188 93.195312 70.527344 94.113281 L 70.226562 94.921875 C 68.945312 98.355469 67.839844 101.324219 68.179688 103.539062 C 67.445312 103.1875 67.023438 102.402344 67.132812 101.597656 C 67.246094 100.792969 67.867188 100.148438 68.667969 100.011719 C 69.46875 99.875 70.269531 100.269531 70.644531 100.992188 C 71.019531 101.714844 70.882812 102.59375 70.308594 103.171875 L 70.023438 103.195312 Z M 49.761719 49.523438 L 49.835938 50.859375 C 50.042969 54.34375 50.425781 60.828125 49.386719 68.273438 C 48.632812 73.644531 50.273438 78.890625 53.890625 82.660156 C 56.746094 85.636719 60.503906 87.28125 64.367188 87.28125 L 64.445312 87.28125 C 64.878906 85.460938 65.59375 83.535156 66.367188 81.460938 L 66.667969 80.65625 C 67.054688 79.621094 67.503906 78.617188 67.984375 77.558594 C 70.316406 72.371094 73.222656 65.917969 69.875 50.449219 C 69.214844 47.382812 67.605469 45.613281 64.964844 45.027344 C 59.542969 43.828125 51.460938 47.910156 49.761719 49.523438 Z M 61.046875 48.730469 C 60.953125 49.390625 62.257812 51.15625 63.960938 51.390625 C 65.65625 51.628906 67.109375 50.25 67.203125 49.589844 C 67.296875 48.925781 65.992188 48.199219 64.292969 47.960938 C 62.589844 47.726562 61.136719 48.070312 61.046875 48.730469 Z M 64.351562 52.042969 L 63.871094 52.007812 C 62.816406 51.863281 61.75 51.199219 61.023438 50.230469 C 60.765625 49.890625 60.347656 49.230469 60.429688 48.644531 C 60.546875 47.78125 61.601562 47.265625 63.242188 47.265625 C 63.609375 47.265625 63.992188 47.292969 64.375 47.34375 C 65.273438 47.46875 66.105469 47.726562 66.722656 48.070312 C 67.789062 48.667969 67.867188 49.332031 67.820312 49.675781 C 67.6875 50.628906 66.171875 52.042969 64.351562 52.042969 Z M 61.667969 48.839844 C 61.71875 49.25 62.730469 50.59375 64.046875 50.773438 L 64.351562 50.796875 C 65.566406 50.796875 66.472656 49.839844 66.578125 49.527344 C 66.464844 49.316406 65.6875 48.785156 64.207031 48.578125 C 79.28125 48.597656 91.488281 60.835938 91.46875 75.910156 C 91.449219 90.984375 79.210938 103.191406 64.136719 103.171875 C 63.183594 103.171875 62.679688 103.386719 62.5625 103.503906 Z M 112.765625 47.382812 C 112.859375 48.042969 111.554688 49.808594 109.855469 50.042969 C 108.15625 50.28125 106.703125 48.902344 106.609375 48.242188 C 106.519531 47.578125 107.824219 46.847656 109.523438 46.613281 C 111.222656 46.375 112.671875 46.722656 112.765625 47.382812 Z M 109.464844 50.382812 C 107.828125 50.382812 106.414062 49.109375 106.300781 48.28125 C 106.164062 47.292969 107.796875 46.539062 109.476562 46.304688 C 109.847656 46.253906 110.214844 46.226562 110.566406 46.226562 C 112.019531 46.226562 112.980469 46.652344 113.074219 47.339844 C 113.136719 47.785156 112.796875 48.46875 112.210938 49.085938 C 111.820312 49.496094 111.007812 50.199219 109.898438 50.351562 Z M 110.570312 46.851562 C 110.246094 46.851562 109.90625 46.875 109.566406 46.921875 C 107.875 47.15625 106.867188 47.835938 106.917969 48.199219 C 106.976562 48.597656 108.054688 49.757812 109.464844 49.757812 L 109.8125 49.734375 C 110.734375 49.605469 111.425781 49.003906 111.757812 48.65625 C 112.277344 48.113281 112.484375 47.597656 112.457031 47.425781 C 112.425781 47.191406 111.800781 46.851562 110.570312 46.851562 Z M 115.214844 85.339844 C 120.140625 86.140625 123.480469 90.785156 122.675781 95.710938 C 121.875 100.632812 117.230469 103.976562 112.304688 103.171875 C 116.289062 97.226562 115.558594 91.160156 114.855469 85.296875 C 114.554688 82.796875 114.242188 80.210938 114.324219 77.734375 C 114.40625 75.183594 114.730469 73.078125 115.042969 71.042969 C 115.414062 68.628906 115.765625 66.351562 115.621094 63.648438 C 126.535156 78 123.75 98.480469 109.394531 109.394531 C 95.042969 120.3125 74.5625 117.523438 63.648438 103.171875 C 63.8125 106.261719 63.417969 108.839844 63.03125 111.335938 C 62.734375 113.261719 62.429688 115.253906 62.355469 117.578125 C 62.28125 119.773438 62.5625 122.105469 62.859375 124.574219 C 63.609375 130.8125 64.460938 137.878906 59.707031 144.980469 C 48.160156 144.75 38.988281 135.203125 39.21875 123.660156 C 39.445312 112.117188 48.992188 102.941406 60.535156 103.171875 Z M 115.214844 85.339844 "/>
</g>
</svg>
