<?xml version="1.0" encoding="UTF-8"?>
<svg xmlns="http://www.w3.org/2000/svg" xmlns:xlink="http://www.w3.org/1999/xlink" width="150px" height="150px" viewBox="0 0 150 150" version="1.1">
<defs>
<filter id="alpha" filterUnits="objectBoundingBox" x="0%" y="0%" width="100%" height="100%">
  <feColorMatrix type="matrix" in="SourceGraphic" values="0 0 0 0 1 0 0 0 0 1 0 0 0 0 1 0 0 0 1 0"/>
</filter>
<mask id="mask0">
  <g filter="url(#alpha)">
<rect x="0" y="0" width="150" height="150" style="fill:rgb(0%,0%,0%);fill-opacity:0.8;stroke:none;"/>
  </g>
</mask>
<linearGradient id="linear0" gradientUnits="userSpaceOnUse" x1="96.306" y1="35.144" x2="25.454" y2="98.431" gradientTransform="matrix(1.171875,0,0,-1.171875,0,150)">
<stop offset="0" style="stop-color:rgb(66.27451%,78.431373%,100%);stop-opacity:1;"/>
<stop offset="1" style="stop-color:rgb(78.039216%,90.196078%,100%);stop-opacity:1;"/>
</linearGradient>
<clipPath id="clip1">
  <rect x="0" y="0" width="150" height="150"/>
</clipPath>
<g id="surface5" clip-path="url(#clip1)">
<path style=" stroke:none;fill-rule:evenodd;fill:url(#linear0);" d="M 8.4375 129.492188 C 6.445312 129.492188 4.804688 128.671875 3.632812 127.265625 C 2.460938 125.859375 2.109375 123.867188 2.578125 121.875 L 24.375 27.539062 C 25.3125 23.554688 29.0625 20.507812 33.046875 20.507812 L 141.5625 20.507812 C 143.554688 20.507812 145.195312 21.328125 146.367188 22.734375 C 147.539062 24.140625 147.890625 26.132812 147.421875 28.125 L 125.625 122.460938 C 124.6875 126.445312 120.9375 129.492188 116.953125 129.492188 Z M 8.4375 129.492188 "/>
</g>
<linearGradient id="linear1" gradientUnits="userSpaceOnUse" x1="25.336" y1="98.33" x2="94.569" y2="36.847" gradientTransform="matrix(1.171875,0,0,-1.171875,0,150)">
<stop offset="0" style="stop-color:rgb(17.647059%,27.45098%,39.215686%);stop-opacity:1;"/>
<stop offset="0.169" style="stop-color:rgb(16.078431%,25.098039%,35.686275%);stop-opacity:1;"/>
<stop offset="0.445" style="stop-color:rgb(11.764706%,18.431373%,26.27451%);stop-opacity:1;"/>
<stop offset="0.79" style="stop-color:rgb(4.705882%,7.45098%,10.588235%);stop-opacity:1;"/>
<stop offset="1" style="stop-color:rgb(0%,0%,0%);stop-opacity:1;"/>
</linearGradient>
</defs>
<g id="surface1">
<use xlink:href="#surface5" mask="url(#mask0)"/>
<path style=" stroke:none;fill-rule:evenodd;fill:url(#linear1);" d="M 140.976562 21.679688 L 33.398438 21.679688 C 30 21.679688 26.71875 24.375 25.898438 27.773438 L 4.335938 122.226562 C 3.515625 125.625 5.625 128.320312 9.023438 128.320312 L 116.601562 128.320312 C 120 128.320312 123.28125 125.625 124.101562 122.226562 L 145.664062 27.890625 C 146.484375 24.492188 144.375 21.679688 140.976562 21.679688 Z M 140.976562 21.679688 "/>
<path style=" stroke:none;fill-rule:evenodd;fill:rgb(17.254902%,33.333333%,56.862745%);fill-opacity:1;" d="M 75.234375 103.476562 L 101.367188 103.476562 C 104.414062 103.476562 106.875 106.054688 106.875 109.21875 C 106.875 112.382812 104.414062 114.960938 101.367188 114.960938 L 75.234375 114.960938 C 72.1875 114.960938 69.726562 112.382812 69.726562 109.21875 C 69.726562 106.054688 72.1875 103.476562 75.234375 103.476562 Z M 92.226562 77.929688 C 91.757812 78.867188 90.820312 79.804688 89.179688 80.976562 L 40.546875 115.898438 C 37.851562 117.773438 34.101562 117.070312 31.992188 114.257812 C 30 111.445312 30.46875 107.578125 33.046875 105.703125 L 76.875 73.945312 L 76.875 73.242188 L 49.335938 43.945312 C 47.109375 41.601562 47.34375 37.734375 49.804688 35.273438 C 52.382812 32.929688 56.25 32.929688 58.476562 35.273438 L 91.523438 70.429688 C 93.515625 72.65625 93.632812 75.703125 92.226562 77.929688 Z M 92.226562 77.929688 "/>
<path style=" stroke:none;fill-rule:evenodd;fill:rgb(100%,100%,100%);fill-opacity:1;" d="M 90.9375 76.757812 C 90.46875 77.695312 89.53125 78.632812 87.890625 79.804688 L 39.375 114.726562 C 36.679688 116.601562 32.929688 115.898438 30.820312 113.085938 C 28.828125 110.273438 29.296875 106.40625 31.875 104.53125 L 75.703125 72.773438 L 75.703125 72.070312 L 48.164062 42.773438 C 45.9375 40.429688 46.171875 36.5625 48.632812 34.101562 C 51.210938 31.757812 55.078125 31.757812 57.304688 34.101562 L 90.351562 69.257812 C 92.34375 71.367188 92.460938 74.414062 90.9375 76.757812 Z M 74.414062 102.890625 L 100.546875 102.890625 C 103.59375 102.890625 106.054688 105.351562 106.054688 108.28125 C 106.054688 111.328125 103.59375 113.671875 100.546875 113.671875 L 74.414062 113.671875 C 71.367188 113.671875 68.90625 111.210938 68.90625 108.28125 C 68.90625 105.234375 71.367188 102.890625 74.414062 102.890625 Z M 74.414062 102.890625 "/>
</g>
</svg>
