<?xml version="1.0" encoding="UTF-8"?>
<svg xmlns="http://www.w3.org/2000/svg" xmlns:xlink="http://www.w3.org/1999/xlink" width="150px" height="150px" viewBox="0 0 150 148" version="1.1">
<defs>
<filter id="alpha" filterUnits="objectBoundingBox" x="0%" y="0%" width="100%" height="100%">
  <feColorMatrix type="matrix" in="SourceGraphic" values="0 0 0 0 1 0 0 0 0 1 0 0 0 0 1 0 0 0 1 0"/>
</filter>
<mask id="mask0">
  <g filter="url(#alpha)">
<rect x="0" y="0" width="150" height="148" style="fill:rgb(0%,0%,0%);fill-opacity:0.101961;stroke:none;"/>
  </g>
</mask>
<clipPath id="clip1">
  <rect x="0" y="0" width="150" height="148"/>
</clipPath>
<g id="surface5" clip-path="url(#clip1)">
<path style=" stroke:none;fill-rule:nonzero;fill:rgb(0%,0%,0%);fill-opacity:1;" d="M 78.34375 32.375 L 34.855469 32.375 C 12.8125 58.226562 14.703125 96.664062 39.175781 120.25 L 78.34375 120.25 C 81.761719 120.242188 84.53125 117.488281 84.542969 114.085938 L 84.542969 38.539062 C 84.53125 35.136719 81.761719 32.382812 78.34375 32.375 Z M 78.34375 32.375 "/>
</g>
<mask id="mask1">
  <g filter="url(#alpha)">
<rect x="0" y="0" width="150" height="148" style="fill:rgb(0%,0%,0%);fill-opacity:0.2;stroke:none;"/>
  </g>
</mask>
<clipPath id="clip2">
  <rect x="0" y="0" width="150" height="148"/>
</clipPath>
<g id="surface8" clip-path="url(#clip2)">
<path style=" stroke:none;fill-rule:nonzero;fill:rgb(0%,0%,0%);fill-opacity:1;" d="M 73.695312 37 L 31.296875 37 C 11.398438 65.101562 17.222656 103.808594 44.515625 124.875 L 73.703125 124.875 C 77.117188 124.863281 79.886719 122.109375 79.894531 118.710938 L 79.894531 43.164062 C 79.886719 39.761719 77.117188 37.007812 73.695312 37 Z M 73.695312 37 "/>
</g>
<mask id="mask2">
  <g filter="url(#alpha)">
<rect x="0" y="0" width="150" height="148" style="fill:rgb(0%,0%,0%);fill-opacity:0.2;stroke:none;"/>
  </g>
</mask>
<clipPath id="clip3">
  <rect x="0" y="0" width="150" height="148"/>
</clipPath>
<g id="surface11" clip-path="url(#clip3)">
<path style=" stroke:none;fill-rule:nonzero;fill:rgb(0%,0%,0%);fill-opacity:1;" d="M 73.695312 37 L 31.296875 37 C 14.328125 60.949219 15.789062 93.292969 34.855469 115.625 L 73.703125 115.625 C 77.117188 115.613281 79.886719 112.859375 79.894531 109.460938 L 79.894531 43.164062 C 79.886719 39.761719 77.117188 37.007812 73.695312 37 Z M 73.695312 37 "/>
</g>
<mask id="mask3">
  <g filter="url(#alpha)">
<rect x="0" y="0" width="150" height="148" style="fill:rgb(0%,0%,0%);fill-opacity:0.2;stroke:none;"/>
  </g>
</mask>
<clipPath id="clip4">
  <rect x="0" y="0" width="150" height="148"/>
</clipPath>
<g id="surface14" clip-path="url(#clip4)">
<path style=" stroke:none;fill-rule:nonzero;fill:rgb(0%,0%,0%);fill-opacity:1;" d="M 69.050781 37 L 31.296875 37 C 14.328125 60.949219 15.789062 93.292969 34.855469 115.625 L 69.054688 115.625 C 72.472656 115.613281 75.238281 112.859375 75.25 109.460938 L 75.25 43.164062 C 75.238281 39.761719 72.46875 37.007812 69.050781 37 Z M 69.050781 37 "/>
</g>
</defs>
<g id="surface1">
<path style=" stroke:none;fill-rule:nonzero;fill:rgb(92.941176%,42.352941%,27.843137%);fill-opacity:1;" d="M 84.542969 9.25 C 48.660156 9.355469 19.597656 38.28125 19.492188 74 L 101.90625 91.285156 Z M 84.542969 9.25 "/>
<path style=" stroke:none;fill-rule:nonzero;fill:rgb(100%,56.078431%,41.960784%);fill-opacity:1;" d="M 84.542969 9.25 C 120.421875 9.355469 149.484375 38.28125 149.589844 74 L 117.066406 96.003906 L 84.542969 74 Z M 84.542969 9.25 "/>
<path style=" stroke:none;fill-rule:nonzero;fill:rgb(82.745098%,32.156863%,18.823529%);fill-opacity:1;" d="M 84.542969 138.75 C 120.421875 138.644531 149.484375 109.71875 149.589844 74 L 19.492188 74 C 19.597656 109.71875 48.660156 138.644531 84.542969 138.75 Z M 84.542969 138.75 "/>
<use xlink:href="#surface5" mask="url(#mask0)"/>
<use xlink:href="#surface8" mask="url(#mask1)"/>
<use xlink:href="#surface11" mask="url(#mask2)"/>
<use xlink:href="#surface14" mask="url(#mask3)"/>
<path style=" stroke:none;fill-rule:nonzero;fill:rgb(76.862745%,24.313725%,10.980392%);fill-opacity:1;" d="M 7.101562 37 L 69.054688 37 C 72.476562 37 75.25 39.761719 75.25 43.164062 L 75.25 104.835938 C 75.25 108.238281 72.476562 111 69.054688 111 L 7.101562 111 C 3.683594 111 0.910156 108.238281 0.910156 104.835938 L 0.910156 43.164062 C 0.910156 39.761719 3.683594 37 7.101562 37 Z M 7.101562 37 "/>
<path style=" stroke:none;fill-rule:nonzero;fill:rgb(97.647059%,96.862745%,96.862745%);fill-opacity:1;" d="M 38.066406 50.875 C 42.640625 50.570312 47.175781 51.886719 50.867188 54.597656 C 53.929688 57.320312 55.570312 61.296875 55.308594 65.378906 C 55.359375 67.996094 54.589844 70.5625 53.109375 72.722656 C 51.601562 75.113281 49.433594 77.019531 46.863281 78.207031 C 43.929688 79.566406 40.71875 80.238281 37.480469 80.167969 L 28.605469 80.167969 L 28.605469 97.125 L 19.492188 97.125 L 19.492188 50.875 Z M 28.601562 72.535156 L 36.4375 72.535156 C 38.925781 72.714844 41.390625 71.984375 43.371094 70.480469 C 44.976562 69.453125 45.875 67.625 45.710938 65.734375 C 45.710938 60.621094 42.71875 58.0625 36.730469 58.0625 L 28.601562 58.0625 Z M 28.601562 72.535156 "/>
</g>
</svg>
