<?xml version="1.0" encoding="UTF-8"?>
<svg xmlns="http://www.w3.org/2000/svg" xmlns:xlink="http://www.w3.org/1999/xlink" width="150px" height="150px" viewBox="0 0 150 150" version="1.1">
<defs>
<linearGradient id="linear0" gradientUnits="userSpaceOnUse" x1="38.78" y1="41.59" x2="95.91" y2="41.59" gradientTransform="matrix(1.171875,0,0,1.171875,0,0)">
<stop offset="0" style="stop-color:rgb(12.941176%,84.313725%,53.72549%);stop-opacity:1;"/>
<stop offset="1" style="stop-color:rgb(2.745098%,76.470588%,94.901961%);stop-opacity:1;"/>
</linearGradient>
<linearGradient id="linear1" gradientUnits="userSpaceOnUse" x1="-29.18" y1="85.52" x2="88.46" y2="-1.32" gradientTransform="matrix(1.171875,0,0,1.171875,0,0)">
<stop offset="0.01" style="stop-color:rgb(98.823529%,97.254902%,29.019608%);stop-opacity:1;"/>
<stop offset="0.11" style="stop-color:rgb(65.490196%,92.156863%,38.431373%);stop-opacity:1;"/>
<stop offset="0.21" style="stop-color:rgb(37.254902%,87.843137%,46.666667%);stop-opacity:1;"/>
<stop offset="0.27" style="stop-color:rgb(19.607843%,85.490196%,51.764706%);stop-opacity:1;"/>
<stop offset="0.31" style="stop-color:rgb(12.941176%,84.313725%,53.72549%);stop-opacity:1;"/>
<stop offset="0.58" style="stop-color:rgb(12.941176%,84.313725%,53.72549%);stop-opacity:1;"/>
<stop offset="0.6" style="stop-color:rgb(12.941176%,84.313725%,53.72549%);stop-opacity:1;"/>
<stop offset="0.69" style="stop-color:rgb(12.54902%,83.921569%,54.901961%);stop-opacity:1;"/>
<stop offset="0.76" style="stop-color:rgb(11.764706%,83.137255%,59.215686%);stop-opacity:1;"/>
<stop offset="0.83" style="stop-color:rgb(9.803922%,81.960784%,66.27451%);stop-opacity:1;"/>
<stop offset="0.9" style="stop-color:rgb(7.45098%,80%,76.078431%);stop-opacity:1;"/>
<stop offset="0.97" style="stop-color:rgb(4.313725%,77.647059%,88.235294%);stop-opacity:1;"/>
<stop offset="1" style="stop-color:rgb(2.745098%,76.470588%,94.901961%);stop-opacity:1;"/>
</linearGradient>
<linearGradient id="linear2" gradientUnits="userSpaceOnUse" x1="17.3" y1="110.99" x2="36.92" y2="49.42" gradientTransform="matrix(1.171875,0,0,1.171875,0,0)">
<stop offset="0" style="stop-color:rgb(12.941176%,84.313725%,53.72549%);stop-opacity:1;"/>
<stop offset="0.16" style="stop-color:rgb(14.117647%,84.705882%,53.333333%);stop-opacity:1;"/>
<stop offset="0.3" style="stop-color:rgb(18.431373%,85.098039%,52.156863%);stop-opacity:1;"/>
<stop offset="0.43" style="stop-color:rgb(25.490196%,86.27451%,50.196078%);stop-opacity:1;"/>
<stop offset="0.55" style="stop-color:rgb(35.294118%,87.843137%,47.45098%);stop-opacity:1;"/>
<stop offset="0.67" style="stop-color:rgb(47.843137%,89.411765%,43.529412%);stop-opacity:1;"/>
<stop offset="0.79" style="stop-color:rgb(63.137255%,91.764706%,39.215686%);stop-opacity:1;"/>
<stop offset="0.9" style="stop-color:rgb(81.176471%,94.509804%,34.117647%);stop-opacity:1;"/>
<stop offset="1" style="stop-color:rgb(98.823529%,97.254902%,29.019608%);stop-opacity:1;"/>
</linearGradient>
<linearGradient id="linear3" gradientUnits="userSpaceOnUse" x1="43.28" y1="57.46" x2="85.97" y2="0.06" gradientTransform="matrix(1.171875,0,0,1.171875,0,0)">
<stop offset="0" style="stop-color:rgb(12.941176%,84.313725%,53.72549%);stop-opacity:1;"/>
<stop offset="0.09" style="stop-color:rgb(13.72549%,85.098039%,52.54902%);stop-opacity:1;"/>
<stop offset="0.17" style="stop-color:rgb(16.470588%,87.058824%,48.235294%);stop-opacity:1;"/>
<stop offset="0.25" style="stop-color:rgb(21.176471%,90.196078%,41.176471%);stop-opacity:1;"/>
<stop offset="0.27" style="stop-color:rgb(23.137255%,91.764706%,38.431373%);stop-opacity:1;"/>
<stop offset="0.35" style="stop-color:rgb(27.843137%,92.156863%,38.039216%);stop-opacity:1;"/>
<stop offset="0.49" style="stop-color:rgb(40.392157%,92.941176%,36.470588%);stop-opacity:1;"/>
<stop offset="0.69" style="stop-color:rgb(60.392157%,94.509804%,33.72549%);stop-opacity:1;"/>
<stop offset="0.92" style="stop-color:rgb(87.843137%,96.470588%,30.196078%);stop-opacity:1;"/>
<stop offset="1" style="stop-color:rgb(98.823529%,97.254902%,29.019608%);stop-opacity:1;"/>
</linearGradient>
<linearGradient id="linear4" gradientUnits="userSpaceOnUse" x1="108.58" y1="64.77" x2="22.55" y2="63.97" gradientTransform="matrix(1.171875,0,0,1.171875,0,0)">
<stop offset="0.39" style="stop-color:rgb(98.823529%,97.254902%,29.019608%);stop-opacity:1;"/>
<stop offset="0.46" style="stop-color:rgb(92.54902%,96.862745%,29.803922%);stop-opacity:1;"/>
<stop offset="0.61" style="stop-color:rgb(75.686275%,95.686275%,31.764706%);stop-opacity:1;"/>
<stop offset="0.82" style="stop-color:rgb(49.411765%,93.72549%,35.294118%);stop-opacity:1;"/>
<stop offset="1" style="stop-color:rgb(23.137255%,91.764706%,38.431373%);stop-opacity:1;"/>
</linearGradient>
</defs>
<g id="surface1">
<path style=" stroke:none;fill-rule:nonzero;fill:url(#linear0);" d="M 102.585938 28.070312 L 142.65625 61.398438 L 128.230469 90.753906 L 104.070312 84.054688 L 83.171875 84.054688 Z M 102.585938 28.070312 "/>
<path style=" stroke:none;fill-rule:nonzero;fill:url(#linear1);" d="M 62.214844 49.714844 L 54.457031 90.757812 L 53.714844 104.699219 L 34.15625 113.171875 L 6.429688 116.15625 L 14.84375 27.484375 L 65.085938 6.429688 L 96.042969 26.730469 Z M 62.214844 49.714844 "/>
<path style=" stroke:none;fill-rule:nonzero;fill:url(#linear2);" d="M 62.214844 49.714844 L 65.984375 128.800781 L 53.457031 143.570312 L 6.429688 116.15625 L 45.042969 58.613281 Z M 62.214844 49.714844 "/>
<path style=" stroke:none;fill-rule:nonzero;fill:url(#linear3);" d="M 113.957031 43.941406 L 66.441406 43.941406 L 108.429688 6.429688 Z M 113.957031 43.941406 "/>
<path style=" stroke:none;fill-rule:nonzero;fill:url(#linear4);" d="M 143.570312 129.113281 L 101.742188 143.3125 L 46.042969 127.628906 L 62.214844 49.714844 L 68.671875 43.941406 L 102.585938 40.757812 L 99.515625 74.816406 L 126.484375 64.359375 Z M 143.570312 129.113281 "/>
<path style=" stroke:none;fill-rule:nonzero;fill:rgb(0%,0%,0%);fill-opacity:1;" d="M 32.144531 32.144531 L 117.859375 32.144531 L 117.859375 117.859375 L 32.144531 117.859375 Z M 32.144531 32.144531 "/>
<path style=" stroke:none;fill-rule:nonzero;fill:rgb(100%,100%,100%);fill-opacity:1;" d="M 42.828125 101.65625 L 74.972656 101.65625 L 74.972656 107.011719 L 42.828125 107.011719 Z M 42.855469 42.855469 L 56 42.855469 C 63.65625 42.855469 68.300781 47.398438 68.300781 53.957031 L 68.300781 54.042969 C 68.300781 61.472656 62.515625 65.328125 55.3125 65.328125 L 50 65.328125 L 50 74.957031 L 42.859375 74.957031 Z M 55.515625 59.042969 C 59.042969 59.042969 61.113281 56.941406 61.113281 54.183594 L 61.113281 54.101562 C 61.113281 50.929688 58.914062 49.226562 55.402344 49.226562 L 50 49.226562 L 50 59.042969 Z M 72.128906 59.015625 L 72.128906 58.929688 C 72.046875 54.480469 73.785156 50.1875 76.945312 47.050781 C 80.105469 43.917969 84.40625 42.210938 88.855469 42.328125 C 93.589844 42.089844 98.199219 43.886719 101.515625 47.269531 L 97.027344 52.457031 C 94.871094 50.222656 91.921875 48.917969 88.8125 48.828125 C 83.398438 48.828125 79.5 53.328125 79.5 58.828125 L 79.5 58.929688 C 79.5 64.425781 83.3125 69.011719 88.8125 69.011719 C 92.484375 69.011719 94.726562 67.585938 97.257812 65.257812 L 101.742188 69.785156 C 98.46875 73.609375 93.617188 75.71875 88.585938 75.5 C 84.195312 75.5625 79.96875 73.847656 76.867188 70.742188 C 73.765625 67.632812 72.054688 63.402344 72.128906 59.011719 "/>
</g>
</svg>
