<?xml version="1.0" encoding="UTF-8"?>
<svg xmlns="http://www.w3.org/2000/svg" xmlns:xlink="http://www.w3.org/1999/xlink" width="150px" height="150px" viewBox="0 0 150 150" version="1.1">
<g id="surface1">
<path style=" stroke:none;fill-rule:nonzero;fill:rgb(41.176471%,41.176471%,41.176471%);fill-opacity:1;" d="M 36.929688 35.621094 L 108.769531 35.621094 C 98.933594 65.660156 66.609375 82.03125 36.574219 72.195312 C 6.539062 62.359375 -9.835938 30.035156 0 0 L 36.929688 0 C 38.875 0 40.453125 1.574219 40.457031 3.519531 C 40.457031 5.46875 38.878906 7.046875 36.933594 7.046875 C 34.988281 7.046875 33.410156 5.472656 33.40625 3.523438 Z M 36.929688 35.621094 "/>
<path style=" stroke:none;fill-rule:nonzero;fill:rgb(0%,62.352941%,89.019608%);fill-opacity:1;" d="M 37.554688 28.5 L 51.996094 28.5 L 51.996094 31.832031 L 37.554688 31.832031 Z M 37.554688 28.5 "/>
<path style=" stroke:none;fill-rule:nonzero;fill:rgb(78.039216%,82.745098%,0.784314%);fill-opacity:1;" d="M 56.445312 28.5 L 70.890625 28.5 L 70.890625 31.832031 L 56.445312 31.832031 Z M 56.445312 28.5 "/>
<path style=" stroke:none;fill-rule:nonzero;fill:rgb(94.117647%,49.411765%,8.627451%);fill-opacity:1;" d="M 75.082031 28.5 L 89.527344 28.5 L 89.527344 31.832031 L 75.082031 31.832031 Z M 75.082031 28.5 "/>
<path style=" stroke:none;fill-rule:nonzero;fill:rgb(87.45098%,15.686275%,8.235294%);fill-opacity:1;" d="M 93.644531 28.5 L 108.085938 28.5 L 108.085938 31.832031 L 93.644531 31.832031 Z M 93.644531 46.335938 L 108.085938 46.335938 L 108.085938 70.75 L 93.644531 70.75 Z M 93.644531 46.335938 "/>
<path style=" stroke:none;fill-rule:nonzero;fill:rgb(94.117647%,49.411765%,8.627451%);fill-opacity:1;" d="M 75.082031 46.335938 L 89.558594 46.335938 L 89.558594 86 L 75.082031 86 Z M 75.082031 46.335938 "/>
<path style=" stroke:none;fill-rule:nonzero;fill:rgb(78.039216%,82.745098%,0.784314%);fill-opacity:1;" d="M 56.445312 46.335938 L 70.890625 46.335938 L 70.890625 105.746094 L 56.445312 105.746094 Z M 56.445312 46.335938 "/>
<path style=" stroke:none;fill-rule:nonzero;fill:rgb(0%,62.352941%,89.019608%);fill-opacity:1;" d="M 37.554688 46.335938 L 51.996094 46.335938 L 51.996094 118.75 L 37.554688 118.75 Z M 37.554688 46.335938 "/>
</g>
</svg>
