<?xml version="1.0" encoding="UTF-8"?>
<svg xmlns="http://www.w3.org/2000/svg" xmlns:xlink="http://www.w3.org/1999/xlink" width="150px" height="150px" viewBox="0 0 150 150" version="1.1">
<defs>
<linearGradient id="linear0" gradientUnits="userSpaceOnUse" x1="70.252" y1="1237.476" x2="170.659" y2="1151.089" gradientTransform="matrix(0.659766,0,0,-0.665625,-34.236328,841.496484)">
<stop offset="0" style="stop-color:rgb(35.294118%,62.352941%,83.137255%);stop-opacity:1;"/>
<stop offset="1" style="stop-color:rgb(18.823529%,41.176471%,59.607843%);stop-opacity:1;"/>
</linearGradient>
<linearGradient id="linear1" gradientUnits="userSpaceOnUse" x1="209.474" y1="1098.811" x2="173.62" y2="1149.537" gradientTransform="matrix(0.659766,0,0,-0.665625,-34.236328,841.496484)">
<stop offset="0" style="stop-color:rgb(100%,83.137255%,23.137255%);stop-opacity:1;"/>
<stop offset="1" style="stop-color:rgb(100%,90.980392%,45.098039%);stop-opacity:1;"/>
</linearGradient>
<filter id="alpha" filterUnits="objectBoundingBox" x="0%" y="0%" width="100%" height="100%">
  <feColorMatrix type="matrix" in="SourceGraphic" values="0 0 0 0 1 0 0 0 0 1 0 0 0 0 1 0 0 0 1 0"/>
</filter>
<mask id="mask0">
  <g filter="url(#alpha)">
<rect x="0" y="0" width="150" height="150" style="fill:rgb(0%,0%,0%);fill-opacity:0.443137;stroke:none;"/>
  </g>
</mask>
<radialGradient id="radial0" gradientUnits="userSpaceOnUse" cx="1825.678" cy="444.45" fx="1825.678" fy="444.45" r="26.743" gradientTransform="matrix(0,-0.28125,-1.236328,0,624.584766,653.409375)">
<stop offset="0" style="stop-color:rgb(72.156863%,72.156863%,72.156863%);stop-opacity:0.498039;"/>
<stop offset="1" style="stop-color:rgb(49.803922%,49.803922%,49.803922%);stop-opacity:0;"/>
</radialGradient>
<clipPath id="clip1">
  <rect x="0" y="0" width="150" height="150"/>
</clipPath>
<g id="surface5" clip-path="url(#clip1)">
<path style=" stroke:none;fill-rule:nonzero;fill:url(#radial0);" d="M 114.035156 140.152344 C 114.035156 144.304688 96.671875 147.671875 75.253906 147.671875 C 53.839844 147.671875 36.476562 144.304688 36.476562 140.152344 C 36.476562 136 53.835938 132.632812 75.253906 132.632812 C 96.671875 132.632812 114.035156 136 114.035156 140.152344 Z M 114.035156 140.152344 "/>
</g>
</defs>
<g id="surface1">
<path style=" stroke:none;fill-rule:nonzero;fill:url(#linear0);" d="M 74.285156 14.351562 C 69.339844 14.375 64.617188 14.796875 60.457031 15.53125 C 48.210938 17.695312 45.988281 22.226562 45.988281 30.578125 L 45.988281 41.605469 L 74.925781 41.605469 L 74.925781 45.28125 L 35.128906 45.28125 C 26.71875 45.28125 19.355469 50.335938 17.050781 59.953125 C 14.394531 70.976562 14.277344 77.855469 17.050781 89.363281 C 19.109375 97.929688 24.019531 104.035156 32.429688 104.035156 L 42.382812 104.035156 L 42.382812 90.8125 C 42.382812 81.261719 50.644531 72.835938 60.460938 72.835938 L 89.363281 72.835938 C 97.410156 72.835938 103.832031 66.210938 103.832031 58.132812 L 103.832031 30.578125 C 103.832031 22.734375 97.214844 16.84375 89.363281 15.535156 C 84.390625 14.707031 79.234375 14.332031 74.285156 14.351562 Z M 58.636719 23.222656 C 61.625 23.222656 64.066406 25.703125 64.066406 28.753906 C 64.066406 31.792969 61.625 34.25 58.636719 34.25 C 55.636719 34.25 53.207031 31.792969 53.207031 28.753906 C 53.207031 25.703125 55.636719 23.222656 58.636719 23.222656 Z M 58.636719 23.222656 "/>
<path style=" stroke:none;fill-rule:nonzero;fill:url(#linear1);" d="M 107.441406 45.28125 L 107.441406 58.132812 C 107.441406 68.09375 98.992188 76.476562 89.363281 76.476562 L 60.457031 76.476562 C 52.539062 76.476562 45.992188 83.253906 45.992188 91.183594 L 45.992188 118.742188 C 45.992188 126.582031 52.808594 131.195312 60.457031 133.445312 C 69.617188 136.136719 78.402344 136.625 89.363281 133.445312 C 96.648438 131.332031 103.832031 127.089844 103.832031 118.742188 L 103.832031 107.710938 L 74.925781 107.710938 L 74.925781 104.03125 L 118.300781 104.03125 C 126.710938 104.03125 129.847656 98.167969 132.769531 89.363281 C 135.792969 80.296875 135.664062 71.582031 132.769531 59.953125 C 130.691406 51.578125 126.722656 45.28125 118.300781 45.28125 Z M 91.183594 115.0625 C 94.183594 115.0625 96.613281 117.519531 96.613281 120.5625 C 96.613281 123.609375 94.183594 126.089844 91.183594 126.089844 C 88.195312 126.089844 85.753906 123.609375 85.753906 120.5625 C 85.753906 117.519531 88.195312 115.0625 91.183594 115.0625 Z M 91.183594 115.0625 "/>
<use xlink:href="#surface5" mask="url(#mask0)"/>
</g>
</svg>
