<?xml version="1.0" encoding="UTF-8"?>
<svg xmlns="http://www.w3.org/2000/svg" xmlns:xlink="http://www.w3.org/1999/xlink" width="150px" height="150px" viewBox="0 0 150 150" version="1.1">
<g id="surface1">
<path style=" stroke:none;fill-rule:nonzero;fill:rgb(93.333333%,29.803922%,17.254902%);fill-opacity:1;" d="M 117.304688 44.882812 L 106.523438 55.664062 C 124.21875 73.359375 124.21875 101.835938 106.523438 119.296875 C 88.828125 136.992188 60.351562 136.992188 42.890625 119.296875 C 25.195312 101.601562 25.195312 73.125 42.890625 55.664062 L 75 23.554688 L 75 2.34375 L 32.578125 44.765625 C 9.023438 68.320312 9.023438 106.40625 32.578125 130.078125 C 56.132812 153.75 94.21875 153.632812 117.421875 130.078125 C 140.976562 106.40625 140.976562 68.554688 117.304688 44.882812 Z M 117.304688 44.882812 "/>
<path style=" stroke:none;fill-rule:nonzero;fill:rgb(93.333333%,29.803922%,17.254902%);fill-opacity:1;" d="M 96.320312 26.566406 C 100.65625 26.648438 104.105469 30.226562 104.027344 34.5625 C 103.945312 38.898438 100.367188 42.347656 96.03125 42.265625 C 91.695312 42.1875 88.246094 38.605469 88.328125 34.273438 C 88.40625 29.9375 91.988281 26.488281 96.320312 26.566406 Z M 96.320312 26.566406 "/>
</g>
</svg>
