<?xml version="1.0" encoding="UTF-8"?>
<svg xmlns="http://www.w3.org/2000/svg" xmlns:xlink="http://www.w3.org/1999/xlink" width="150px" height="150px" viewBox="0 0 150 150" version="1.1">
<defs>
<linearGradient id="linear0" gradientUnits="userSpaceOnUse" x1="0.741" y1="3.666" x2="590.86" y2="593.79" gradientTransform="matrix(0.25418,0,0,0.170238,-0.1875,16.5375)">
<stop offset="0" style="stop-color:rgb(79.607843%,80.784314%,81.568627%);stop-opacity:1;"/>
<stop offset="1" style="stop-color:rgb(51.764706%,51.372549%,54.509804%);stop-opacity:1;"/>
</linearGradient>
<linearGradient id="linear1" gradientUnits="userSpaceOnUse" x1="301.03" y1="151.4" x2="703.07" y2="553.44" gradientTransform="matrix(0.205922,0,0,0.210129,-0.1875,16.5375)">
<stop offset="0" style="stop-color:rgb(15.294118%,42.745098%,76.470588%);stop-opacity:1;"/>
<stop offset="1" style="stop-color:rgb(8.627451%,36.078431%,66.666667%);stop-opacity:1;"/>
</linearGradient>
</defs>
<g id="surface1">
<path style=" stroke:none;fill-rule:evenodd;fill:url(#linear0);" d="M 75 117.632812 C 33.578125 117.632812 0 95.144531 0 67.402344 C 0 39.664062 33.578125 17.171875 75 17.171875 C 116.421875 17.171875 150 39.660156 150 67.402344 C 150 95.144531 116.421875 117.632812 75 117.632812 Z M 86.480469 36.8125 C 54.996094 36.8125 29.472656 52.1875 29.472656 71.152344 C 29.472656 90.117188 54.996094 105.492188 86.480469 105.492188 C 117.964844 105.492188 141.199219 94.980469 141.199219 71.152344 C 141.199219 47.332031 117.964844 36.8125 86.480469 36.8125 Z M 86.480469 36.8125 "/>
<path style=" stroke:none;fill-rule:evenodd;fill:url(#linear1);" d="M 114.222656 94.960938 C 114.222656 94.960938 118.761719 96.332031 121.398438 97.664062 C 122.3125 98.128906 123.898438 99.050781 125.039062 100.265625 C 97.351562 107.105469 69.359375 90.207031 62.519531 62.519531 C 55.679688 34.832031 72.578125 6.839844 100.265625 0 L 118.15625 30.164062 L 89.242188 30.175781 L 75.722656 4.785156 C 75.722656 4.785156 72.953125 0.0273438 71.246094 -1.351562 C 69.828125 -2.503906 69.21875 -2.910156 67.816406 -2.910156 L 60.945312 -2.910156 L 60.949219 30.15625 L 35.363281 30.167969 L 35.363281 48.351562 L 86.746094 48.351562 C 86.746094 48.351562 110.148438 48.773438 110.148438 71.039062 C 110.148438 93.300781 87.785156 94.960938 87.785156 94.960938 Z M 103.09375 66.675781 L 87.601562 66.664062 L 87.59375 81.03125 L 103.09375 81.023438 C 103.09375 81.023438 110.269531 81 110.269531 73.71875 C 110.269531 66.289062 103.09375 66.675781 103.09375 66.675781 Z M 103.09375 66.675781 "/>
</g>
</svg>
