<?xml version="1.0" encoding="UTF-8"?>
<svg xmlns="http://www.w3.org/2000/svg" xmlns:xlink="http://www.w3.org/1999/xlink" width="150px" height="150px" viewBox="0 0 150 150" version="1.1">
<g id="surface1">
<path style=" stroke:none;fill-rule:nonzero;fill:rgb(45.882353%,66.666667%,85.882353%);fill-opacity:1;" d="M 83.671875 45.46875 C 81.914062 44.765625 79.101562 44.296875 75.585938 44.179688 C 70.664062 44.0625 65.039062 44.648438 64.804688 44.765625 L 64.804688 68.203125 C 80.390625 68.90625 82.96875 66.210938 82.96875 66.210938 C 96.5625 59.296875 88.007812 47.226562 83.671875 45.46875 Z M 83.671875 45.46875 "/>
<path style=" stroke:none;fill-rule:nonzero;fill:rgb(45.882353%,66.666667%,85.882353%);fill-opacity:1;" d="M 75 0 C 33.515625 0 0 33.515625 0 75 C 0 116.484375 33.515625 150 75 150 C 116.484375 150 150 116.484375 150 75 C 150 33.515625 116.367188 0 75 0 Z M 108.515625 105.234375 L 96.09375 105.234375 L 75.46875 74.414062 L 64.921875 74.414062 L 64.921875 98.4375 L 75.46875 98.4375 L 75.46875 105.234375 L 48.632812 105.234375 L 48.632812 98.554688 L 57.539062 98.4375 L 57.421875 44.648438 C 56.484375 44.414062 48.632812 43.710938 48.632812 43.710938 L 48.632812 37.5 C 49.804688 38.671875 57.890625 38.90625 57.890625 38.90625 C 59.765625 39.023438 62.460938 39.140625 63.984375 38.789062 C 74.882812 36.796875 83.203125 38.320312 83.203125 38.320312 C 99.609375 42.070312 99.84375 56.835938 95.273438 64.804688 C 91.171875 71.601562 83.203125 73.242188 83.203125 73.242188 L 100.078125 98.789062 L 108.515625 98.671875 Z M 108.515625 105.234375 "/>
<path style="fill-rule:nonzero;fill:rgb(100%,100%,100%);fill-opacity:1;stroke-width:0.788;stroke-linecap:butt;stroke-linejoin:miter;stroke:rgb(100%,100%,100%);stroke-opacity:1;stroke-miterlimit:4;" d="M 41.596667 87.073333 L 41.596667 84.346667 L 43.416667 84.206667 C 30.076667 111.59 -1.883333 124.363333 -30.42 113.706667 C -58.956667 103.053333 -74.73 72.463333 -66.856667 43.036667 C -58.983333 13.61 -30.043333 -5.02 0 0 L 1.93 0 L 1.93 37.996667 L 0.993333 37.87 C 0.476667 37.8 -1.21 37.62 -2.76 37.473333 L -5.573333 37.203333 L -5.573333 34.693333 C -5.573333 32.36 -5.543333 32.196667 -5.183333 32.393333 C -3.6 33.24 5.516667 33.463333 10.646667 32.78 C 14.85 32.223333 22.143333 32.356667 24.683333 33.036667 C 30.166667 34.51 33.793333 37.683333 35.506667 42.51 C 36.223333 44.526667 36.323333 48.356667 35.723333 50.733333 C 34.82 54.306667 33.333333 56.783333 30.856667 58.833333 C 29.376667 60.063333 26.01 61.866667 24.713333 62.123333 C 24.316667 62.203333 23.94 62.35 23.88 62.446667 C 23.82 62.543333 27.003333 67.516667 30.956667 73.5 L 38.14 84.376667 L 41.773333 84.306667 L 45.406667 84.24 L 45.406667 89.8 L 34.926667 89.786667 L 26.106667 76.55 L 17.286667 63.316667 L 8.11 63.316667 L 8.11 84.06 L 17.16 84.06 L 17.16 89.8 L 41.596667 89.8 Z M 66.753333 57.91 C 70.23 57.36 74.016667 55.136667 75.726667 52.646667 C 78.236667 48.986667 77.263333 43.656667 73.433333 40.1 C 72.076667 38.84 71.226667 38.47 68.636667 38 C 66.513333 37.613333 59.976667 37.546667 56.933333 37.88 L 55.386667 38.046667 L 55.273333 58.213333 L 55.993333 58.316667 C 57.36 58.516667 64.663333 58.243333 66.753333 57.91 Z M 66.753333 57.91 " transform="matrix(1.171875,0,0,1.171875,0,0)"/>
</g>
</svg>
