<?xml version="1.0" encoding="UTF-8"?>
<svg xmlns="http://www.w3.org/2000/svg" xmlns:xlink="http://www.w3.org/1999/xlink" width="150px" height="150px" viewBox="0 0 150 150" version="1.1">
<g id="surface1">
<path style=" stroke:none;fill-rule:nonzero;fill:rgb(22.352941%,5.098039%,3.529412%);fill-opacity:1;" d="M 29.296875 129.417969 L 29.296875 111.179688 L 35.878906 111.179688 C 39.527344 111.179688 45.3125 110.941406 48.804688 110.625 L 54.988281 110.148438 L 46.742188 107.929688 C 42.144531 106.738281 36.355469 104.996094 33.898438 104.042969 L 29.296875 102.378906 L 29.296875 65.1875 L 36.671875 65.1875 C 40.636719 65.1875 46.425781 64.949219 49.4375 64.632812 L 54.988281 64.15625 L 45.234375 61.542969 C 39.84375 60.195312 34.132812 58.371094 32.390625 57.65625 L 29.296875 56.230469 L 29.296875 20.230469 L 31.753906 19.675781 C 33.101562 19.4375 36.433594 19.199219 39.128906 19.199219 C 52.449219 19.199219 84.089844 14.835938 99.632812 10.871094 C 110.496094 8.019531 118.027344 5.164062 120.644531 2.785156 C 121.992188 1.59375 122.070312 2.308594 122.070312 19.832031 L 122.070312 38.148438 L 120.167969 39.578125 L 118.265625 41.082031 L 122.070312 44.414062 L 122.070312 84.140625 L 120.167969 85.566406 L 118.265625 87.074219 L 122.070312 90.40625 L 122.070312 130.132812 L 120.007812 131.71875 C 117.789062 133.460938 109.226562 136.398438 99.472656 138.855469 C 84.25 142.660156 47.058594 147.65625 34.371094 147.65625 L 29.296875 147.65625 Z M 29.296875 129.417969 "/>
<path style=" stroke:none;fill-rule:nonzero;fill:rgb(87.058824%,20.392157%,13.72549%);fill-opacity:1;" d="M 29.296875 129.578125 L 29.296875 111.417969 L 43.175781 110.863281 C 57.605469 110.308594 68.3125 109.117188 84.011719 106.421875 C 101.851562 103.328125 119.453125 97.78125 121.28125 94.609375 C 121.753906 93.8125 122.070312 99.921875 122.070312 111.734375 L 122.070312 130.132812 L 120.007812 131.71875 C 117.789062 133.460938 109.226562 136.398438 99.472656 138.855469 C 84.25 142.660156 47.058594 147.65625 34.371094 147.65625 L 29.296875 147.65625 Z M 29.296875 83.585938 L 29.296875 65.425781 L 43.175781 64.949219 C 58.558594 64.316406 70.53125 62.96875 86.390625 60.035156 C 104.152344 56.703125 120.328125 51.3125 121.515625 48.378906 C 121.753906 47.824219 121.992188 55.515625 121.992188 65.503906 C 122.070312 81.363281 121.914062 83.902344 120.722656 85.167969 C 117.949219 88.261719 96.539062 93.8125 74.496094 97.222656 C 61.09375 99.285156 38.890625 101.664062 32.707031 101.664062 L 29.296875 101.664062 Z M 29.296875 37.914062 L 29.296875 20.148438 L 31.753906 19.675781 C 33.101562 19.4375 36.433594 19.199219 39.128906 19.199219 C 52.449219 19.199219 84.089844 14.835938 99.632812 10.871094 C 110.496094 8.019531 118.027344 5.164062 120.644531 2.785156 C 121.992188 1.59375 122.070312 2.308594 122.070312 19.753906 C 122.070312 36.800781 121.992188 38.070312 120.566406 39.339844 C 118.425781 41.320312 103.753906 45.839844 92.335938 48.140625 C 73.859375 51.789062 43.175781 55.675781 32.707031 55.675781 L 29.296875 55.675781 Z M 29.296875 37.914062 "/>
</g>
</svg>
