<?xml version="1.0" encoding="UTF-8"?>
<svg xmlns="http://www.w3.org/2000/svg" xmlns:xlink="http://www.w3.org/1999/xlink" width="150px" height="150px" viewBox="0 0 150 150" version="1.1">
<g id="surface1">
<path style=" stroke:none;fill-rule:nonzero;fill:rgb(97.254902%,60%,22.352941%);fill-opacity:1;" d="M 115.054688 103.277344 C 133.371094 84.972656 136.417969 58.324219 121.851562 43.769531 C 107.285156 29.214844 80.636719 32.261719 62.320312 50.566406 C 44.003906 68.871094 49.300781 103.863281 55.523438 110.074219 C 60.550781 115.101562 96.738281 121.582031 115.054688 103.277344 Z M 115.054688 103.277344 "/>
<path style=" stroke:none;fill-rule:nonzero;fill:rgb(20.392157%,60%,80.392157%);fill-opacity:1;" d="M 39.890625 76.828125 C 29.261719 66.210938 13.792969 64.441406 5.34375 72.878906 C -3.105469 81.328125 -1.335938 96.785156 9.292969 107.402344 C 19.921875 118.03125 40.230469 114.949219 43.839844 111.351562 C 46.757812 108.433594 50.53125 87.445312 39.890625 76.828125 Z M 39.890625 76.828125 "/>
<path style=" stroke:none;fill-rule:nonzero;fill:rgb(0.392157%,0.392157%,0.392157%);fill-opacity:1;" d="M 145.101562 100.40625 C 144.421875 100.40625 144.082031 99.996094 144.082031 99.164062 C 144.082031 98.542969 144.492188 97.183594 145.300781 95.109375 C 146.484375 92.074219 147.082031 89.894531 147.082031 88.570312 C 147.082031 87.773438 146.847656 87.105469 146.378906 86.578125 C 145.910156 86.050781 145.324219 85.78125 144.621094 85.78125 C 143.589844 85.78125 142.40625 86.261719 141.070312 87.234375 C 139.734375 88.207031 137.941406 89.953125 135.679688 92.484375 C 136.007812 90.84375 136.710938 88.59375 137.765625 85.734375 L 132.714844 86.707031 C 131.566406 89.191406 130.734375 91.429688 130.21875 93.421875 C 129.960938 94.394531 129.773438 95.402344 129.644531 96.421875 C 128.0625 97.957031 127.03125 98.882812 126.585938 99.222656 C 126.128906 99.5625 125.648438 99.726562 125.15625 99.726562 C 124.699219 99.726562 124.335938 99.550781 124.066406 99.210938 C 123.796875 98.871094 123.667969 98.402344 123.667969 97.828125 C 123.667969 97.207031 123.785156 96.492188 124.019531 95.683594 C 124.253906 94.875 124.769531 93.351562 125.578125 91.113281 L 127.5 85.816406 L 125.613281 85.898438 C 123.902344 89.15625 121.898438 90.914062 119.601562 91.160156 C 120.222656 89.542969 120.539062 88.300781 120.539062 87.433594 C 120.539062 86.332031 120 85.78125 118.921875 85.78125 C 117.644531 85.78125 116.648438 86.378906 115.933594 87.585938 C 115.207031 88.792969 114.84375 89.929688 114.84375 90.996094 C 114.84375 92.0625 115.441406 92.8125 116.625 93.339844 C 115.851562 94.476562 114.984375 95.542969 114.046875 96.550781 C 112.933594 97.652344 112.066406 98.496094 111.433594 99.046875 C 110.789062 99.621094 110.191406 99.902344 109.652344 99.902344 C 108.808594 99.902344 108.386719 99.304688 108.386719 98.121094 C 108.386719 96.9375 108.855469 94.898438 109.792969 91.851562 L 111.621094 85.78125 L 110.460938 85.78125 L 106.230469 88.125 C 105.539062 86.542969 104.332031 85.746094 102.609375 85.746094 C 101.238281 85.746094 99.667969 86.332031 97.886719 87.492188 C 96.105469 88.652344 94.640625 90.164062 93.503906 92.050781 C 92.625 93.503906 92.085938 95.027344 91.886719 96.597656 C 90.292969 98.191406 89.097656 99.222656 88.300781 99.703125 C 87.46875 100.195312 86.601562 100.441406 85.6875 100.441406 C 83.355469 100.441406 81.914062 99.09375 81.363281 96.398438 C 87.445312 94.617188 90.480469 92.296875 90.480469 89.4375 C 90.480469 88.359375 90.09375 87.492188 89.320312 86.824219 C 88.546875 86.15625 87.515625 85.828125 86.238281 85.828125 C 83.765625 85.828125 81.515625 87.011719 79.488281 89.378906 C 77.648438 91.523438 76.652344 93.902344 76.476562 96.515625 C 74.800781 98.167969 73.535156 99.257812 72.714844 99.785156 C 71.871094 100.324219 71.074219 100.59375 70.335938 100.59375 C 69.597656 100.59375 69.011719 100.242188 68.578125 99.539062 C 68.132812 98.835938 67.910156 97.886719 67.910156 96.679688 C 67.910156 96.140625 67.96875 95.15625 68.074219 93.714844 C 70.839844 90.714844 72.867188 87.902344 74.167969 85.265625 C 75.46875 82.628906 76.113281 79.898438 76.113281 77.085938 C 76.113281 76.089844 75.984375 75.304688 75.726562 74.71875 C 75.46875 74.132812 75.140625 73.839844 74.742188 73.839844 C 74.660156 73.839844 74.53125 73.863281 74.367188 73.921875 L 69.105469 75.867188 C 67.3125 79.289062 65.777344 83.027344 64.523438 87.09375 C 63.269531 91.148438 62.636719 94.628906 62.636719 97.523438 C 62.636719 99.457031 63.082031 100.992188 63.996094 102.140625 C 64.898438 103.289062 66.09375 103.863281 67.570312 103.863281 C 68.859375 103.863281 70.207031 103.453125 71.625 102.632812 C 73.042969 101.8125 74.683594 100.535156 76.570312 98.8125 C 78.457031 97.089844 76.570312 98.789062 76.570312 98.789062 C 76.792969 100.089844 77.332031 101.179688 78.175781 102.070312 C 79.335938 103.265625 80.847656 103.875 82.722656 103.875 C 84.410156 103.875 85.945312 103.464844 87.339844 102.644531 C 88.6875 101.859375 90.199219 100.628906 91.886719 99 C 92.027344 100.21875 92.425781 101.273438 93.09375 102.175781 C 93.949219 103.3125 94.980469 103.886719 96.1875 103.886719 C 97.394531 103.886719 98.636719 103.417969 99.808594 102.480469 C 100.980469 101.542969 102.246094 100.078125 103.628906 98.109375 C 103.5 101.964844 104.53125 103.886719 106.710938 103.886719 C 107.578125 103.886719 108.492188 103.570312 109.441406 102.9375 C 110.390625 102.304688 111.972656 100.933594 114.1875 98.835938 C 116.109375 96.9375 117.515625 95.15625 118.417969 93.492188 C 119.636719 93.28125 120.75 92.917969 121.769531 92.390625 C 119.683594 95.660156 118.640625 98.273438 118.640625 100.21875 C 118.640625 101.273438 118.933594 102.152344 119.507812 102.855469 C 120.082031 103.558594 120.796875 103.921875 121.640625 103.921875 C 123.480469 103.921875 126.09375 102.269531 129.46875 99 C 129.46875 99.257812 129.445312 99.503906 129.445312 99.761719 C 129.445312 100.675781 129.527344 102.058594 129.667969 103.921875 L 134.25 102.84375 C 134.25 101.601562 134.273438 100.617188 134.308594 99.878906 C 134.378906 98.894531 134.519531 97.816406 134.71875 96.644531 C 134.847656 95.953125 135.164062 95.296875 135.667969 94.675781 L 136.828125 93.328125 C 137.25 92.835938 137.660156 92.390625 138.023438 92.003906 C 138.457031 91.546875 138.84375 91.160156 139.183594 90.84375 C 139.570312 90.503906 139.910156 90.222656 140.203125 90.035156 C 140.519531 89.847656 140.777344 89.742188 140.964844 89.742188 C 141.304688 89.742188 141.480469 89.964844 141.480469 90.410156 C 141.480469 90.855469 141.152344 91.886719 140.507812 93.515625 C 139.289062 96.550781 138.679688 98.8125 138.679688 100.289062 C 138.679688 101.378906 138.960938 102.246094 139.535156 102.902344 C 140.097656 103.546875 140.847656 103.875 141.773438 103.875 C 144.046875 103.875 146.789062 102.1875 149.976562 98.824219 L 149.976562 96.445312 C 147.714844 99.105469 146.085938 100.441406 145.078125 100.441406 Z M 68.625 90.691406 C 69.5625 86.109375 70.523438 82.558594 71.496094 80.015625 C 72.46875 77.472656 73.21875 76.195312 73.722656 76.195312 C 73.957031 76.195312 74.15625 76.347656 74.308594 76.664062 C 74.460938 76.96875 74.53125 77.390625 74.53125 77.894531 C 74.53125 79.640625 73.992188 81.714844 72.890625 84.140625 C 71.800781 86.554688 70.371094 88.746094 68.625 90.691406 Z M 82.441406 89.542969 C 83.273438 88.148438 84.140625 87.457031 85.054688 87.457031 C 86.015625 87.457031 86.507812 88.125 86.507812 89.449219 C 86.507812 92.132812 84.738281 93.960938 81.199219 94.957031 C 81.199219 92.730469 81.609375 90.925781 82.441406 89.542969 Z M 102.925781 96.398438 C 101.707031 98.753906 100.394531 99.925781 99.023438 99.925781 C 98.460938 99.925781 97.992188 99.691406 97.628906 99.234375 C 97.265625 98.777344 97.078125 98.167969 97.078125 97.417969 C 97.078125 95.449219 97.699219 93.28125 98.929688 90.9375 C 100.160156 88.59375 101.472656 87.421875 102.855469 87.421875 C 103.429688 87.421875 103.898438 87.632812 104.238281 88.078125 C 104.578125 88.511719 104.753906 89.121094 104.753906 89.894531 C 104.753906 91.886719 104.144531 94.054688 102.925781 96.410156 Z M 102.925781 96.398438 "/>
<path style=" stroke:none;fill-rule:nonzero;fill:rgb(100%,100%,100%);fill-opacity:1;" d="M 88.429688 76.03125 C 88.605469 76.277344 88.6875 76.59375 88.6875 76.96875 C 88.6875 77.34375 88.582031 77.683594 88.371094 78 C 88.160156 78.316406 87.855469 78.574219 87.445312 78.75 C 87.046875 78.925781 86.589844 79.019531 86.085938 79.019531 C 85.242188 79.019531 84.609375 78.84375 84.164062 78.492188 C 83.71875 78.140625 83.4375 77.625 83.320312 76.933594 L 84.410156 76.757812 C 84.46875 77.191406 84.644531 77.53125 84.914062 77.753906 C 85.195312 77.988281 85.582031 78.105469 86.085938 78.105469 C 86.589844 78.105469 86.964844 78 87.210938 77.800781 C 87.457031 77.601562 87.574219 77.355469 87.574219 77.074219 C 87.574219 76.828125 87.46875 76.628906 87.246094 76.488281 C 87.09375 76.394531 86.71875 76.265625 86.121094 76.113281 C 85.3125 75.914062 84.761719 75.738281 84.445312 75.585938 C 84.128906 75.433594 83.894531 75.234375 83.742188 74.964844 C 83.589844 74.695312 83.496094 74.414062 83.496094 74.097656 C 83.496094 73.804688 83.566406 73.546875 83.695312 73.300781 C 83.824219 73.054688 84.011719 72.855469 84.234375 72.691406 C 84.410156 72.5625 84.632812 72.457031 84.925781 72.375 C 85.21875 72.292969 85.535156 72.246094 85.875 72.246094 C 86.378906 72.246094 86.824219 72.316406 87.210938 72.46875 C 87.597656 72.609375 87.878906 72.808594 88.066406 73.066406 C 88.253906 73.3125 88.371094 73.652344 88.441406 74.074219 L 87.363281 74.214844 C 87.316406 73.886719 87.175781 73.617188 86.941406 73.429688 C 86.707031 73.242188 86.378906 73.148438 85.945312 73.148438 C 85.441406 73.148438 85.078125 73.230469 84.867188 73.394531 C 84.65625 73.558594 84.539062 73.757812 84.539062 73.980469 C 84.539062 74.121094 84.585938 74.25 84.667969 74.367188 C 84.761719 74.484375 84.902344 74.578125 85.089844 74.660156 C 85.195312 74.695312 85.523438 74.789062 86.0625 74.941406 C 86.835938 75.152344 87.375 75.316406 87.691406 75.445312 C 87.996094 75.574219 88.242188 75.773438 88.417969 76.019531 Z M 93.667969 77.71875 C 93.375 77.988281 93.023438 78.117188 92.589844 78.117188 C 92.050781 78.117188 91.617188 77.917969 91.289062 77.53125 C 90.960938 77.144531 90.785156 76.5 90.785156 75.632812 C 90.785156 74.765625 90.960938 74.144531 91.300781 73.757812 C 91.640625 73.371094 92.097656 73.160156 92.648438 73.160156 C 93.011719 73.160156 93.328125 73.265625 93.585938 73.488281 C 93.84375 73.710938 94.019531 74.039062 94.125 74.472656 L 95.191406 74.308594 C 95.0625 73.652344 94.78125 73.148438 94.335938 72.796875 C 93.890625 72.445312 93.316406 72.269531 92.613281 72.269531 C 92.050781 72.269531 91.546875 72.398438 91.066406 72.667969 C 90.597656 72.925781 90.234375 73.324219 90.011719 73.851562 C 89.777344 74.378906 89.660156 74.988281 89.660156 75.691406 C 89.660156 76.769531 89.929688 77.601562 90.46875 78.175781 C 91.007812 78.75 91.722656 79.042969 92.601562 79.042969 C 93.304688 79.042969 93.902344 78.832031 94.394531 78.410156 C 94.875 77.988281 95.179688 77.402344 95.296875 76.664062 L 94.21875 76.523438 C 94.136719 77.074219 93.960938 77.472656 93.667969 77.742188 Z M 96.234375 78.867188 L 97.335938 78.867188 L 97.335938 72.398438 L 96.234375 72.398438 Z M 96.234375 71.191406 L 97.335938 71.191406 L 97.335938 69.925781 L 96.234375 69.925781 Z M 104.121094 72.386719 L 102.703125 72.386719 L 100.101562 75.023438 L 100.101562 69.925781 L 99 69.925781 L 99 78.855469 L 100.101562 78.855469 L 100.101562 76.289062 L 100.875 75.550781 L 103.019531 78.855469 L 104.378906 78.855469 L 101.648438 74.789062 Z M 105.246094 71.191406 L 106.347656 71.191406 L 106.347656 69.925781 L 105.246094 69.925781 Z M 105.246094 78.867188 L 106.347656 78.867188 L 106.347656 72.398438 L 105.246094 72.398438 Z M 110.414062 77.882812 C 110.214844 77.90625 110.050781 77.929688 109.933594 77.929688 C 109.769531 77.929688 109.640625 77.90625 109.558594 77.847656 C 109.476562 77.789062 109.40625 77.71875 109.371094 77.636719 C 109.335938 77.542969 109.3125 77.34375 109.3125 77.039062 L 109.3125 73.253906 L 110.414062 73.253906 L 110.414062 72.398438 L 109.3125 72.398438 L 109.3125 70.136719 L 108.222656 70.792969 L 108.222656 72.398438 L 107.414062 72.398438 L 107.414062 73.253906 L 108.222656 73.253906 L 108.222656 76.980469 C 108.222656 77.636719 108.269531 78.070312 108.351562 78.269531 C 108.445312 78.480469 108.597656 78.644531 108.808594 78.761719 C 109.03125 78.890625 109.335938 78.949219 109.734375 78.949219 C 109.980469 78.949219 110.25 78.914062 110.566406 78.855469 L 110.402344 77.882812 Z M 110.414062 77.882812 "/>
</g>
</svg>
