<?xml version="1.0" encoding="UTF-8"?>
<svg xmlns="http://www.w3.org/2000/svg" xmlns:xlink="http://www.w3.org/1999/xlink" width="150px" height="150px" viewBox="0 0 150 150" version="1.1">
<g id="surface1">
<path style=" stroke:none;fill-rule:nonzero;fill:rgb(100%,100%,100%);fill-opacity:1;" d="M 75.527344 1.402344 C 65.933594 1.402344 56.433594 3.292969 47.566406 6.964844 C 38.703125 10.636719 30.648438 16.019531 23.863281 22.804688 C 17.078125 29.585938 11.695312 37.640625 8.023438 46.507812 C 4.351562 55.371094 2.460938 64.875 2.460938 74.46875 C 2.460938 84.0625 4.351562 93.566406 8.023438 102.429688 C 11.695312 111.292969 17.078125 119.347656 23.863281 126.132812 C 30.648438 132.917969 38.703125 138.300781 47.566406 141.972656 C 56.433594 145.644531 65.933594 147.535156 75.527344 147.535156 C 85.125 147.535156 94.625 145.644531 103.488281 141.972656 C 112.355469 138.300781 120.410156 132.917969 127.195312 126.132812 C 133.976562 119.347656 139.359375 111.292969 143.03125 102.429688 C 146.585938 93.851562 148.46875 84.675781 148.589844 75.394531 L 148.59375 74.46875 L 148.589844 73.539062 C 148.46875 64.261719 146.585938 55.085938 143.03125 46.507812 C 139.359375 37.640625 133.976562 29.585938 127.195312 22.804688 C 120.410156 16.019531 112.355469 10.636719 103.488281 6.964844 C 94.625 3.292969 85.125 1.402344 75.527344 1.402344 Z M 75.527344 1.402344 "/>
<path style="fill-rule:nonzero;fill:rgb(68.627451%,85.490196%,82.352941%);fill-opacity:1;stroke-width:0.25;stroke-linecap:butt;stroke-linejoin:miter;stroke:rgb(100%,100%,100%);stroke-opacity:1;stroke-miterlimit:4;" d="M 88.722693 63.707856 C 89.996026 63.707856 91.216026 63.201189 92.116026 62.301189 C 93.022693 61.401189 93.529359 60.181189 93.529359 58.907856 C 93.529359 57.634523 93.022693 56.407856 92.116026 55.507856 C 91.216026 54.607856 89.996026 54.101189 88.722693 54.101189 C 87.449359 54.101189 86.229359 54.607856 85.329359 55.507856 C 84.429359 56.407856 83.922693 57.634523 83.922693 58.907856 C 83.922693 60.181189 84.429359 61.401189 85.329359 62.301189 C 86.229359 63.201189 87.449359 63.707856 88.722693 63.707856 Z M 88.722693 63.707856 " transform="matrix(0.585938,0,0,0.585938,6.857797,6.018834)"/>
<path style="fill-rule:nonzero;fill:rgb(68.627451%,85.490196%,82.352941%);fill-opacity:1;stroke-width:0.25;stroke-linecap:butt;stroke-linejoin:miter;stroke:rgb(100%,100%,100%);stroke-opacity:1;stroke-miterlimit:4;" d="M 78.382693 70.947856 C 79.616026 70.947856 80.796026 70.461189 81.669359 69.587856 C 82.542693 68.714523 83.029359 67.534523 83.029359 66.301189 C 83.029359 65.061189 82.542693 63.881189 81.669359 63.007856 C 80.796026 62.134523 79.616026 61.647856 78.382693 61.647856 C 77.149359 61.647856 75.962693 62.134523 75.089359 63.007856 C 74.216026 63.881189 73.729359 65.061189 73.729359 66.301189 C 73.729359 67.534523 74.216026 68.714523 75.089359 69.587856 C 75.962693 70.461189 77.149359 70.947856 78.382693 70.947856 Z M 78.382693 70.947856 " transform="matrix(0.585938,0,0,0.585938,6.857797,6.018834)"/>
<path style="fill-rule:nonzero;fill:rgb(68.627451%,85.490196%,82.352941%);fill-opacity:1;stroke-width:0.25;stroke-linecap:butt;stroke-linejoin:miter;stroke:rgb(100%,100%,100%);stroke-opacity:1;stroke-miterlimit:4;" d="M 68.429359 75.561189 C 69.589359 75.561189 70.709359 75.094523 71.529359 74.274523 C 72.349359 73.454523 72.809359 72.341189 72.809359 71.181189 C 72.809359 70.014523 72.349359 68.901189 71.529359 68.081189 C 70.709359 67.261189 69.589359 66.801189 68.429359 66.801189 C 67.269359 66.801189 66.156026 67.261189 65.336026 68.081189 C 64.516026 68.901189 64.049359 70.014523 64.049359 71.181189 C 64.049359 72.341189 64.516026 73.454523 65.336026 74.274523 C 66.156026 75.094523 67.269359 75.561189 68.429359 75.561189 Z M 68.429359 75.561189 " transform="matrix(0.585938,0,0,0.585938,6.857797,6.018834)"/>
<path style="fill-rule:nonzero;fill:rgb(68.627451%,85.490196%,82.352941%);fill-opacity:1;stroke-width:0.25;stroke-linecap:butt;stroke-linejoin:miter;stroke:rgb(100%,100%,100%);stroke-opacity:1;stroke-miterlimit:4;" d="M 97.449359 57.987856 C 98.762693 57.987856 100.016026 57.467856 100.942693 56.541189 C 101.869359 55.607856 102.396026 54.354523 102.396026 53.041189 C 102.396026 51.727856 101.869359 50.474523 100.942693 49.541189 C 100.016026 48.614523 98.762693 48.094523 97.449359 48.094523 C 96.136026 48.094523 94.876026 48.614523 93.949359 49.541189 C 93.022693 50.474523 92.502693 51.727856 92.502693 53.041189 C 92.502693 54.354523 93.022693 55.607856 93.949359 56.541189 C 94.876026 57.467856 96.136026 57.987856 97.449359 57.987856 Z M 97.449359 57.987856 " transform="matrix(0.585938,0,0,0.585938,6.857797,6.018834)"/>
<path style="fill-rule:nonzero;fill:rgb(68.627451%,85.490196%,82.352941%);fill-opacity:1;stroke-width:0.25;stroke-linecap:butt;stroke-linejoin:miter;stroke:rgb(100%,100%,100%);stroke-opacity:1;stroke-miterlimit:4;" d="M 60.969359 65.174523 C 61.849359 65.174523 62.696026 64.821189 63.316026 64.201189 C 63.942693 63.574523 64.289359 62.727856 64.289359 61.847856 C 64.289359 60.967856 63.942693 60.121189 63.316026 59.501189 C 62.696026 58.874523 61.849359 58.527856 60.969359 58.527856 C 60.082693 58.527856 59.242693 58.874523 58.616026 59.501189 C 57.996026 60.121189 57.642693 60.967856 57.642693 61.847856 C 57.642693 62.727856 57.996026 63.574523 58.616026 64.201189 C 59.242693 64.821189 60.082693 65.174523 60.969359 65.174523 Z M 60.969359 65.174523 " transform="matrix(0.585938,0,0,0.585938,6.857797,6.018834)"/>
<path style="fill-rule:nonzero;fill:rgb(68.627451%,85.490196%,82.352941%);fill-opacity:1;stroke-width:0.25;stroke-linecap:butt;stroke-linejoin:miter;stroke:rgb(100%,100%,100%);stroke-opacity:1;stroke-miterlimit:4;" d="M 52.762693 83.374523 C 53.809359 83.374523 54.809359 82.961189 55.556026 82.221189 C 56.296026 81.481189 56.709359 80.474523 56.709359 79.427856 C 56.709359 78.381189 56.296026 77.374523 55.556026 76.634523 C 54.809359 75.894523 53.809359 75.481189 52.762693 75.481189 C 51.716026 75.481189 50.709359 75.894523 49.969359 76.634523 C 49.229359 77.374523 48.816026 78.381189 48.816026 79.427856 C 48.816026 80.474523 49.229359 81.481189 49.969359 82.221189 C 50.709359 82.961189 51.716026 83.374523 52.762693 83.374523 Z M 52.762693 83.374523 " transform="matrix(0.585938,0,0,0.585938,6.857797,6.018834)"/>
<path style="fill-rule:nonzero;fill:rgb(68.627451%,85.490196%,82.352941%);fill-opacity:1;stroke-width:0.25;stroke-linecap:butt;stroke-linejoin:miter;stroke:rgb(100%,100%,100%);stroke-opacity:1;stroke-miterlimit:4;" d="M 57.782693 52.114523 C 59.042693 52.114523 60.256026 51.614523 61.149359 50.721189 C 62.036026 49.827856 62.542693 48.621189 62.542693 47.361189 C 62.542693 46.094523 62.036026 44.887856 61.149359 43.994523 C 60.256026 43.101189 59.042693 42.601189 57.782693 42.601189 C 56.522693 42.601189 55.309359 43.101189 54.416026 43.994523 C 53.529359 44.887856 53.022693 46.094523 53.022693 47.361189 C 53.022693 48.621189 53.529359 49.827856 54.416026 50.721189 C 55.309359 51.614523 56.522693 52.114523 57.782693 52.114523 Z M 57.782693 52.114523 " transform="matrix(0.585938,0,0,0.585938,6.857797,6.018834)"/>
<path style="fill-rule:nonzero;fill:rgb(68.627451%,85.490196%,82.352941%);fill-opacity:1;stroke-width:0.25;stroke-linecap:butt;stroke-linejoin:miter;stroke:rgb(100%,100%,100%);stroke-opacity:1;stroke-miterlimit:4;" d="M 70.622693 61.021189 C 71.596026 61.021189 72.529359 60.627856 73.222693 59.941189 C 73.909359 59.254523 74.296026 58.314523 74.296026 57.341189 C 74.296026 56.361189 73.909359 55.427856 73.222693 54.741189 C 72.529359 54.047856 71.596026 53.661189 70.622693 53.661189 C 69.642693 53.661189 68.709359 54.047856 68.016026 54.741189 C 67.329359 55.427856 66.942693 56.361189 66.942693 57.341189 C 66.942693 58.314523 67.329359 59.254523 68.016026 59.941189 C 68.709359 60.627856 69.642693 61.021189 70.622693 61.021189 Z M 70.622693 61.021189 " transform="matrix(0.585938,0,0,0.585938,6.857797,6.018834)"/>
<path style="fill-rule:nonzero;fill:rgb(68.627451%,85.490196%,82.352941%);fill-opacity:1;stroke-width:0.25;stroke-linecap:butt;stroke-linejoin:miter;stroke:rgb(100%,100%,100%);stroke-opacity:1;stroke-miterlimit:4;" d="M 134.062693 50.034523 C 135.202693 50.034523 136.302693 49.581189 137.109359 48.774523 C 137.916026 47.967856 138.369359 46.874523 138.369359 45.734523 C 138.369359 44.594523 137.916026 43.501189 137.109359 42.694523 C 136.302693 41.887856 135.202693 41.434523 134.062693 41.434523 C 132.922693 41.434523 131.829359 41.887856 131.022693 42.694523 C 130.216026 43.501189 129.762693 44.594523 129.762693 45.734523 C 129.762693 46.874523 130.216026 47.967856 131.022693 48.774523 C 131.829359 49.581189 132.922693 50.034523 134.062693 50.034523 Z M 134.062693 50.034523 " transform="matrix(0.585938,0,0,0.585938,6.857797,6.018834)"/>
<path style="fill-rule:nonzero;fill:rgb(68.627451%,85.490196%,82.352941%);fill-opacity:1;stroke-width:0.25;stroke-linecap:butt;stroke-linejoin:miter;stroke:rgb(100%,100%,100%);stroke-opacity:1;stroke-miterlimit:4;" d="M 43.829359 72.841189 C 44.522693 72.841189 45.182693 72.567856 45.676026 72.081189 C 46.162693 71.587856 46.436026 70.927856 46.436026 70.234523 C 46.436026 69.547856 46.162693 68.881189 45.676026 68.394523 C 45.182693 67.901189 44.522693 67.627856 43.829359 67.627856 C 43.136026 67.627856 42.476026 67.901189 41.989359 68.394523 C 41.496026 68.881189 41.222693 69.547856 41.222693 70.234523 C 41.222693 70.927856 41.496026 71.587856 41.989359 72.081189 C 42.476026 72.567856 43.136026 72.841189 43.829359 72.841189 Z M 43.829359 72.841189 " transform="matrix(0.585938,0,0,0.585938,6.857797,6.018834)"/>
<path style="fill-rule:nonzero;fill:rgb(68.627451%,85.490196%,82.352941%);fill-opacity:1;stroke-width:0.25;stroke-linecap:butt;stroke-linejoin:miter;stroke:rgb(100%,100%,100%);stroke-opacity:1;stroke-miterlimit:4;" d="M 52.496026 70.387856 C 53.316026 70.387856 54.102693 70.061189 54.682693 69.481189 C 55.262693 68.901189 55.589359 68.114523 55.589359 67.294523 C 55.589359 66.474523 55.262693 65.687856 54.682693 65.107856 C 54.102693 64.527856 53.316026 64.201189 52.496026 64.201189 C 51.676026 64.201189 50.889359 64.527856 50.309359 65.107856 C 49.729359 65.687856 49.402693 66.474523 49.402693 67.294523 C 49.402693 68.114523 49.729359 68.901189 50.309359 69.481189 C 50.889359 70.061189 51.676026 70.387856 52.496026 70.387856 Z M 52.496026 70.387856 " transform="matrix(0.585938,0,0,0.585938,6.857797,6.018834)"/>
<path style="fill-rule:nonzero;fill:rgb(68.627451%,85.490196%,82.352941%);fill-opacity:1;stroke-width:0.25;stroke-linecap:butt;stroke-linejoin:miter;stroke:rgb(100%,100%,100%);stroke-opacity:1;stroke-miterlimit:4;" d="M 36.696026 60.581189 C 37.782693 60.581189 38.829359 60.147856 39.596026 59.381189 C 40.362693 58.614523 40.796026 57.567856 40.796026 56.481189 C 40.796026 55.394523 40.362693 54.347856 39.596026 53.581189 C 38.829359 52.807856 37.782693 52.374523 36.696026 52.374523 C 35.609359 52.374523 34.562693 52.807856 33.796026 53.581189 C 33.022693 54.347856 32.589359 55.394523 32.589359 56.481189 C 32.589359 57.567856 33.022693 58.614523 33.796026 59.381189 C 34.562693 60.147856 35.609359 60.581189 36.696026 60.581189 Z M 36.696026 60.581189 " transform="matrix(0.585938,0,0,0.585938,6.857797,6.018834)"/>
<path style="fill-rule:nonzero;fill:rgb(68.627451%,85.490196%,82.352941%);fill-opacity:1;stroke-width:0.25;stroke-linecap:butt;stroke-linejoin:miter;stroke:rgb(100%,100%,100%);stroke-opacity:1;stroke-miterlimit:4;" d="M 52.836026 58.774523 C 53.402693 58.774523 53.949359 58.547856 54.349359 58.147856 C 54.749359 57.747856 54.976026 57.201189 54.976026 56.634523 C 54.976026 56.067856 54.749359 55.521189 54.349359 55.121189 C 53.949359 54.721189 53.402693 54.494523 52.836026 54.494523 C 52.269359 54.494523 51.722693 54.721189 51.322693 55.121189 C 50.922693 55.521189 50.696026 56.067856 50.696026 56.634523 C 50.696026 57.201189 50.922693 57.747856 51.322693 58.147856 C 51.722693 58.547856 52.269359 58.774523 52.836026 58.774523 Z M 52.836026 58.774523 " transform="matrix(0.585938,0,0,0.585938,6.857797,6.018834)"/>
<path style="fill-rule:nonzero;fill:rgb(68.627451%,85.490196%,82.352941%);fill-opacity:1;stroke-width:0.25;stroke-linecap:butt;stroke-linejoin:miter;stroke:rgb(100%,100%,100%);stroke-opacity:1;stroke-miterlimit:4;" d="M 81.469359 55.441189 C 82.529359 55.441189 83.542693 55.021189 84.296026 54.267856 C 85.042693 53.521189 85.462693 52.507856 85.462693 51.447856 C 85.462693 50.387856 85.042693 49.374523 84.296026 48.627856 C 83.542693 47.874523 82.529359 47.454523 81.469359 47.454523 C 80.409359 47.454523 79.396026 47.874523 78.649359 48.627856 C 77.896026 49.374523 77.476026 50.387856 77.476026 51.447856 C 77.476026 52.507856 77.896026 53.521189 78.649359 54.267856 C 79.396026 55.021189 80.409359 55.441189 81.469359 55.441189 Z M 81.469359 55.441189 " transform="matrix(0.585938,0,0,0.585938,6.857797,6.018834)"/>
<path style="fill-rule:nonzero;fill:rgb(68.627451%,85.490196%,82.352941%);fill-opacity:1;stroke-width:0.25;stroke-linecap:butt;stroke-linejoin:miter;stroke:rgb(100%,100%,100%);stroke-opacity:1;stroke-miterlimit:4;" d="M 111.802693 57.747856 C 112.716026 57.747856 113.589359 57.387856 114.236026 56.741189 C 114.882693 56.094523 115.249359 55.221189 115.249359 54.307856 C 115.249359 53.394523 114.882693 52.514523 114.236026 51.867856 C 113.589359 51.221189 112.716026 50.861189 111.802693 50.861189 C 110.889359 50.861189 110.009359 51.221189 109.362693 51.867856 C 108.716026 52.514523 108.356026 53.394523 108.356026 54.307856 C 108.356026 55.221189 108.716026 56.094523 109.362693 56.741189 C 110.009359 57.387856 110.889359 57.747856 111.802693 57.747856 Z M 111.802693 57.747856 " transform="matrix(0.585938,0,0,0.585938,6.857797,6.018834)"/>
<path style="fill-rule:nonzero;fill:rgb(68.627451%,85.490196%,82.352941%);fill-opacity:1;stroke-width:0.25;stroke-linecap:butt;stroke-linejoin:miter;stroke:rgb(100%,100%,100%);stroke-opacity:1;stroke-miterlimit:4;" d="M 118.109359 36.254523 C 118.702693 36.254523 119.282693 36.014523 119.702693 35.594523 C 120.122693 35.167856 120.362693 34.594523 120.362693 34.001189 C 120.362693 33.401189 120.122693 32.827856 119.702693 32.407856 C 119.282693 31.981189 118.702693 31.741189 118.109359 31.741189 C 117.509359 31.741189 116.936026 31.981189 116.516026 32.407856 C 116.089359 32.827856 115.856026 33.401189 115.856026 34.001189 C 115.856026 34.594523 116.089359 35.167856 116.516026 35.594523 C 116.936026 36.014523 117.509359 36.254523 118.109359 36.254523 Z M 118.109359 36.254523 " transform="matrix(0.585938,0,0,0.585938,6.857797,6.018834)"/>
<path style="fill-rule:nonzero;fill:rgb(68.627451%,85.490196%,82.352941%);fill-opacity:1;stroke-width:0.25;stroke-linecap:butt;stroke-linejoin:miter;stroke:rgb(100%,100%,100%);stroke-opacity:1;stroke-miterlimit:4;" d="M 125.436026 49.234523 C 126.436026 49.234523 127.396026 48.841189 128.102693 48.134523 C 128.809359 47.427856 129.209359 46.467856 129.209359 45.467856 C 129.209359 44.467856 128.809359 43.507856 128.102693 42.801189 C 127.396026 42.094523 126.436026 41.701189 125.436026 41.701189 C 124.442693 41.701189 123.482693 42.094523 122.776026 42.801189 C 122.069359 43.507856 121.669359 44.467856 121.669359 45.467856 C 121.669359 46.467856 122.069359 47.427856 122.776026 48.134523 C 123.482693 48.841189 124.442693 49.234523 125.436026 49.234523 Z M 125.436026 49.234523 " transform="matrix(0.585938,0,0,0.585938,6.857797,6.018834)"/>
<path style="fill-rule:nonzero;fill:rgb(68.627451%,85.490196%,82.352941%);fill-opacity:1;stroke-width:0.25;stroke-linecap:butt;stroke-linejoin:miter;stroke:rgb(100%,100%,100%);stroke-opacity:1;stroke-miterlimit:4;" d="M 87.796026 47.041189 C 88.822693 47.041189 89.809359 46.627856 90.536026 45.901189 C 91.262693 45.181189 91.669359 44.194523 91.669359 43.167856 C 91.669359 42.141189 91.262693 41.154523 90.536026 40.427856 C 89.809359 39.701189 88.822693 39.294523 87.796026 39.294523 C 86.769359 39.294523 85.782693 39.701189 85.056026 40.427856 C 84.329359 41.154523 83.922693 42.141189 83.922693 43.167856 C 83.922693 44.194523 84.329359 45.181189 85.056026 45.901189 C 85.782693 46.627856 86.769359 47.041189 87.796026 47.041189 Z M 87.796026 47.041189 " transform="matrix(0.585938,0,0,0.585938,6.857797,6.018834)"/>
<path style="fill-rule:nonzero;fill:rgb(68.627451%,85.490196%,82.352941%);fill-opacity:1;stroke-width:0.25;stroke-linecap:butt;stroke-linejoin:miter;stroke:rgb(100%,100%,100%);stroke-opacity:1;stroke-miterlimit:4;" d="M 39.296026 84.247856 C 40.129359 84.247856 40.929359 83.921189 41.516026 83.327856 C 42.102693 82.741189 42.436026 81.941189 42.436026 81.107856 C 42.436026 80.274523 42.102693 79.474523 41.516026 78.887856 C 40.929359 78.294523 40.129359 77.967856 39.296026 77.967856 C 38.462693 77.967856 37.662693 78.294523 37.069359 78.887856 C 36.482693 79.474523 36.149359 80.274523 36.149359 81.107856 C 36.149359 81.941189 36.482693 82.741189 37.069359 83.327856 C 37.662693 83.921189 38.462693 84.247856 39.296026 84.247856 Z M 39.296026 84.247856 " transform="matrix(0.585938,0,0,0.585938,6.857797,6.018834)"/>
<path style="fill-rule:nonzero;fill:rgb(68.627451%,85.490196%,82.352941%);fill-opacity:1;stroke-width:0.25;stroke-linecap:butt;stroke-linejoin:miter;stroke:rgb(100%,100%,100%);stroke-opacity:1;stroke-miterlimit:4;" d="M 142.776026 50.861189 C 144.042693 50.861189 145.262693 50.354523 146.156026 49.461189 C 147.056026 48.561189 147.562693 47.341189 147.562693 46.074523 C 147.562693 44.807856 147.056026 43.587856 146.156026 42.694523 C 145.262693 41.794523 144.042693 41.287856 142.776026 41.287856 C 141.509359 41.287856 140.289359 41.794523 139.389359 42.694523 C 138.496026 43.587856 137.989359 44.807856 137.989359 46.074523 C 137.989359 47.341189 138.496026 48.561189 139.389359 49.461189 C 140.289359 50.354523 141.509359 50.861189 142.776026 50.861189 Z M 142.776026 50.861189 " transform="matrix(0.585938,0,0,0.585938,6.857797,6.018834)"/>
<path style="fill-rule:nonzero;fill:rgb(68.627451%,85.490196%,82.352941%);fill-opacity:1;stroke-width:0.25;stroke-linecap:butt;stroke-linejoin:miter;stroke:rgb(100%,100%,100%);stroke-opacity:1;stroke-miterlimit:4;" d="M 96.602693 47.621189 C 97.769359 47.621189 98.889359 47.154523 99.709359 46.334523 C 100.536026 45.507856 100.996026 44.394523 100.996026 43.227856 C 100.996026 42.061189 100.536026 40.947856 99.709359 40.121189 C 98.889359 39.294523 97.769359 38.834523 96.602693 38.834523 C 95.442693 38.834523 94.322693 39.294523 93.502693 40.121189 C 92.676026 40.947856 92.216026 42.061189 92.216026 43.227856 C 92.216026 44.394523 92.676026 45.507856 93.502693 46.334523 C 94.322693 47.154523 95.442693 47.621189 96.602693 47.621189 Z M 96.602693 47.621189 " transform="matrix(0.585938,0,0,0.585938,6.857797,6.018834)"/>
<path style="fill-rule:nonzero;fill:rgb(68.627451%,85.490196%,82.352941%);fill-opacity:1;stroke-width:0.25;stroke-linecap:butt;stroke-linejoin:miter;stroke:rgb(100%,100%,100%);stroke-opacity:1;stroke-miterlimit:4;" d="M 45.576026 51.161189 C 46.656026 51.161189 47.689359 50.727856 48.456026 49.967856 C 49.216026 49.201189 49.649359 48.167856 49.649359 47.087856 C 49.649359 46.007856 49.216026 44.974523 48.456026 44.207856 C 47.689359 43.441189 46.656026 43.014523 45.576026 43.014523 C 44.496026 43.014523 43.462693 43.441189 42.696026 44.207856 C 41.936026 44.974523 41.502693 46.007856 41.502693 47.087856 C 41.502693 48.167856 41.936026 49.201189 42.696026 49.967856 C 43.462693 50.727856 44.496026 51.161189 45.576026 51.161189 Z M 45.576026 51.161189 " transform="matrix(0.585938,0,0,0.585938,6.857797,6.018834)"/>
<path style="fill-rule:nonzero;fill:rgb(68.627451%,85.490196%,82.352941%);fill-opacity:1;stroke-width:0.25;stroke-linecap:butt;stroke-linejoin:miter;stroke:rgb(100%,100%,100%);stroke-opacity:1;stroke-miterlimit:4;" d="M 68.236026 40.647856 C 69.489359 40.647856 70.682693 40.147856 71.569359 39.267856 C 72.449359 38.381189 72.942693 37.187856 72.942693 35.941189 C 72.942693 34.687856 72.449359 33.494523 71.569359 32.607856 C 70.682693 31.727856 69.489359 31.227856 68.236026 31.227856 C 66.989359 31.227856 65.789359 31.727856 64.909359 32.607856 C 64.029359 33.494523 63.529359 34.687856 63.529359 35.941189 C 63.529359 37.187856 64.029359 38.381189 64.909359 39.267856 C 65.789359 40.147856 66.989359 40.647856 68.236026 40.647856 Z M 68.236026 40.647856 " transform="matrix(0.585938,0,0,0.585938,6.857797,6.018834)"/>
<path style="fill-rule:nonzero;fill:rgb(68.627451%,85.490196%,82.352941%);fill-opacity:1;stroke-width:0.25;stroke-linecap:butt;stroke-linejoin:miter;stroke:rgb(100%,100%,100%);stroke-opacity:1;stroke-miterlimit:4;" d="M 156.562693 46.987856 C 157.336026 46.987856 158.076026 46.681189 158.616026 46.134523 C 159.162693 45.587856 159.469359 44.847856 159.469359 44.074523 C 159.469359 43.307856 159.162693 42.567856 158.616026 42.021189 C 158.076026 41.474523 157.336026 41.167856 156.562693 41.167856 C 155.789359 41.167856 155.049359 41.474523 154.509359 42.021189 C 153.962693 42.567856 153.656026 43.307856 153.656026 44.074523 C 153.656026 44.847856 153.962693 45.587856 154.509359 46.134523 C 155.049359 46.681189 155.789359 46.987856 156.562693 46.987856 Z M 156.562693 46.987856 " transform="matrix(0.585938,0,0,0.585938,6.857797,6.018834)"/>
<path style="fill-rule:nonzero;fill:rgb(68.627451%,85.490196%,82.352941%);fill-opacity:1;stroke-width:0.25;stroke-linecap:butt;stroke-linejoin:miter;stroke:rgb(100%,100%,100%);stroke-opacity:1;stroke-miterlimit:4;" d="M 55.276026 35.107856 C 56.256026 35.107856 57.196026 34.721189 57.889359 34.027856 C 58.582693 33.334523 58.969359 32.394523 58.969359 31.414523 C 58.969359 30.427856 58.582693 29.487856 57.889359 28.794523 C 57.196026 28.101189 56.256026 27.714523 55.276026 27.714523 C 54.289359 27.714523 53.349359 28.101189 52.656026 28.794523 C 51.962693 29.487856 51.576026 30.427856 51.576026 31.414523 C 51.576026 32.394523 51.962693 33.334523 52.656026 34.027856 C 53.349359 34.721189 54.289359 35.107856 55.276026 35.107856 Z M 55.276026 35.107856 " transform="matrix(0.585938,0,0,0.585938,6.857797,6.018834)"/>
<path style="fill-rule:nonzero;fill:rgb(68.627451%,85.490196%,82.352941%);fill-opacity:1;stroke-width:0.25;stroke-linecap:butt;stroke-linejoin:miter;stroke:rgb(100%,100%,100%);stroke-opacity:1;stroke-miterlimit:4;" d="M 71.956026 51.681189 C 72.789359 51.681189 73.589359 51.347856 74.182693 50.754523 C 74.769359 50.167856 75.102693 49.367856 75.102693 48.527856 C 75.102693 47.694523 74.769359 46.894523 74.182693 46.301189 C 73.589359 45.714523 72.789359 45.381189 71.956026 45.381189 C 71.122693 45.381189 70.316026 45.714523 69.729359 46.301189 C 69.136026 46.894523 68.809359 47.694523 68.809359 48.527856 C 68.809359 49.367856 69.136026 50.167856 69.729359 50.754523 C 70.316026 51.347856 71.122693 51.681189 71.956026 51.681189 Z M 71.956026 51.681189 " transform="matrix(0.585938,0,0,0.585938,6.857797,6.018834)"/>
<path style="fill-rule:nonzero;fill:rgb(68.627451%,85.490196%,82.352941%);fill-opacity:1;stroke-width:0.25;stroke-linecap:butt;stroke-linejoin:miter;stroke:rgb(100%,100%,100%);stroke-opacity:1;stroke-miterlimit:4;" d="M 79.496026 44.847856 C 80.342693 44.847856 81.156026 44.507856 81.756026 43.907856 C 82.356026 43.307856 82.696026 42.494523 82.696026 41.647856 C 82.696026 40.801189 82.356026 39.987856 81.756026 39.387856 C 81.156026 38.787856 80.342693 38.447856 79.496026 38.447856 C 78.649359 38.447856 77.836026 38.787856 77.236026 39.387856 C 76.636026 39.987856 76.296026 40.801189 76.296026 41.647856 C 76.296026 42.494523 76.636026 43.307856 77.236026 43.907856 C 77.836026 44.507856 78.649359 44.847856 79.496026 44.847856 Z M 79.496026 44.847856 " transform="matrix(0.585938,0,0,0.585938,6.857797,6.018834)"/>
<path style="fill-rule:nonzero;fill:rgb(68.627451%,85.490196%,82.352941%);fill-opacity:1;stroke-width:0.25;stroke-linecap:butt;stroke-linejoin:miter;stroke:rgb(100%,100%,100%);stroke-opacity:1;stroke-miterlimit:4;" d="M 30.096026 52.967856 C 30.949359 52.967856 31.769359 52.634523 32.376026 52.027856 C 32.976026 51.421189 33.316026 50.601189 33.316026 49.747856 C 33.316026 48.894523 32.976026 48.074523 32.376026 47.474523 C 31.769359 46.867856 30.949359 46.527856 30.096026 46.527856 C 29.242693 46.527856 28.422693 46.867856 27.822693 47.474523 C 27.216026 48.074523 26.876026 48.894523 26.876026 49.747856 C 26.876026 50.601189 27.216026 51.421189 27.822693 52.027856 C 28.422693 52.634523 29.242693 52.967856 30.096026 52.967856 Z M 30.096026 52.967856 " transform="matrix(0.585938,0,0,0.585938,6.857797,6.018834)"/>
<path style="fill-rule:nonzero;fill:rgb(68.627451%,85.490196%,82.352941%);fill-opacity:1;stroke-width:0.25;stroke-linecap:butt;stroke-linejoin:miter;stroke:rgb(100%,100%,100%);stroke-opacity:1;stroke-miterlimit:4;" d="M 38.962693 40.447856 C 39.749359 40.447856 40.502693 40.141189 41.056026 39.587856 C 41.609359 39.027856 41.922693 38.281189 41.922693 37.494523 C 41.922693 36.714523 41.609359 35.961189 41.056026 35.407856 C 40.502693 34.854523 39.749359 34.541189 38.962693 34.541189 C 38.182693 34.541189 37.429359 34.854523 36.876026 35.407856 C 36.322693 35.961189 36.009359 36.714523 36.009359 37.494523 C 36.009359 38.281189 36.322693 39.027856 36.876026 39.587856 C 37.429359 40.141189 38.182693 40.447856 38.962693 40.447856 Z M 38.962693 40.447856 " transform="matrix(0.585938,0,0,0.585938,6.857797,6.018834)"/>
<path style="fill-rule:nonzero;fill:rgb(68.627451%,85.490196%,82.352941%);fill-opacity:1;stroke-width:0.25;stroke-linecap:butt;stroke-linejoin:miter;stroke:rgb(100%,100%,100%);stroke-opacity:1;stroke-miterlimit:4;" d="M 107.122693 49.621189 C 107.776026 49.621189 108.409359 49.361189 108.869359 48.894523 C 109.336026 48.427856 109.596026 47.801189 109.596026 47.147856 C 109.596026 46.487856 109.336026 45.861189 108.869359 45.394523 C 108.409359 44.927856 107.776026 44.667856 107.122693 44.667856 C 106.462693 44.667856 105.836026 44.927856 105.369359 45.394523 C 104.902693 45.861189 104.642693 46.487856 104.642693 47.147856 C 104.642693 47.801189 104.902693 48.427856 105.369359 48.894523 C 105.836026 49.361189 106.462693 49.621189 107.122693 49.621189 Z M 107.122693 49.621189 " transform="matrix(0.585938,0,0,0.585938,6.857797,6.018834)"/>
<path style="fill-rule:nonzero;fill:rgb(68.627451%,85.490196%,82.352941%);fill-opacity:1;stroke-width:0.25;stroke-linecap:butt;stroke-linejoin:miter;stroke:rgb(100%,100%,100%);stroke-opacity:1;stroke-miterlimit:4;" d="M 27.829359 69.274523 C 28.909359 69.274523 29.949359 68.841189 30.722693 68.074523 C 31.489359 67.307856 31.916026 66.267856 31.916026 65.181189 C 31.916026 64.094523 31.489359 63.054523 30.722693 62.287856 C 29.949359 61.521189 28.909359 61.087856 27.829359 61.087856 C 26.742693 61.087856 25.702693 61.521189 24.929359 62.287856 C 24.162693 63.054523 23.736026 64.094523 23.736026 65.181189 C 23.736026 66.267856 24.162693 67.307856 24.929359 68.074523 C 25.702693 68.841189 26.742693 69.274523 27.829359 69.274523 Z M 27.829359 69.274523 " transform="matrix(0.585938,0,0,0.585938,6.857797,6.018834)"/>
<path style="fill-rule:nonzero;fill:rgb(68.627451%,85.490196%,82.352941%);fill-opacity:1;stroke-width:0.25;stroke-linecap:butt;stroke-linejoin:miter;stroke:rgb(100%,100%,100%);stroke-opacity:1;stroke-miterlimit:4;" d="M 18.689359 62.374523 C 19.502693 62.374523 20.282693 62.047856 20.862693 61.467856 C 21.436026 60.894523 21.762693 60.114523 21.762693 59.294523 C 21.762693 58.481189 21.436026 57.694523 20.862693 57.121189 C 20.282693 56.541189 19.502693 56.221189 18.689359 56.221189 C 17.869359 56.221189 17.089359 56.541189 16.509359 57.121189 C 15.936026 57.694523 15.609359 58.481189 15.609359 59.294523 C 15.609359 60.114523 15.936026 60.894523 16.509359 61.467856 C 17.089359 62.047856 17.869359 62.374523 18.689359 62.374523 Z M 18.689359 62.374523 " transform="matrix(0.585938,0,0,0.585938,6.857797,6.018834)"/>
<path style="fill-rule:nonzero;fill:rgb(68.627451%,85.490196%,82.352941%);fill-opacity:1;stroke-width:0.25;stroke-linecap:butt;stroke-linejoin:miter;stroke:rgb(100%,100%,100%);stroke-opacity:1;stroke-miterlimit:4;" d="M 115.562693 48.901189 C 116.382693 48.901189 117.169359 48.574523 117.756026 47.994523 C 118.336026 47.414523 118.656026 46.627856 118.656026 45.807856 C 118.656026 44.987856 118.336026 44.201189 117.756026 43.621189 C 117.169359 43.041189 116.382693 42.714523 115.562693 42.714523 C 114.742693 42.714523 113.956026 43.041189 113.376026 43.621189 C 112.796026 44.201189 112.469359 44.987856 112.469359 45.807856 C 112.469359 46.627856 112.796026 47.414523 113.376026 47.994523 C 113.956026 48.574523 114.742693 48.901189 115.562693 48.901189 Z M 115.562693 48.901189 " transform="matrix(0.585938,0,0,0.585938,6.857797,6.018834)"/>
<path style="fill-rule:nonzero;fill:rgb(68.627451%,85.490196%,82.352941%);fill-opacity:1;stroke-width:0.25;stroke-linecap:butt;stroke-linejoin:miter;stroke:rgb(100%,100%,100%);stroke-opacity:1;stroke-miterlimit:4;" d="M 45.209359 64.967856 C 46.476026 64.967856 47.689359 64.467856 48.582693 63.574523 C 49.476026 62.681189 49.982693 61.467856 49.982693 60.201189 C 49.982693 58.934523 49.476026 57.721189 48.582693 56.827856 C 47.689359 55.934523 46.476026 55.427856 45.209359 55.427856 C 43.942693 55.427856 42.729359 55.934523 41.836026 56.827856 C 40.942693 57.721189 40.436026 58.934523 40.436026 60.201189 C 40.436026 61.467856 40.942693 62.681189 41.836026 63.574523 C 42.729359 64.467856 43.942693 64.967856 45.209359 64.967856 Z M 45.209359 64.967856 " transform="matrix(0.585938,0,0,0.585938,6.857797,6.018834)"/>
<path style="fill-rule:nonzero;fill:rgb(68.627451%,85.490196%,82.352941%);fill-opacity:1;stroke-width:0.25;stroke-linecap:butt;stroke-linejoin:miter;stroke:rgb(100%,100%,100%);stroke-opacity:1;stroke-miterlimit:4;" d="M 150.302693 43.281189 C 151.576026 43.281189 152.789359 42.774523 153.689359 41.881189 C 154.582693 40.981189 155.089359 39.767856 155.089359 38.494523 C 155.089359 37.227856 154.582693 36.014523 153.689359 35.114523 C 152.789359 34.221189 151.576026 33.714523 150.302693 33.714523 C 149.036026 33.714523 147.822693 34.221189 146.922693 35.114523 C 146.029359 36.014523 145.522693 37.227856 145.522693 38.494523 C 145.522693 39.767856 146.029359 40.981189 146.922693 41.881189 C 147.822693 42.774523 149.036026 43.281189 150.302693 43.281189 Z M 150.302693 43.281189 " transform="matrix(0.585938,0,0,0.585938,6.857797,6.018834)"/>
<path style="fill-rule:nonzero;fill:rgb(68.627451%,85.490196%,82.352941%);fill-opacity:1;stroke-width:0.25;stroke-linecap:butt;stroke-linejoin:miter;stroke:rgb(100%,100%,100%);stroke-opacity:1;stroke-miterlimit:4;" d="M 30.362693 88.347856 C 31.096026 88.347856 31.802693 88.054523 32.322693 87.534523 C 32.849359 87.014523 33.136026 86.307856 33.136026 85.567856 C 33.136026 84.834523 32.849359 84.127856 32.322693 83.607856 C 31.802693 83.087856 31.096026 82.794523 30.362693 82.794523 C 29.629359 82.794523 28.922693 83.087856 28.402693 83.607856 C 27.882693 84.127856 27.589359 84.834523 27.589359 85.567856 C 27.589359 86.307856 27.882693 87.014523 28.402693 87.534523 C 28.922693 88.054523 29.629359 88.347856 30.362693 88.347856 Z M 30.362693 88.347856 " transform="matrix(0.585938,0,0,0.585938,6.857797,6.018834)"/>
<path style="fill-rule:nonzero;fill:rgb(68.627451%,85.490196%,82.352941%);fill-opacity:1;stroke-width:0.25;stroke-linecap:butt;stroke-linejoin:miter;stroke:rgb(100%,100%,100%);stroke-opacity:1;stroke-miterlimit:4;" d="M 99.702693 34.201189 C 100.716026 34.201189 101.682693 33.794523 102.402693 33.081189 C 103.116026 32.367856 103.522693 31.394523 103.522693 30.381189 C 103.522693 29.367856 103.116026 28.401189 102.402693 27.681189 C 101.682693 26.967856 100.716026 26.567856 99.702693 26.567856 C 98.689359 26.567856 97.722693 26.967856 97.002693 27.681189 C 96.289359 28.401189 95.889359 29.367856 95.889359 30.381189 C 95.889359 31.394523 96.289359 32.367856 97.002693 33.081189 C 97.722693 33.794523 98.689359 34.201189 99.702693 34.201189 Z M 99.702693 34.201189 " transform="matrix(0.585938,0,0,0.585938,6.857797,6.018834)"/>
<path style="fill-rule:nonzero;fill:rgb(68.627451%,85.490196%,82.352941%);fill-opacity:1;stroke-width:0.25;stroke-linecap:butt;stroke-linejoin:miter;stroke:rgb(100%,100%,100%);stroke-opacity:1;stroke-miterlimit:4;" d="M 178.996026 39.454523 C 180.029359 39.454523 181.022693 39.041189 181.756026 38.314523 C 182.482693 37.581189 182.896026 36.587856 182.896026 35.554523 C 182.896026 34.521189 182.482693 33.527856 181.756026 32.801189 C 181.022693 32.067856 180.029359 31.654523 178.996026 31.654523 C 177.962693 31.654523 176.969359 32.067856 176.242693 32.801189 C 175.509359 33.527856 175.096026 34.521189 175.096026 35.554523 C 175.096026 36.587856 175.509359 37.581189 176.242693 38.314523 C 176.969359 39.041189 177.962693 39.454523 178.996026 39.454523 Z M 178.996026 39.454523 " transform="matrix(0.585938,0,0,0.585938,6.857797,6.018834)"/>
<path style="fill-rule:nonzero;fill:rgb(68.627451%,85.490196%,82.352941%);fill-opacity:1;stroke-width:0.25;stroke-linecap:butt;stroke-linejoin:miter;stroke:rgb(100%,100%,100%);stroke-opacity:1;stroke-miterlimit:4;" d="M 127.136026 37.467856 C 127.956026 37.467856 128.749359 37.141189 129.329359 36.561189 C 129.909359 35.974523 130.236026 35.187856 130.236026 34.361189 C 130.236026 33.541189 129.909359 32.747856 129.329359 32.167856 C 128.749359 31.587856 127.956026 31.261189 127.136026 31.261189 C 126.309359 31.261189 125.522693 31.587856 124.936026 32.167856 C 124.356026 32.747856 124.029359 33.541189 124.029359 34.361189 C 124.029359 35.187856 124.356026 35.974523 124.936026 36.561189 C 125.522693 37.141189 126.309359 37.467856 127.136026 37.467856 Z M 127.136026 37.467856 " transform="matrix(0.585938,0,0,0.585938,6.857797,6.018834)"/>
<path style="fill-rule:nonzero;fill:rgb(68.627451%,85.490196%,82.352941%);fill-opacity:1;stroke-width:0.25;stroke-linecap:butt;stroke-linejoin:miter;stroke:rgb(100%,100%,100%);stroke-opacity:1;stroke-miterlimit:4;" d="M 59.456026 78.421189 C 60.529359 78.421189 61.556026 77.994523 62.316026 77.234523 C 63.076026 76.474523 63.502693 75.447856 63.502693 74.374523 C 63.502693 73.301189 63.076026 72.274523 62.316026 71.514523 C 61.556026 70.754523 60.529359 70.327856 59.456026 70.327856 C 58.382693 70.327856 57.349359 70.754523 56.589359 71.514523 C 55.836026 72.274523 55.409359 73.301189 55.409359 74.374523 C 55.409359 75.447856 55.836026 76.474523 56.589359 77.234523 C 57.349359 77.994523 58.382693 78.421189 59.456026 78.421189 Z M 59.456026 78.421189 " transform="matrix(0.585938,0,0,0.585938,6.857797,6.018834)"/>
<path style="fill-rule:nonzero;fill:rgb(68.627451%,85.490196%,82.352941%);fill-opacity:1;stroke-width:0.25;stroke-linecap:butt;stroke-linejoin:miter;stroke:rgb(100%,100%,100%);stroke-opacity:1;stroke-miterlimit:4;" d="M 137.662693 38.801189 C 138.689359 38.801189 139.676026 38.394523 140.402693 37.667856 C 141.129359 36.941189 141.536026 35.954523 141.536026 34.927856 C 141.536026 33.901189 141.129359 32.914523 140.402693 32.187856 C 139.676026 31.461189 138.689359 31.054523 137.662693 31.054523 C 136.636026 31.054523 135.649359 31.461189 134.922693 32.187856 C 134.196026 32.914523 133.789359 33.901189 133.789359 34.927856 C 133.789359 35.954523 134.196026 36.941189 134.922693 37.667856 C 135.649359 38.394523 136.636026 38.801189 137.662693 38.801189 Z M 137.662693 38.801189 " transform="matrix(0.585938,0,0,0.585938,6.857797,6.018834)"/>
<path style="fill-rule:nonzero;fill:rgb(68.627451%,85.490196%,82.352941%);fill-opacity:1;stroke-width:0.25;stroke-linecap:butt;stroke-linejoin:miter;stroke:rgb(100%,100%,100%);stroke-opacity:1;stroke-miterlimit:4;" d="M 165.102693 42.581189 C 165.949359 42.581189 166.769359 42.241189 167.369359 41.641189 C 167.976026 41.041189 168.309359 40.221189 168.309359 39.367856 C 168.309359 38.514523 167.976026 37.701189 167.369359 37.101189 C 166.769359 36.494523 165.949359 36.161189 165.102693 36.161189 C 164.249359 36.161189 163.429359 36.494523 162.829359 37.101189 C 162.229359 37.701189 161.889359 38.514523 161.889359 39.367856 C 161.889359 40.221189 162.229359 41.041189 162.829359 41.641189 C 163.429359 42.241189 164.249359 42.581189 165.102693 42.581189 Z M 165.102693 42.581189 " transform="matrix(0.585938,0,0,0.585938,6.857797,6.018834)"/>
<path style="fill-rule:nonzero;fill:rgb(68.627451%,85.490196%,82.352941%);fill-opacity:1;stroke-width:0.25;stroke-linecap:butt;stroke-linejoin:miter;stroke:rgb(100%,100%,100%);stroke-opacity:1;stroke-miterlimit:4;" d="M 195.416026 49.541189 C 196.182693 49.541189 196.916026 49.234523 197.462693 48.694523 C 198.002693 48.147856 198.309359 47.414523 198.309359 46.647856 C 198.309359 45.881189 198.002693 45.141189 197.462693 44.601189 C 196.916026 44.054523 196.182693 43.754523 195.416026 43.754523 C 194.649359 43.754523 193.909359 44.054523 193.369359 44.601189 C 192.822693 45.141189 192.522693 45.881189 192.522693 46.647856 C 192.522693 47.414523 192.822693 48.147856 193.369359 48.694523 C 193.909359 49.234523 194.649359 49.541189 195.416026 49.541189 Z M 195.416026 49.541189 " transform="matrix(0.585938,0,0,0.585938,6.857797,6.018834)"/>
<path style="fill-rule:nonzero;fill:rgb(68.627451%,85.490196%,82.352941%);fill-opacity:1;stroke-width:0.25;stroke-linecap:butt;stroke-linejoin:miter;stroke:rgb(100%,100%,100%);stroke-opacity:1;stroke-miterlimit:4;" d="M 87.096026 28.274523 C 87.762693 28.274523 88.396026 28.007856 88.862693 27.541189 C 89.329359 27.074523 89.596026 26.441189 89.596026 25.774523 C 89.596026 25.114523 89.329359 24.481189 88.862693 24.014523 C 88.396026 23.547856 87.762693 23.281189 87.096026 23.281189 C 86.436026 23.281189 85.802693 23.547856 85.336026 24.014523 C 84.869359 24.481189 84.602693 25.114523 84.602693 25.774523 C 84.602693 26.441189 84.869359 27.074523 85.336026 27.541189 C 85.802693 28.007856 86.436026 28.274523 87.096026 28.274523 Z M 87.096026 28.274523 " transform="matrix(0.585938,0,0,0.585938,6.857797,6.018834)"/>
<path style="fill-rule:nonzero;fill:rgb(68.627451%,85.490196%,82.352941%);fill-opacity:1;stroke-width:0.25;stroke-linecap:butt;stroke-linejoin:miter;stroke:rgb(100%,100%,100%);stroke-opacity:1;stroke-miterlimit:4;" d="M 109.782693 21.421189 C 110.749359 21.421189 111.676026 21.041189 112.362693 20.354523 C 113.049359 19.667856 113.436026 18.741189 113.436026 17.774523 C 113.436026 16.801189 113.049359 15.874523 112.362693 15.187856 C 111.676026 14.501189 110.749359 14.121189 109.782693 14.121189 C 108.816026 14.121189 107.882693 14.501189 107.196026 15.187856 C 106.516026 15.874523 106.129359 16.801189 106.129359 17.774523 C 106.129359 18.741189 106.516026 19.667856 107.196026 20.354523 C 107.882693 21.041189 108.816026 21.421189 109.782693 21.421189 Z M 109.782693 21.421189 " transform="matrix(0.585938,0,0,0.585938,6.857797,6.018834)"/>
<path style="fill-rule:nonzero;fill:rgb(68.627451%,85.490196%,82.352941%);fill-opacity:1;stroke-width:0.25;stroke-linecap:butt;stroke-linejoin:miter;stroke:rgb(100%,100%,100%);stroke-opacity:1;stroke-miterlimit:4;" d="M 194.769359 41.001189 C 196.042693 41.001189 197.269359 40.494523 198.169359 39.594523 C 199.076026 38.687856 199.582693 37.467856 199.582693 36.187856 C 199.582693 34.914523 199.076026 33.687856 198.169359 32.787856 C 197.269359 31.887856 196.042693 31.381189 194.769359 31.381189 C 193.489359 31.381189 192.269359 31.887856 191.369359 32.787856 C 190.462693 33.687856 189.956026 34.914523 189.956026 36.187856 C 189.956026 37.467856 190.462693 38.687856 191.369359 39.594523 C 192.269359 40.494523 193.489359 41.001189 194.769359 41.001189 Z M 194.769359 41.001189 " transform="matrix(0.585938,0,0,0.585938,6.857797,6.018834)"/>
<path style="fill-rule:nonzero;fill:rgb(68.627451%,85.490196%,82.352941%);fill-opacity:1;stroke-width:0.25;stroke-linecap:butt;stroke-linejoin:miter;stroke:rgb(100%,100%,100%);stroke-opacity:1;stroke-miterlimit:4;" d="M 104.269359 42.967856 C 105.476026 42.967856 106.636026 42.487856 107.482693 41.634523 C 108.336026 40.781189 108.816026 39.627856 108.816026 38.421189 C 108.816026 37.214523 108.336026 36.061189 107.482693 35.207856 C 106.636026 34.354523 105.476026 33.874523 104.269359 33.874523 C 103.062693 33.874523 101.909359 34.354523 101.056026 35.207856 C 100.202693 36.061189 99.722693 37.214523 99.722693 38.421189 C 99.722693 39.627856 100.202693 40.781189 101.056026 41.634523 C 101.909359 42.487856 103.062693 42.967856 104.269359 42.967856 Z M 104.269359 42.967856 " transform="matrix(0.585938,0,0,0.585938,6.857797,6.018834)"/>
<path style="fill-rule:nonzero;fill:rgb(68.627451%,85.490196%,82.352941%);fill-opacity:1;stroke-width:0.25;stroke-linecap:butt;stroke-linejoin:miter;stroke:rgb(100%,100%,100%);stroke-opacity:1;stroke-miterlimit:4;" d="M 121.096026 25.927856 C 122.296026 25.927856 123.449359 25.447856 124.302693 24.601189 C 125.149359 23.747856 125.629359 22.594523 125.629359 21.387856 C 125.629359 20.187856 125.149359 19.034523 124.302693 18.181189 C 123.449359 17.334523 122.296026 16.854523 121.096026 16.854523 C 119.889359 16.854523 118.736026 17.334523 117.882693 18.181189 C 117.036026 19.034523 116.556026 20.187856 116.556026 21.387856 C 116.556026 22.594523 117.036026 23.747856 117.882693 24.601189 C 118.736026 25.447856 119.889359 25.927856 121.096026 25.927856 Z M 121.096026 25.927856 " transform="matrix(0.585938,0,0,0.585938,6.857797,6.018834)"/>
<path style="fill-rule:nonzero;fill:rgb(68.627451%,85.490196%,82.352941%);fill-opacity:1;stroke-width:0.25;stroke-linecap:butt;stroke-linejoin:miter;stroke:rgb(100%,100%,100%);stroke-opacity:1;stroke-miterlimit:4;" d="M 160.416026 31.454523 C 161.662693 31.454523 162.856026 30.954523 163.736026 30.074523 C 164.622693 29.194523 165.116026 28.001189 165.116026 26.754523 C 165.116026 25.507856 164.622693 24.314523 163.736026 23.427856 C 162.856026 22.547856 161.662693 22.054523 160.416026 22.054523 C 159.169359 22.054523 157.976026 22.547856 157.096026 23.427856 C 156.209359 24.314523 155.716026 25.507856 155.716026 26.754523 C 155.716026 28.001189 156.209359 29.194523 157.096026 30.074523 C 157.976026 30.954523 159.169359 31.454523 160.416026 31.454523 Z M 160.416026 31.454523 " transform="matrix(0.585938,0,0,0.585938,6.857797,6.018834)"/>
<path style="fill-rule:nonzero;fill:rgb(68.627451%,85.490196%,82.352941%);fill-opacity:1;stroke-width:0.25;stroke-linecap:butt;stroke-linejoin:miter;stroke:rgb(100%,100%,100%);stroke-opacity:1;stroke-miterlimit:4;" d="M 209.062693 60.994523 C 210.242693 60.994523 211.376026 60.527856 212.209359 59.687856 C 213.042693 58.854523 213.516026 57.727856 213.516026 56.547856 C 213.516026 55.367856 213.042693 54.234523 212.209359 53.401189 C 211.376026 52.567856 210.242693 52.094523 209.062693 52.094523 C 207.882693 52.094523 206.756026 52.567856 205.916026 53.401189 C 205.082693 54.234523 204.616026 55.367856 204.616026 56.547856 C 204.616026 57.727856 205.082693 58.854523 205.916026 59.687856 C 206.756026 60.527856 207.882693 60.994523 209.062693 60.994523 Z M 209.062693 60.994523 " transform="matrix(0.585938,0,0,0.585938,6.857797,6.018834)"/>
<path style="fill-rule:nonzero;fill:rgb(68.627451%,85.490196%,82.352941%);fill-opacity:1;stroke-width:0.25;stroke-linecap:butt;stroke-linejoin:miter;stroke:rgb(100%,100%,100%);stroke-opacity:1;stroke-miterlimit:4;" d="M 108.756026 7.134523 C 109.429359 7.134523 110.076026 6.867856 110.549359 6.387856 C 111.029359 5.914523 111.296026 5.267856 111.296026 4.594523 C 111.296026 3.921189 111.029359 3.274523 110.549359 2.794523 C 110.076026 2.321189 109.429359 2.054523 108.756026 2.054523 C 108.082693 2.054523 107.436026 2.321189 106.956026 2.794523 C 106.482693 3.274523 106.216026 3.921189 106.216026 4.594523 C 106.216026 5.267856 106.482693 5.914523 106.956026 6.387856 C 107.436026 6.867856 108.082693 7.134523 108.756026 7.134523 Z M 108.756026 7.134523 " transform="matrix(0.585938,0,0,0.585938,6.857797,6.018834)"/>
<path style="fill-rule:nonzero;fill:rgb(68.627451%,85.490196%,82.352941%);fill-opacity:1;stroke-width:0.25;stroke-linecap:butt;stroke-linejoin:miter;stroke:rgb(100%,100%,100%);stroke-opacity:1;stroke-miterlimit:4;" d="M 149.316026 34.094523 C 150.449359 34.094523 151.536026 33.647856 152.336026 32.847856 C 153.136026 32.047856 153.582693 30.961189 153.582693 29.834523 C 153.582693 28.701189 153.136026 27.614523 152.336026 26.814523 C 151.536026 26.014523 150.449359 25.567856 149.316026 25.567856 C 148.189359 25.567856 147.102693 26.014523 146.302693 26.814523 C 145.502693 27.614523 145.049359 28.701189 145.049359 29.834523 C 145.049359 30.961189 145.502693 32.047856 146.302693 32.847856 C 147.102693 33.647856 148.189359 34.094523 149.316026 34.094523 Z M 149.316026 34.094523 " transform="matrix(0.585938,0,0,0.585938,6.857797,6.018834)"/>
<path style="fill-rule:nonzero;fill:rgb(68.627451%,85.490196%,82.352941%);fill-opacity:1;stroke-width:0.25;stroke-linecap:butt;stroke-linejoin:miter;stroke:rgb(100%,100%,100%);stroke-opacity:1;stroke-miterlimit:4;" d="M 143.609359 25.901189 C 144.522693 25.901189 145.402693 25.541189 146.042693 24.894523 C 146.689359 24.247856 147.056026 23.374523 147.056026 22.461189 C 147.056026 21.547856 146.689359 20.674523 146.042693 20.027856 C 145.402693 19.381189 144.522693 19.021189 143.609359 19.021189 C 142.696026 19.021189 141.822693 19.381189 141.176026 20.027856 C 140.529359 20.674523 140.169359 21.547856 140.169359 22.461189 C 140.169359 23.374523 140.529359 24.247856 141.176026 24.894523 C 141.822693 25.541189 142.696026 25.901189 143.609359 25.901189 Z M 143.609359 25.901189 " transform="matrix(0.585938,0,0,0.585938,6.857797,6.018834)"/>
<path style="fill-rule:nonzero;fill:rgb(68.627451%,85.490196%,82.352941%);fill-opacity:1;stroke-width:0.25;stroke-linecap:butt;stroke-linejoin:miter;stroke:rgb(100%,100%,100%);stroke-opacity:1;stroke-miterlimit:4;" d="M 126.309359 18.407856 C 127.482693 18.407856 128.602693 17.941189 129.436026 17.114523 C 130.262693 16.287856 130.729359 15.161189 130.729359 13.987856 C 130.729359 12.821189 130.262693 11.694523 129.436026 10.867856 C 128.602693 10.034523 127.482693 9.574523 126.309359 9.574523 C 125.136026 9.574523 124.016026 10.034523 123.182693 10.867856 C 122.356026 11.694523 121.889359 12.821189 121.889359 13.987856 C 121.889359 15.161189 122.356026 16.287856 123.182693 17.114523 C 124.016026 17.941189 125.136026 18.407856 126.309359 18.407856 Z M 126.309359 18.407856 " transform="matrix(0.585938,0,0,0.585938,6.857797,6.018834)"/>
<path style="fill-rule:nonzero;fill:rgb(68.627451%,85.490196%,82.352941%);fill-opacity:1;stroke-width:0.25;stroke-linecap:butt;stroke-linejoin:miter;stroke:rgb(100%,100%,100%);stroke-opacity:1;stroke-miterlimit:4;" d="M 77.576026 36.421189 C 78.889359 36.421189 80.149359 35.901189 81.082693 34.974523 C 82.009359 34.041189 82.529359 32.781189 82.529359 31.467856 C 82.529359 30.154523 82.009359 28.901189 81.082693 27.967856 C 80.149359 27.041189 78.889359 26.521189 77.576026 26.521189 C 76.262693 26.521189 75.002693 27.041189 74.076026 27.967856 C 73.149359 28.901189 72.622693 30.154523 72.622693 31.467856 C 72.622693 32.781189 73.149359 34.041189 74.076026 34.974523 C 75.002693 35.901189 76.262693 36.421189 77.576026 36.421189 Z M 77.576026 36.421189 " transform="matrix(0.585938,0,0,0.585938,6.857797,6.018834)"/>
<path style="fill-rule:nonzero;fill:rgb(68.627451%,85.490196%,82.352941%);fill-opacity:1;stroke-width:0.25;stroke-linecap:butt;stroke-linejoin:miter;stroke:rgb(100%,100%,100%);stroke-opacity:1;stroke-miterlimit:4;" d="M 47.022693 29.127856 C 47.742693 29.127856 48.429359 28.847856 48.929359 28.341189 C 49.436026 27.834523 49.722693 27.147856 49.722693 26.434523 C 49.722693 25.721189 49.436026 25.034523 48.929359 24.527856 C 48.429359 24.021189 47.742693 23.734523 47.022693 23.734523 C 46.309359 23.734523 45.622693 24.021189 45.116026 24.527856 C 44.609359 25.034523 44.329359 25.721189 44.329359 26.434523 C 44.329359 27.147856 44.609359 27.834523 45.116026 28.341189 C 45.622693 28.847856 46.309359 29.127856 47.022693 29.127856 Z M 47.022693 29.127856 " transform="matrix(0.585938,0,0,0.585938,6.857797,6.018834)"/>
<path style="fill-rule:nonzero;fill:rgb(68.627451%,85.490196%,82.352941%);fill-opacity:1;stroke-width:0.25;stroke-linecap:butt;stroke-linejoin:miter;stroke:rgb(100%,100%,100%);stroke-opacity:1;stroke-miterlimit:4;" d="M 59.849359 27.321189 C 60.776026 27.321189 61.662693 26.954523 62.316026 26.301189 C 62.976026 25.641189 63.342693 24.754523 63.342693 23.827856 C 63.342693 22.901189 62.976026 22.007856 62.316026 21.354523 C 61.662693 20.701189 60.776026 20.327856 59.849359 20.327856 C 58.916026 20.327856 58.029359 20.701189 57.376026 21.354523 C 56.716026 22.007856 56.349359 22.901189 56.349359 23.827856 C 56.349359 24.754523 56.716026 25.641189 57.376026 26.301189 C 58.029359 26.954523 58.916026 27.321189 59.849359 27.321189 Z M 59.849359 27.321189 " transform="matrix(0.585938,0,0,0.585938,6.857797,6.018834)"/>
<path style="fill-rule:nonzero;fill:rgb(68.627451%,85.490196%,82.352941%);fill-opacity:1;stroke-width:0.25;stroke-linecap:butt;stroke-linejoin:miter;stroke:rgb(100%,100%,100%);stroke-opacity:1;stroke-miterlimit:4;" d="M 177.309359 48.501189 C 178.456026 48.501189 179.549359 48.047856 180.356026 47.241189 C 181.169359 46.434523 181.622693 45.334523 181.622693 44.194523 C 181.622693 43.047856 181.169359 41.954523 180.356026 41.147856 C 179.549359 40.341189 178.456026 39.881189 177.309359 39.881189 C 176.169359 39.881189 175.076026 40.341189 174.262693 41.147856 C 173.456026 41.954523 173.002693 43.047856 173.002693 44.194523 C 173.002693 45.334523 173.456026 46.434523 174.262693 47.241189 C 175.076026 48.047856 176.169359 48.501189 177.309359 48.501189 Z M 177.309359 48.501189 " transform="matrix(0.585938,0,0,0.585938,6.857797,6.018834)"/>
<path style="fill-rule:nonzero;fill:rgb(68.627451%,85.490196%,82.352941%);fill-opacity:1;stroke-width:0.25;stroke-linecap:butt;stroke-linejoin:miter;stroke:rgb(100%,100%,100%);stroke-opacity:1;stroke-miterlimit:4;" d="M 130.036026 25.787856 C 130.669359 25.787856 131.276026 25.534523 131.729359 25.087856 C 132.176026 24.641189 132.429359 24.027856 132.429359 23.394523 C 132.429359 22.761189 132.176026 22.154523 131.729359 21.701189 C 131.276026 21.254523 130.669359 21.001189 130.036026 21.001189 C 129.402693 21.001189 128.789359 21.254523 128.342693 21.701189 C 127.896026 22.154523 127.642693 22.761189 127.642693 23.394523 C 127.642693 24.027856 127.896026 24.641189 128.342693 25.087856 C 128.789359 25.534523 129.402693 25.787856 130.036026 25.787856 Z M 130.036026 25.787856 " transform="matrix(0.585938,0,0,0.585938,6.857797,6.018834)"/>
<path style="fill-rule:nonzero;fill:rgb(68.627451%,85.490196%,82.352941%);fill-opacity:1;stroke-width:0.25;stroke-linecap:butt;stroke-linejoin:miter;stroke:rgb(100%,100%,100%);stroke-opacity:1;stroke-miterlimit:4;" d="M 79.222693 26.267856 C 80.422693 26.267856 81.576026 25.794523 82.429359 24.941189 C 83.282693 24.087856 83.756026 22.934523 83.756026 21.734523 C 83.756026 20.527856 83.282693 19.374523 82.429359 18.521189 C 81.576026 17.667856 80.422693 17.194523 79.222693 17.194523 C 78.016026 17.194523 76.862693 17.667856 76.009359 18.521189 C 75.162693 19.374523 74.682693 20.527856 74.682693 21.734523 C 74.682693 22.934523 75.162693 24.087856 76.009359 24.941189 C 76.862693 25.794523 78.016026 26.267856 79.222693 26.267856 Z M 79.222693 26.267856 " transform="matrix(0.585938,0,0,0.585938,6.857797,6.018834)"/>
<path style="fill-rule:nonzero;fill:rgb(68.627451%,85.490196%,82.352941%);fill-opacity:1;stroke-width:0.25;stroke-linecap:butt;stroke-linejoin:miter;stroke:rgb(100%,100%,100%);stroke-opacity:1;stroke-miterlimit:4;" d="M 12.622693 81.907856 C 13.669359 81.907856 14.669359 81.487856 15.409359 80.747856 C 16.149359 80.007856 16.569359 79.007856 16.569359 77.961189 C 16.569359 76.914523 16.149359 75.907856 15.409359 75.167856 C 14.669359 74.427856 13.669359 74.014523 12.622693 74.014523 C 11.576026 74.014523 10.569359 74.427856 9.829359 75.167856 C 9.089359 75.907856 8.676026 76.914523 8.676026 77.961189 C 8.676026 79.007856 9.089359 80.007856 9.829359 80.747856 C 10.569359 81.487856 11.576026 81.907856 12.622693 81.907856 Z M 12.622693 81.907856 " transform="matrix(0.585938,0,0,0.585938,6.857797,6.018834)"/>
<path style="fill-rule:nonzero;fill:rgb(68.627451%,85.490196%,82.352941%);fill-opacity:1;stroke-width:0.25;stroke-linecap:butt;stroke-linejoin:miter;stroke:rgb(100%,100%,100%);stroke-opacity:1;stroke-miterlimit:4;" d="M 23.136026 83.267856 C 24.349359 83.267856 25.516026 82.781189 26.376026 81.921189 C 27.236026 81.067856 27.716026 79.901189 27.716026 78.681189 C 27.716026 77.467856 27.236026 76.301189 26.376026 75.441189 C 25.516026 74.581189 24.349359 74.101189 23.136026 74.101189 C 21.916026 74.101189 20.749359 74.581189 19.889359 75.441189 C 19.029359 76.301189 18.549359 77.467856 18.549359 78.681189 C 18.549359 79.901189 19.029359 81.067856 19.889359 81.921189 C 20.749359 82.781189 21.916026 83.267856 23.136026 83.267856 Z M 23.136026 83.267856 " transform="matrix(0.585938,0,0,0.585938,6.857797,6.018834)"/>
<path style="fill-rule:nonzero;fill:rgb(68.627451%,85.490196%,82.352941%);fill-opacity:1;stroke-width:0.25;stroke-linecap:butt;stroke-linejoin:miter;stroke:rgb(100%,100%,100%);stroke-opacity:1;stroke-miterlimit:4;" d="M 60.182693 42.847856 C 61.356026 42.847856 62.476026 42.381189 63.302693 41.554523 C 64.129359 40.727856 64.596026 39.607856 64.596026 38.434523 C 64.596026 37.267856 64.129359 36.141189 63.302693 35.314523 C 62.476026 34.487856 61.356026 34.021189 60.182693 34.021189 C 59.009359 34.021189 57.889359 34.487856 57.062693 35.314523 C 56.236026 36.141189 55.769359 37.267856 55.769359 38.434523 C 55.769359 39.607856 56.236026 40.727856 57.062693 41.554523 C 57.889359 42.381189 59.009359 42.847856 60.182693 42.847856 Z M 60.182693 42.847856 " transform="matrix(0.585938,0,0,0.585938,6.857797,6.018834)"/>
<path style="fill-rule:nonzero;fill:rgb(68.627451%,85.490196%,82.352941%);fill-opacity:1;stroke-width:0.25;stroke-linecap:butt;stroke-linejoin:miter;stroke:rgb(100%,100%,100%);stroke-opacity:1;stroke-miterlimit:4;" d="M 13.916026 72.081189 C 14.822693 72.081189 15.696026 71.721189 16.336026 71.081189 C 16.976026 70.441189 17.336026 69.567856 17.336026 68.661189 C 17.336026 67.754523 16.976026 66.887856 16.336026 66.247856 C 15.696026 65.607856 14.822693 65.241189 13.916026 65.241189 C 13.009359 65.241189 12.142693 65.607856 11.502693 66.247856 C 10.856026 66.887856 10.496026 67.754523 10.496026 68.661189 C 10.496026 69.567856 10.856026 70.441189 11.502693 71.081189 C 12.142693 71.721189 13.009359 72.081189 13.916026 72.081189 Z M 13.916026 72.081189 " transform="matrix(0.585938,0,0,0.585938,6.857797,6.018834)"/>
<path style="fill-rule:nonzero;fill:rgb(68.627451%,85.490196%,82.352941%);fill-opacity:1;stroke-width:0.25;stroke-linecap:butt;stroke-linejoin:miter;stroke:rgb(100%,100%,100%);stroke-opacity:1;stroke-miterlimit:4;" d="M 151.809359 22.441189 C 152.802693 22.441189 153.756026 22.047856 154.456026 21.347856 C 155.156026 20.641189 155.549359 19.687856 155.549359 18.701189 C 155.549359 17.707856 155.156026 16.754523 154.456026 16.054523 C 153.756026 15.347856 152.802693 14.954523 151.809359 14.954523 C 150.816026 14.954523 149.862693 15.347856 149.162693 16.054523 C 148.462693 16.754523 148.069359 17.707856 148.069359 18.701189 C 148.069359 19.687856 148.462693 20.641189 149.162693 21.347856 C 149.862693 22.047856 150.816026 22.441189 151.809359 22.441189 Z M 151.809359 22.441189 " transform="matrix(0.585938,0,0,0.585938,6.857797,6.018834)"/>
<path style="fill-rule:nonzero;fill:rgb(68.627451%,85.490196%,82.352941%);fill-opacity:1;stroke-width:0.25;stroke-linecap:butt;stroke-linejoin:miter;stroke:rgb(100%,100%,100%);stroke-opacity:1;stroke-miterlimit:4;" d="M 47.629359 38.154523 C 48.536026 38.154523 49.402693 37.794523 50.036026 37.154523 C 50.676026 36.521189 51.036026 35.654523 51.036026 34.747856 C 51.036026 33.847856 50.676026 32.981189 50.036026 32.341189 C 49.402693 31.701189 48.536026 31.341189 47.629359 31.341189 C 46.729359 31.341189 45.862693 31.701189 45.222693 32.341189 C 44.582693 32.981189 44.222693 33.847856 44.222693 34.747856 C 44.222693 35.654523 44.582693 36.521189 45.222693 37.154523 C 45.862693 37.794523 46.729359 38.154523 47.629359 38.154523 Z M 47.629359 38.154523 " transform="matrix(0.585938,0,0,0.585938,6.857797,6.018834)"/>
<path style="fill-rule:nonzero;fill:rgb(68.627451%,85.490196%,82.352941%);fill-opacity:1;stroke-width:0.25;stroke-linecap:butt;stroke-linejoin:miter;stroke:rgb(100%,100%,100%);stroke-opacity:1;stroke-miterlimit:4;" d="M 31.122693 79.174523 C 32.389359 79.174523 33.602693 78.667856 34.496026 77.774523 C 35.396026 76.881189 35.896026 75.661189 35.896026 74.394523 C 35.896026 73.127856 35.396026 71.914523 34.496026 71.021189 C 33.602693 70.121189 32.389359 69.621189 31.122693 69.621189 C 29.856026 69.621189 28.642693 70.121189 27.742693 71.021189 C 26.849359 71.914523 26.342693 73.127856 26.342693 74.394523 C 26.342693 75.661189 26.849359 76.881189 27.742693 77.774523 C 28.642693 78.667856 29.856026 79.174523 31.122693 79.174523 Z M 31.122693 79.174523 " transform="matrix(0.585938,0,0,0.585938,6.857797,6.018834)"/>
<path style="fill-rule:nonzero;fill:rgb(68.627451%,85.490196%,82.352941%);fill-opacity:1;stroke-width:0.25;stroke-linecap:butt;stroke-linejoin:miter;stroke:rgb(100%,100%,100%);stroke-opacity:1;stroke-miterlimit:4;" d="M 186.382693 46.674523 C 187.622693 46.674523 188.809359 46.181189 189.689359 45.301189 C 190.569359 44.421189 191.056026 43.234523 191.056026 41.994523 C 191.056026 40.747856 190.569359 39.561189 189.689359 38.681189 C 188.809359 37.807856 187.622693 37.314523 186.382693 37.314523 C 185.136026 37.314523 183.949359 37.807856 183.069359 38.681189 C 182.196026 39.561189 181.702693 40.747856 181.702693 41.994523 C 181.702693 43.234523 182.196026 44.421189 183.069359 45.301189 C 183.949359 46.181189 185.136026 46.674523 186.382693 46.674523 Z M 186.382693 46.674523 " transform="matrix(0.585938,0,0,0.585938,6.857797,6.018834)"/>
<path style="fill-rule:nonzero;fill:rgb(68.627451%,85.490196%,82.352941%);fill-opacity:1;stroke-width:0.25;stroke-linecap:butt;stroke-linejoin:miter;stroke:rgb(100%,100%,100%);stroke-opacity:1;stroke-miterlimit:4;" d="M 203.249359 46.114523 C 204.102693 46.114523 204.922693 45.774523 205.529359 45.174523 C 206.129359 44.567856 206.469359 43.747856 206.469359 42.894523 C 206.469359 42.041189 206.129359 41.221189 205.529359 40.621189 C 204.922693 40.014523 204.102693 39.674523 203.249359 39.674523 C 202.396026 39.674523 201.576026 40.014523 200.976026 40.621189 C 200.369359 41.221189 200.036026 42.041189 200.036026 42.894523 C 200.036026 43.747856 200.369359 44.567856 200.976026 45.174523 C 201.576026 45.774523 202.396026 46.114523 203.249359 46.114523 Z M 203.249359 46.114523 " transform="matrix(0.585938,0,0,0.585938,6.857797,6.018834)"/>
<path style="fill-rule:nonzero;fill:rgb(68.627451%,85.490196%,82.352941%);fill-opacity:1;stroke-width:0.25;stroke-linecap:butt;stroke-linejoin:miter;stroke:rgb(100%,100%,100%);stroke-opacity:1;stroke-miterlimit:4;" d="M 91.982693 38.147856 C 92.936026 38.147856 93.849359 37.767856 94.522693 37.101189 C 95.189359 36.427856 95.569359 35.514523 95.569359 34.561189 C 95.569359 33.614523 95.189359 32.701189 94.522693 32.027856 C 93.849359 31.354523 92.936026 30.981189 91.982693 30.981189 C 91.036026 30.981189 90.122693 31.354523 89.449359 32.027856 C 88.776026 32.701189 88.402693 33.614523 88.402693 34.561189 C 88.402693 35.514523 88.776026 36.427856 89.449359 37.101189 C 90.122693 37.767856 91.036026 38.147856 91.982693 38.147856 Z M 91.982693 38.147856 " transform="matrix(0.585938,0,0,0.585938,6.857797,6.018834)"/>
<path style="fill-rule:nonzero;fill:rgb(68.627451%,85.490196%,82.352941%);fill-opacity:1;stroke-width:0.25;stroke-linecap:butt;stroke-linejoin:miter;stroke:rgb(100%,100%,100%);stroke-opacity:1;stroke-miterlimit:4;" d="M 170.676026 34.121189 C 171.476026 34.121189 172.236026 33.801189 172.802693 33.241189 C 173.362693 32.674523 173.682693 31.914523 173.682693 31.114523 C 173.682693 30.321189 173.362693 29.554523 172.802693 28.994523 C 172.236026 28.427856 171.476026 28.114523 170.676026 28.114523 C 169.882693 28.114523 169.116026 28.427856 168.556026 28.994523 C 167.989359 29.554523 167.676026 30.321189 167.676026 31.114523 C 167.676026 31.914523 167.989359 32.674523 168.556026 33.241189 C 169.116026 33.801189 169.882693 34.121189 170.676026 34.121189 Z M 170.676026 34.121189 " transform="matrix(0.585938,0,0,0.585938,6.857797,6.018834)"/>
<path style="fill-rule:nonzero;fill:rgb(68.627451%,85.490196%,82.352941%);fill-opacity:1;stroke-width:0.25;stroke-linecap:butt;stroke-linejoin:miter;stroke:rgb(100%,100%,100%);stroke-opacity:1;stroke-miterlimit:4;" d="M 169.389359 26.594523 C 170.689359 26.594523 171.929359 26.081189 172.849359 25.161189 C 173.769359 24.241189 174.282693 22.994523 174.282693 21.701189 C 174.282693 20.401189 173.769359 19.154523 172.849359 18.234523 C 171.929359 17.314523 170.689359 16.801189 169.389359 16.801189 C 168.089359 16.801189 166.842693 17.314523 165.922693 18.234523 C 165.009359 19.154523 164.489359 20.401189 164.489359 21.701189 C 164.489359 22.994523 165.009359 24.241189 165.922693 25.161189 C 166.842693 26.081189 168.089359 26.594523 169.389359 26.594523 Z M 169.389359 26.594523 " transform="matrix(0.585938,0,0,0.585938,6.857797,6.018834)"/>
<path style="fill-rule:nonzero;fill:rgb(68.627451%,85.490196%,82.352941%);fill-opacity:1;stroke-width:0.25;stroke-linecap:butt;stroke-linejoin:miter;stroke:rgb(100%,100%,100%);stroke-opacity:1;stroke-miterlimit:4;" d="M 109.016026 34.941189 C 110.176026 34.941189 111.289359 34.481189 112.109359 33.661189 C 112.929359 32.834523 113.389359 31.721189 113.389359 30.561189 C 113.389359 29.401189 112.929359 28.287856 112.109359 27.467856 C 111.289359 26.647856 110.176026 26.187856 109.016026 26.187856 C 107.856026 26.187856 106.736026 26.647856 105.916026 27.467856 C 105.096026 28.287856 104.636026 29.401189 104.636026 30.561189 C 104.636026 31.721189 105.096026 32.834523 105.916026 33.661189 C 106.736026 34.481189 107.856026 34.941189 109.016026 34.941189 Z M 109.016026 34.941189 " transform="matrix(0.585938,0,0,0.585938,6.857797,6.018834)"/>
<path style="fill-rule:nonzero;fill:rgb(68.627451%,85.490196%,82.352941%);fill-opacity:1;stroke-width:0.25;stroke-linecap:butt;stroke-linejoin:miter;stroke:rgb(100%,100%,100%);stroke-opacity:1;stroke-miterlimit:4;" d="M 201.529359 56.101189 C 202.529359 56.101189 203.482693 55.707856 204.189359 55.001189 C 204.889359 54.301189 205.289359 53.341189 205.289359 52.347856 C 205.289359 51.354523 204.889359 50.394523 204.189359 49.694523 C 203.482693 48.987856 202.529359 48.594523 201.529359 48.594523 C 200.536026 48.594523 199.576026 48.987856 198.876026 49.694523 C 198.169359 50.394523 197.776026 51.354523 197.776026 52.347856 C 197.776026 53.341189 198.169359 54.301189 198.876026 55.001189 C 199.576026 55.707856 200.536026 56.101189 201.529359 56.101189 Z M 201.529359 56.101189 " transform="matrix(0.585938,0,0,0.585938,6.857797,6.018834)"/>
<path style="fill-rule:nonzero;fill:rgb(68.627451%,85.490196%,82.352941%);fill-opacity:1;stroke-width:0.25;stroke-linecap:butt;stroke-linejoin:miter;stroke:rgb(100%,100%,100%);stroke-opacity:1;stroke-miterlimit:4;" d="M 22.236026 90.014523 C 22.816026 90.014523 23.376026 89.781189 23.789359 89.367856 C 24.202693 88.954523 24.436026 88.394523 24.436026 87.814523 C 24.436026 87.227856 24.202693 86.667856 23.789359 86.254523 C 23.376026 85.841189 22.816026 85.607856 22.236026 85.607856 C 21.649359 85.607856 21.089359 85.841189 20.676026 86.254523 C 20.262693 86.667856 20.029359 87.227856 20.029359 87.814523 C 20.029359 88.394523 20.262693 88.954523 20.676026 89.367856 C 21.089359 89.781189 21.649359 90.014523 22.236026 90.014523 Z M 22.236026 90.014523 " transform="matrix(0.585938,0,0,0.585938,6.857797,6.018834)"/>
<path style="fill-rule:nonzero;fill:rgb(68.627451%,85.490196%,82.352941%);fill-opacity:1;stroke-width:0.25;stroke-linecap:butt;stroke-linejoin:miter;stroke:rgb(100%,100%,100%);stroke-opacity:1;stroke-miterlimit:4;" d="M 68.529359 28.934523 C 69.616026 28.934523 70.662693 28.501189 71.436026 27.727856 C 72.209359 26.961189 72.642693 25.914523 72.642693 24.821189 C 72.642693 23.727856 72.209359 22.681189 71.436026 21.914523 C 70.662693 21.141189 69.616026 20.707856 68.529359 20.707856 C 67.436026 20.707856 66.389359 21.141189 65.622693 21.914523 C 64.849359 22.681189 64.416026 23.727856 64.416026 24.821189 C 64.416026 25.914523 64.849359 26.961189 65.622693 27.727856 C 66.389359 28.501189 67.436026 28.934523 68.529359 28.934523 Z M 68.529359 28.934523 " transform="matrix(0.585938,0,0,0.585938,6.857797,6.018834)"/>
<path style="fill-rule:nonzero;fill:rgb(68.627451%,85.490196%,82.352941%);fill-opacity:1;stroke-width:0.25;stroke-linecap:butt;stroke-linejoin:miter;stroke:rgb(100%,100%,100%);stroke-opacity:1;stroke-miterlimit:4;" d="M 98.549359 22.227856 C 99.329359 22.227856 100.076026 21.921189 100.622693 21.367856 C 101.176026 20.814523 101.489359 20.067856 101.489359 19.287856 C 101.489359 18.507856 101.176026 17.761189 100.622693 17.214523 C 100.076026 16.661189 99.329359 16.354523 98.549359 16.354523 C 97.769359 16.354523 97.022693 16.661189 96.469359 17.214523 C 95.922693 17.761189 95.609359 18.507856 95.609359 19.287856 C 95.609359 20.067856 95.922693 20.814523 96.469359 21.367856 C 97.022693 21.921189 97.769359 22.227856 98.549359 22.227856 Z M 98.549359 22.227856 " transform="matrix(0.585938,0,0,0.585938,6.857797,6.018834)"/>
<path style="fill-rule:nonzero;fill:rgb(68.627451%,85.490196%,82.352941%);fill-opacity:1;stroke-width:0.25;stroke-linecap:butt;stroke-linejoin:miter;stroke:rgb(100%,100%,100%);stroke-opacity:1;stroke-miterlimit:4;" d="M 183.802693 31.274523 C 184.782693 31.274523 185.722693 30.881189 186.416026 30.187856 C 187.109359 29.501189 187.502693 28.554523 187.502693 27.574523 C 187.502693 26.594523 187.109359 25.654523 186.416026 24.961189 C 185.722693 24.267856 184.782693 23.881189 183.802693 23.881189 C 182.822693 23.881189 181.882693 24.267856 181.189359 24.961189 C 180.496026 25.654523 180.109359 26.594523 180.109359 27.574523 C 180.109359 28.554523 180.496026 29.501189 181.189359 30.187856 C 181.882693 30.881189 182.822693 31.274523 183.802693 31.274523 Z M 183.802693 31.274523 " transform="matrix(0.585938,0,0,0.585938,6.857797,6.018834)"/>
<path style="fill-rule:nonzero;fill:rgb(68.627451%,85.490196%,82.352941%);fill-opacity:1;stroke-width:0.25;stroke-linecap:butt;stroke-linejoin:miter;stroke:rgb(100%,100%,100%);stroke-opacity:1;stroke-miterlimit:4;" d="M 90.342693 16.294523 C 91.556026 16.294523 92.729359 15.814523 93.589359 14.947856 C 94.449359 14.087856 94.936026 12.921189 94.936026 11.701189 C 94.936026 10.481189 94.449359 9.314523 93.589359 8.447856 C 92.729359 7.587856 91.556026 7.101189 90.342693 7.101189 C 89.122693 7.101189 87.949359 7.587856 87.089359 8.447856 C 86.229359 9.314523 85.742693 10.481189 85.742693 11.701189 C 85.742693 12.921189 86.229359 14.087856 87.089359 14.947856 C 87.949359 15.814523 89.122693 16.294523 90.342693 16.294523 Z M 90.342693 16.294523 " transform="matrix(0.585938,0,0,0.585938,6.857797,6.018834)"/>
<path style="fill-rule:nonzero;fill:rgb(68.627451%,85.490196%,82.352941%);fill-opacity:1;stroke-width:0.25;stroke-linecap:butt;stroke-linejoin:miter;stroke:rgb(100%,100%,100%);stroke-opacity:1;stroke-miterlimit:4;" d="M 162.449359 20.687856 C 163.576026 20.687856 164.656026 20.234523 165.449359 19.441189 C 166.249359 18.641189 166.696026 17.561189 166.696026 16.434523 C 166.696026 15.307856 166.249359 14.227856 165.449359 13.427856 C 164.656026 12.634523 163.576026 12.187856 162.449359 12.187856 C 161.322693 12.187856 160.236026 12.634523 159.442693 13.427856 C 158.642693 14.227856 158.196026 15.307856 158.196026 16.434523 C 158.196026 17.561189 158.642693 18.641189 159.442693 19.441189 C 160.236026 20.234523 161.322693 20.687856 162.449359 20.687856 Z M 162.449359 20.687856 " transform="matrix(0.585938,0,0,0.585938,6.857797,6.018834)"/>
<path style="fill-rule:nonzero;fill:rgb(68.627451%,85.490196%,82.352941%);fill-opacity:1;stroke-width:0.25;stroke-linecap:butt;stroke-linejoin:miter;stroke:rgb(100%,100%,100%);stroke-opacity:1;stroke-miterlimit:4;" d="M 69.622693 16.154523 C 70.522693 16.154523 71.389359 15.794523 72.029359 15.154523 C 72.669359 14.521189 73.029359 13.654523 73.029359 12.747856 C 73.029359 11.847856 72.669359 10.981189 72.029359 10.341189 C 71.389359 9.701189 70.522693 9.347856 69.622693 9.347856 C 68.722693 9.347856 67.856026 9.701189 67.216026 10.341189 C 66.576026 10.981189 66.216026 11.847856 66.216026 12.747856 C 66.216026 13.654523 66.576026 14.521189 67.216026 15.154523 C 67.856026 15.794523 68.722693 16.154523 69.622693 16.154523 Z M 69.622693 16.154523 " transform="matrix(0.585938,0,0,0.585938,6.857797,6.018834)"/>
<path style="fill-rule:nonzero;fill:rgb(68.627451%,85.490196%,82.352941%);fill-opacity:1;stroke-width:0.25;stroke-linecap:butt;stroke-linejoin:miter;stroke:rgb(100%,100%,100%);stroke-opacity:1;stroke-miterlimit:4;" d="M 77.802693 13.521189 C 78.796026 13.521189 79.749359 13.127856 80.456026 12.421189 C 81.162693 11.714523 81.556026 10.761189 81.556026 9.767856 C 81.556026 8.767856 81.162693 7.814523 80.456026 7.107856 C 79.749359 6.407856 78.796026 6.007856 77.802693 6.007856 C 76.802693 6.007856 75.849359 6.407856 75.142693 7.107856 C 74.436026 7.814523 74.042693 8.767856 74.042693 9.767856 C 74.042693 10.761189 74.436026 11.714523 75.142693 12.421189 C 75.849359 13.127856 76.802693 13.521189 77.802693 13.521189 Z M 77.802693 13.521189 " transform="matrix(0.585938,0,0,0.585938,6.857797,6.018834)"/>
<path style="fill-rule:nonzero;fill:rgb(68.627451%,85.490196%,82.352941%);fill-opacity:1;stroke-width:0.25;stroke-linecap:butt;stroke-linejoin:miter;stroke:rgb(100%,100%,100%);stroke-opacity:1;stroke-miterlimit:4;" d="M 135.696026 8.814523 C 136.862693 8.814523 137.982693 8.347856 138.809359 7.521189 C 139.636026 6.694523 140.102693 5.574523 140.102693 4.407856 C 140.102693 3.241189 139.636026 2.114523 138.809359 1.287856 C 137.982693 0.461189 136.862693 0.00118933 135.696026 0.00118933 C 134.522693 0.00118933 133.402693 0.461189 132.576026 1.287856 C 131.749359 2.114523 131.289359 3.241189 131.289359 4.407856 C 131.289359 5.574523 131.749359 6.694523 132.576026 7.521189 C 133.402693 8.347856 134.522693 8.814523 135.696026 8.814523 Z M 135.696026 8.814523 " transform="matrix(0.585938,0,0,0.585938,6.857797,6.018834)"/>
<path style="fill-rule:nonzero;fill:rgb(68.627451%,85.490196%,82.352941%);fill-opacity:1;stroke-width:0.25;stroke-linecap:butt;stroke-linejoin:miter;stroke:rgb(100%,100%,100%);stroke-opacity:1;stroke-miterlimit:4;" d="M 117.989359 9.747856 C 118.896026 9.747856 119.769359 9.387856 120.416026 8.741189 C 121.056026 8.101189 121.416026 7.227856 121.416026 6.321189 C 121.416026 5.407856 121.056026 4.534523 120.416026 3.894523 C 119.769359 3.247856 118.896026 2.887856 117.989359 2.887856 C 117.076026 2.887856 116.202693 3.247856 115.562693 3.894523 C 114.922693 4.534523 114.556026 5.407856 114.556026 6.321189 C 114.556026 7.227856 114.922693 8.101189 115.562693 8.741189 C 116.202693 9.387856 117.076026 9.747856 117.989359 9.747856 Z M 117.989359 9.747856 " transform="matrix(0.585938,0,0,0.585938,6.857797,6.018834)"/>
<path style="fill-rule:nonzero;fill:rgb(68.627451%,85.490196%,82.352941%);fill-opacity:1;stroke-width:0.25;stroke-linecap:butt;stroke-linejoin:miter;stroke:rgb(100%,100%,100%);stroke-opacity:1;stroke-miterlimit:4;" d="M 144.496026 13.934523 C 145.189359 13.934523 145.856026 13.654523 146.349359 13.167856 C 146.842693 12.674523 147.122693 12.007856 147.122693 11.314523 C 147.122693 10.614523 146.842693 9.947856 146.349359 9.454523 C 145.856026 8.967856 145.189359 8.687856 144.496026 8.687856 C 143.802693 8.687856 143.136026 8.967856 142.642693 9.454523 C 142.149359 9.947856 141.876026 10.614523 141.876026 11.314523 C 141.876026 12.007856 142.149359 12.674523 142.642693 13.167856 C 143.136026 13.654523 143.802693 13.934523 144.496026 13.934523 Z M 144.496026 13.934523 " transform="matrix(0.585938,0,0,0.585938,6.857797,6.018834)"/>
<path style="fill-rule:nonzero;fill:rgb(68.627451%,85.490196%,82.352941%);fill-opacity:1;stroke-width:0.25;stroke-linecap:butt;stroke-linejoin:miter;stroke:rgb(100%,100%,100%);stroke-opacity:1;stroke-miterlimit:4;" d="M 135.736026 17.961189 C 137.029359 17.961189 138.262693 17.447856 139.176026 16.534523 C 140.089359 15.621189 140.602693 14.387856 140.602693 13.094523 C 140.602693 11.807856 140.089359 10.567856 139.176026 9.654523 C 138.262693 8.747856 137.029359 8.234523 135.736026 8.234523 C 134.449359 8.234523 133.209359 8.747856 132.296026 9.654523 C 131.389359 10.567856 130.876026 11.807856 130.876026 13.094523 C 130.876026 14.387856 131.389359 15.621189 132.296026 16.534523 C 133.209359 17.447856 134.449359 17.961189 135.736026 17.961189 Z M 135.736026 17.961189 " transform="matrix(0.585938,0,0,0.585938,6.857797,6.018834)"/>
<path style="fill-rule:nonzero;fill:rgb(68.627451%,85.490196%,82.352941%);fill-opacity:1;stroke-width:0.25;stroke-linecap:butt;stroke-linejoin:miter;stroke:rgb(100%,100%,100%);stroke-opacity:1;stroke-miterlimit:4;" d="M 155.042693 13.241189 C 155.929359 13.241189 156.789359 12.887856 157.416026 12.254523 C 158.049359 11.627856 158.402693 10.767856 158.402693 9.881189 C 158.402693 8.987856 158.049359 8.134523 157.416026 7.501189 C 156.789359 6.874523 155.929359 6.521189 155.042693 6.521189 C 154.149359 6.521189 153.296026 6.874523 152.662693 7.501189 C 152.036026 8.134523 151.682693 8.987856 151.682693 9.881189 C 151.682693 10.767856 152.036026 11.627856 152.662693 12.254523 C 153.296026 12.887856 154.149359 13.241189 155.042693 13.241189 Z M 155.042693 13.241189 " transform="matrix(0.585938,0,0,0.585938,6.857797,6.018834)"/>
<path style="fill-rule:nonzero;fill:rgb(68.627451%,85.490196%,82.352941%);fill-opacity:1;stroke-width:0.25;stroke-linecap:butt;stroke-linejoin:miter;stroke:rgb(100%,100%,100%);stroke-opacity:1;stroke-miterlimit:4;" d="M 4.222693 95.227856 C 5.342693 95.227856 6.416026 94.781189 7.209359 93.994523 C 7.996026 93.201189 8.442693 92.127856 8.442693 91.007856 C 8.442693 89.887856 7.996026 88.814523 7.209359 88.021189 C 6.416026 87.227856 5.342693 86.787856 4.222693 86.787856 C 3.102693 86.787856 2.029359 87.227856 1.236026 88.021189 C 0.442693 88.814523 0.00269267 89.887856 0.00269267 91.007856 C 0.00269267 92.127856 0.442693 93.201189 1.236026 93.994523 C 2.029359 94.781189 3.102693 95.227856 4.222693 95.227856 Z M 4.222693 95.227856 " transform="matrix(0.585938,0,0,0.585938,6.857797,6.018834)"/>
<path style="fill-rule:nonzero;fill:rgb(68.627451%,85.490196%,82.352941%);fill-opacity:1;stroke-width:0.25;stroke-linecap:butt;stroke-linejoin:miter;stroke:rgb(100%,100%,100%);stroke-opacity:1;stroke-miterlimit:4;" d="M 100.016026 12.954523 C 100.622693 12.954523 101.196026 12.714523 101.622693 12.287856 C 102.049359 11.861189 102.289359 11.281189 102.289359 10.681189 C 102.289359 10.074523 102.049359 9.494523 101.622693 9.067856 C 101.196026 8.647856 100.622693 8.407856 100.016026 8.407856 C 99.416026 8.407856 98.836026 8.647856 98.409359 9.067856 C 97.982693 9.494523 97.742693 10.074523 97.742693 10.681189 C 97.742693 11.281189 97.982693 11.861189 98.409359 12.287856 C 98.836026 12.714523 99.416026 12.954523 100.016026 12.954523 Z M 100.016026 12.954523 " transform="matrix(0.585938,0,0,0.585938,6.857797,6.018834)"/>
<path style="fill-rule:nonzero;fill:rgb(68.627451%,85.490196%,82.352941%);fill-opacity:1;stroke-width:0.25;stroke-linecap:butt;stroke-linejoin:miter;stroke:rgb(100%,100%,100%);stroke-opacity:1;stroke-miterlimit:4;" d="M 178.102693 23.354523 C 178.836026 23.354523 179.529359 23.067856 180.042693 22.554523 C 180.562693 22.041189 180.849359 21.341189 180.849359 20.614523 C 180.849359 19.887856 180.562693 19.187856 180.042693 18.674523 C 179.529359 18.161189 178.836026 17.867856 178.102693 17.867856 C 177.376026 17.867856 176.682693 18.161189 176.169359 18.674523 C 175.649359 19.187856 175.362693 19.887856 175.362693 20.614523 C 175.362693 21.341189 175.649359 22.041189 176.169359 22.554523 C 176.682693 23.067856 177.376026 23.354523 178.102693 23.354523 Z M 178.102693 23.354523 " transform="matrix(0.585938,0,0,0.585938,6.857797,6.018834)"/>
<path style="fill-rule:nonzero;fill:rgb(68.627451%,85.490196%,82.352941%);fill-opacity:1;stroke-width:0.25;stroke-linecap:butt;stroke-linejoin:miter;stroke:rgb(100%,100%,100%);stroke-opacity:1;stroke-miterlimit:4;" d="M 126.836026 9.634523 C 127.889359 9.634523 128.896026 9.214523 129.642693 8.474523 C 130.389359 7.727856 130.802693 6.721189 130.802693 5.667856 C 130.802693 4.614523 130.389359 3.607856 129.642693 2.861189 C 128.896026 2.121189 127.889359 1.701189 126.836026 1.701189 C 125.782693 1.701189 124.776026 2.121189 124.036026 2.861189 C 123.289359 3.607856 122.869359 4.614523 122.869359 5.667856 C 122.869359 6.721189 123.289359 7.727856 124.036026 8.474523 C 124.776026 9.214523 125.782693 9.634523 126.836026 9.634523 Z M 126.836026 9.634523 " transform="matrix(0.585938,0,0,0.585938,6.857797,6.018834)"/>
<path style="fill-rule:nonzero;fill:rgb(68.627451%,85.490196%,82.352941%);fill-opacity:1;stroke-width:0.25;stroke-linecap:butt;stroke-linejoin:miter;stroke:rgb(100%,100%,100%);stroke-opacity:1;stroke-miterlimit:4;" d="M 36.249359 69.874523 C 37.456026 69.874523 38.622693 69.394523 39.476026 68.534523 C 40.336026 67.681189 40.816026 66.514523 40.816026 65.301189 C 40.816026 64.094523 40.336026 62.927856 39.476026 62.074523 C 38.622693 61.214523 37.456026 60.734523 36.249359 60.734523 C 35.036026 60.734523 33.869359 61.214523 33.016026 62.074523 C 32.156026 62.927856 31.676026 64.094523 31.676026 65.301189 C 31.676026 66.514523 32.156026 67.681189 33.016026 68.534523 C 33.869359 69.394523 35.036026 69.874523 36.249359 69.874523 Z M 36.249359 69.874523 " transform="matrix(0.585938,0,0,0.585938,6.857797,6.018834)"/>
<path style=" stroke:none;fill-rule:nonzero;fill:rgb(100%,100%,100%);fill-opacity:1;" d="M 102.15625 34.3125 L 99.390625 34.246094 L 96.625 34.308594 L 93.863281 34.503906 L 91.097656 34.820312 L 88.339844 35.261719 L 85.582031 35.820312 L 82.828125 36.488281 L 80.082031 37.257812 L 77.335938 38.121094 L 74.597656 39.066406 L 71.863281 40.085938 L 69.132812 41.171875 L 66.40625 42.304688 L 63.683594 43.480469 L 60.964844 44.683594 L 58.25 45.90625 L 52.832031 48.367188 L 50.128906 49.585938 L 47.429688 50.789062 L 44.730469 51.960938 L 42.035156 53.101562 L 39.34375 54.199219 L 36.652344 55.253906 L 33.960938 56.261719 L 31.273438 57.21875 L 28.585938 58.121094 L 25.902344 58.964844 L 23.21875 59.753906 L 20.535156 60.488281 L 17.847656 61.167969 L 15.164062 61.792969 L 12.480469 62.363281 L 9.796875 62.882812 L 7.109375 63.351562 L 4.164062 63.816406 L 4.035156 64.714844 C 3.539062 68.117188 3.292969 71.554688 3.292969 75 C 3.292969 77.679688 3.441406 80.359375 3.742188 83.023438 L 3.929688 84.6875 L 7.820312 82.960938 L 10.535156 81.738281 L 15.953125 79.277344 L 18.65625 78.058594 L 21.355469 76.863281 L 24.050781 75.699219 L 26.742188 74.578125 L 29.429688 73.511719 L 32.113281 72.511719 L 34.792969 71.585938 L 37.46875 70.742188 L 40.136719 69.996094 L 42.804688 69.347656 L 45.464844 68.808594 L 48.121094 68.386719 L 50.777344 68.078125 L 53.425781 67.894531 L 56.078125 67.835938 L 58.726562 67.898438 L 61.378906 68.085938 L 64.027344 68.394531 L 66.683594 68.820312 L 69.339844 69.359375 L 72 70.007812 L 74.667969 70.753906 L 77.335938 71.59375 L 80.011719 72.519531 L 82.691406 73.519531 L 85.375 74.585938 L 88.0625 75.703125 L 90.753906 76.867188 L 93.449219 78.0625 L 96.148438 79.277344 L 101.558594 81.738281 L 104.269531 82.957031 L 106.984375 84.164062 L 109.699219 85.34375 L 112.417969 86.496094 L 115.140625 87.605469 L 117.863281 88.675781 L 120.585938 89.695312 L 123.3125 90.664062 L 126.039062 91.582031 L 128.769531 92.441406 L 131.5 93.246094 L 134.230469 93.992188 L 136.960938 94.679688 L 139.6875 95.316406 L 143.527344 96.132812 L 143.847656 95.035156 C 145.65625 88.820312 146.617188 82.386719 146.699219 75.910156 L 146.703125 75.007812 L 146.699219 74.09375 L 146.679688 73.121094 C 146.449219 64.335938 144.605469 55.671875 141.246094 47.558594 L 140.996094 46.964844 L 140.554688 45.941406 L 137.765625 44.6875 L 135.050781 43.484375 L 132.332031 42.3125 L 129.609375 41.179688 L 126.886719 40.097656 L 124.15625 39.078125 L 121.417969 38.132812 L 118.679688 37.269531 L 115.9375 36.496094 L 113.1875 35.828125 L 110.433594 35.269531 L 107.675781 34.828125 L 104.917969 34.507812 Z M 99.363281 35.476562 L 102.070312 35.539062 L 104.777344 35.726562 L 107.484375 36.042969 L 110.191406 36.476562 L 112.898438 37.023438 L 115.605469 37.679688 L 118.3125 38.441406 L 121.019531 39.292969 L 123.726562 40.230469 L 126.433594 41.238281 L 129.140625 42.3125 L 131.847656 43.4375 L 134.554688 44.609375 L 137.261719 45.808594 L 139.617188 46.867188 C 139.785156 47.253906 139.949219 47.640625 140.109375 48.027344 C 143.414062 56.007812 145.222656 64.519531 145.449219 73.144531 L 145.46875 74.101562 L 145.476562 75 L 145.46875 75.894531 C 145.386719 82.269531 144.441406 88.59375 142.667969 94.695312 L 139.96875 94.117188 L 137.261719 93.488281 L 134.554688 92.804688 L 131.847656 92.066406 L 129.140625 91.269531 L 126.433594 90.414062 L 123.726562 89.507812 L 121.019531 88.542969 L 118.3125 87.53125 L 115.605469 86.46875 L 112.898438 85.363281 L 110.191406 84.21875 L 107.484375 83.042969 L 104.777344 81.839844 L 102.070312 80.617188 L 96.65625 78.15625 L 93.949219 76.9375 L 91.242188 75.738281 L 88.535156 74.570312 L 85.828125 73.445312 L 83.121094 72.371094 L 80.414062 71.359375 L 77.707031 70.421875 L 75 69.570312 L 72.292969 68.8125 L 69.585938 68.15625 L 66.878906 67.605469 L 64.171875 67.171875 L 61.464844 66.859375 L 58.757812 66.667969 L 56.050781 66.605469 L 53.34375 66.667969 L 50.636719 66.859375 L 47.929688 67.171875 L 45.222656 67.605469 L 42.515625 68.15625 L 39.808594 68.8125 L 37.097656 69.570312 L 34.390625 70.421875 L 31.683594 71.359375 L 28.976562 72.371094 L 26.269531 73.445312 L 23.5625 74.570312 L 20.855469 75.738281 L 18.148438 76.9375 L 15.441406 78.15625 L 10.027344 80.617188 L 7.320312 81.839844 L 4.964844 82.886719 C 4.667969 80.273438 4.519531 77.636719 4.519531 75 C 4.519531 71.609375 4.765625 68.230469 5.25 64.890625 L 7.320312 64.5625 L 10.027344 64.085938 L 12.734375 63.5625 L 15.441406 62.988281 L 18.148438 62.359375 L 20.855469 61.675781 L 23.5625 60.933594 L 26.269531 60.136719 L 28.976562 59.285156 L 31.683594 58.375 L 34.390625 57.414062 L 37.097656 56.398438 L 39.808594 55.335938 L 42.515625 54.230469 L 45.222656 53.085938 L 47.929688 51.910156 L 50.636719 50.707031 L 53.34375 49.488281 L 58.757812 47.027344 L 61.464844 45.808594 L 64.171875 44.609375 L 66.878906 43.4375 L 69.585938 42.3125 L 72.292969 41.238281 L 75 40.230469 L 77.707031 39.292969 L 80.414062 38.441406 L 83.121094 37.679688 L 85.828125 37.023438 L 88.535156 36.476562 L 91.242188 36.042969 L 93.949219 35.726562 L 96.65625 35.539062 Z M 99.363281 35.476562 "/>
<path style="fill-rule:nonzero;fill:rgb(49.019608%,69.019608%,73.72549%);fill-opacity:1;stroke-width:1;stroke-linecap:butt;stroke-linejoin:miter;stroke:rgb(100%,100%,100%);stroke-opacity:1;stroke-miterlimit:4;" d="M 169.58 60.046667 L 174.22 60.153333 L 178.86 60.48 L 183.506667 61.013333 L 188.146667 61.76 L 192.786667 62.7 L 197.426667 63.826667 L 202.06 65.126667 L 206.693333 66.586667 L 211.326667 68.186667 L 215.96 69.913333 L 220.586667 71.753333 L 225.213333 73.68 L 229.84 75.673333 L 234.46 77.72 L 238.666667 79.613333 C 238.98 80.333333 239.286667 81.053333 239.586667 81.773333 C 245.326667 95.64 248.433333 110.453333 248.753333 125.44 L 248.766667 126.466667 L 248.78 128 L 248.766667 129.533333 C 248.626667 140.613333 246.96 151.6 243.833333 162.193333 L 238.766667 161.113333 L 234.133333 160.04 L 229.506667 158.873333 L 224.873333 157.606667 L 220.246667 156.24 L 215.62 154.786667 L 210.986667 153.233333 L 206.36 151.586667 L 201.733333 149.853333 L 197.106667 148.033333 L 192.48 146.146667 L 187.86 144.193333 L 183.233333 142.18 L 178.613333 140.126667 L 173.993333 138.04 L 164.753333 133.846667 L 160.133333 131.766667 L 155.52 129.72 L 150.906667 127.726667 L 146.293333 125.806667 L 141.68 123.98 L 137.066667 122.26 L 132.46 120.666667 L 127.853333 119.213333 L 123.253333 117.92 L 118.646667 116.806667 L 114.046667 115.873333 L 109.446667 115.133333 L 104.853333 114.606667 L 100.253333 114.28 L 95.66 114.173333 L 91.06 114.28 L 86.46 114.606667 L 81.866667 115.133333 L 77.266667 115.873333 L 72.666667 116.806667 L 68.06 117.92 L 63.46 119.213333 L 58.853333 120.666667 L 54.246667 122.26 L 49.64 123.973333 L 45.026667 125.806667 L 40.413333 127.726667 L 35.8 129.72 L 31.18 131.766667 L 26.566667 133.846667 L 17.32 138.046667 L 12.7 140.126667 L 8.053333 142.193333 C 7.5 137.493333 7.213333 132.753333 7.213333 128 C 7.213333 122.066667 7.653333 116.153333 8.52 110.313333 L 12.413333 109.693333 L 17.02 108.886667 L 21.633333 107.993333 L 26.246667 107.013333 L 30.853333 105.94 L 35.466667 104.773333 L 40.073333 103.513333 L 44.686667 102.16 L 49.3 100.706667 L 53.906667 99.16 L 58.52 97.52 L 63.133333 95.793333 L 67.746667 93.98 L 72.36 92.093333 L 76.98 90.146667 L 81.593333 88.133333 L 86.213333 86.086667 L 90.826667 84 L 100.073333 79.806667 L 104.693333 77.72 L 109.32 75.673333 L 113.946667 73.673333 L 118.573333 71.746667 L 123.2 69.913333 L 127.826667 68.186667 L 132.46 66.586667 L 137.093333 65.126667 L 141.733333 63.826667 L 146.366667 62.7 L 151.006667 61.76 L 155.646667 61.013333 L 160.293333 60.48 L 164.933333 60.153333 Z M 169.58 60.046667 " transform="matrix(0.585938,0,0,0.585938,0,0)"/>
<path style=" stroke:none;fill-rule:nonzero;fill:rgb(36.078431%,49.019608%,63.529412%);fill-opacity:1;" d="M 56.050781 67.960938 L 58.757812 68.023438 L 61.464844 68.210938 L 64.171875 68.527344 L 66.878906 68.960938 L 69.585938 69.507812 L 72.292969 70.164062 L 75 70.925781 L 77.707031 71.777344 L 80.414062 72.714844 L 83.121094 73.722656 L 85.828125 74.796875 L 88.535156 75.921875 L 91.242188 77.09375 L 93.949219 78.292969 L 96.65625 79.511719 L 102.070312 81.972656 L 104.777344 83.191406 L 107.484375 84.394531 L 110.191406 85.570312 L 112.898438 86.714844 L 115.605469 87.820312 L 118.3125 88.882812 L 121.019531 89.898438 L 123.726562 90.859375 L 126.433594 91.769531 L 129.140625 92.621094 L 131.847656 93.417969 L 134.554688 94.160156 L 137.261719 94.84375 L 139.96875 95.472656 L 142.285156 95.964844 C 141.652344 97.996094 140.925781 99.996094 140.109375 101.96875 C 136.570312 110.519531 131.378906 118.289062 124.832031 124.832031 C 118.289062 131.378906 110.519531 136.570312 101.96875 140.109375 C 93.417969 143.652344 84.253906 145.476562 75 145.476562 C 65.742188 145.476562 56.578125 143.652344 48.027344 140.109375 C 39.476562 136.570312 31.707031 131.378906 25.164062 124.832031 C 18.621094 118.289062 13.425781 110.519531 9.886719 101.96875 C 7.519531 96.257812 5.921875 90.273438 5.121094 84.171875 L 7.320312 83.191406 L 10.027344 81.972656 L 15.441406 79.511719 L 18.148438 78.292969 L 20.855469 77.09375 L 23.5625 75.921875 L 26.269531 74.796875 L 28.976562 73.722656 L 31.683594 72.714844 L 34.390625 71.777344 L 37.097656 70.925781 L 39.808594 70.164062 L 42.515625 69.507812 L 45.222656 68.960938 L 47.929688 68.527344 L 50.636719 68.210938 L 53.34375 68.023438 Z M 56.050781 67.960938 "/>
<path style=" stroke:none;fill-rule:nonzero;fill:rgb(26.666667%,28.235294%,46.27451%);fill-opacity:1;" d="M 61.464844 86.210938 L 61.464844 95.285156 L 77.707031 95.285156 L 77.707031 107.824219 L 93.949219 107.824219 L 93.949219 116.398438 L 110.191406 116.398438 L 110.191406 120.019531 L 126.433594 120.019531 L 126.433594 123.179688 C 125.910156 123.738281 125.375 124.289062 124.832031 124.832031 C 118.289062 131.378906 110.519531 136.570312 101.96875 140.109375 C 93.417969 143.652344 84.253906 145.476562 75 145.476562 C 65.742188 145.476562 56.578125 143.652344 48.027344 140.109375 C 39.476562 136.570312 31.707031 131.378906 25.164062 124.832031 C 20.199219 119.867188 16.011719 114.199219 12.734375 108.019531 L 12.734375 99.5625 L 28.976562 99.5625 L 28.976562 88.25 L 45.222656 88.25 L 45.222656 86.210938 Z M 61.464844 86.210938 "/>
<path style=" stroke:none;fill-rule:nonzero;fill:rgb(100%,100%,100%);fill-opacity:1;" d="M 62.015625 85.65625 L 62.015625 94.730469 L 78.261719 94.730469 L 78.257812 107.269531 L 94.503906 107.269531 L 94.5 115.84375 L 110.746094 115.84375 L 110.742188 119.464844 L 126.988281 119.464844 L 126.988281 122.582031 C 126.621094 122.980469 126.25 123.375 125.875 123.765625 L 125.875 120.570312 L 110.742188 120.570312 L 110.742188 135.738281 C 110.375 135.953125 110.007812 136.167969 109.632812 136.375 L 109.632812 116.953125 L 94.5 116.953125 L 94.5 142.722656 C 94.132812 142.828125 93.761719 142.933594 93.390625 143.03125 L 93.390625 108.378906 L 78.257812 108.378906 L 78.257812 145.398438 C 77.890625 145.417969 77.519531 145.429688 77.148438 145.441406 L 77.148438 95.839844 L 62.015625 95.839844 L 62.015625 144.269531 C 61.648438 144.199219 61.277344 144.128906 60.90625 144.050781 L 60.90625 86.761719 L 45.773438 86.761719 L 45.773438 139.128906 C 45.402344 138.960938 45.035156 138.789062 44.664062 138.613281 L 44.664062 88.800781 L 29.53125 88.800781 L 29.53125 128.847656 C 29.160156 128.535156 28.789062 128.214844 28.421875 127.890625 L 28.421875 100.117188 L 13.289062 100.117188 L 13.289062 109.042969 C 12.910156 108.351562 12.539062 107.65625 12.179688 106.949219 L 12.183594 99.007812 L 28.421875 99.007812 L 28.425781 87.695312 L 44.664062 87.695312 L 44.667969 85.65625 Z M 62.015625 85.65625 "/>
<path style=" stroke:none;fill-rule:nonzero;fill:rgb(26.666667%,28.235294%,46.27451%);fill-opacity:1;" d="M 75 0 C 84.847656 0 94.601562 1.941406 103.699219 5.707031 C 112.796875 9.476562 121.066406 15.003906 128.03125 21.964844 C 134.992188 28.929688 140.519531 37.199219 144.289062 46.296875 C 147.933594 55.101562 149.871094 64.519531 149.992188 74.046875 L 149.996094 75 L 149.992188 75.949219 C 149.871094 85.476562 147.933594 94.894531 144.289062 103.699219 C 140.519531 112.796875 134.992188 121.066406 128.03125 128.03125 C 121.066406 134.992188 112.796875 140.519531 103.699219 144.289062 C 94.601562 148.054688 84.847656 149.996094 75 149.996094 C 65.148438 149.996094 55.398438 148.054688 46.296875 144.289062 C 37.199219 140.519531 28.929688 134.992188 21.964844 128.03125 C 15.003906 121.066406 9.476562 112.796875 5.707031 103.699219 C 1.941406 94.601562 0 84.847656 0 75 C 0 65.148438 1.941406 55.398438 5.707031 46.296875 C 9.476562 37.199219 15.003906 28.929688 21.964844 21.964844 C 28.929688 15.003906 37.199219 9.476562 46.296875 5.707031 C 55.398438 1.941406 65.148438 0 75 0 Z M 75 2.460938 C 65.472656 2.460938 56.039062 4.339844 47.238281 7.984375 C 38.441406 11.628906 30.441406 16.972656 23.707031 23.707031 C 16.972656 30.441406 11.628906 38.441406 7.984375 47.238281 C 4.339844 56.039062 2.460938 65.472656 2.460938 75 C 2.460938 84.523438 4.339844 93.957031 7.984375 102.757812 C 11.628906 111.554688 16.972656 119.554688 23.707031 126.289062 C 30.441406 133.023438 38.441406 138.367188 47.238281 142.011719 C 56.039062 145.65625 65.472656 147.535156 75 147.535156 C 84.523438 147.535156 93.957031 145.65625 102.757812 142.011719 C 111.554688 138.367188 119.554688 133.023438 126.289062 126.289062 C 133.023438 119.554688 138.367188 111.554688 142.011719 102.757812 C 145.539062 94.238281 147.410156 85.132812 147.527344 75.917969 L 147.535156 75 L 147.527344 74.078125 C 147.410156 64.863281 145.539062 55.757812 142.011719 47.238281 C 138.367188 38.441406 133.023438 30.441406 126.289062 23.707031 C 119.554688 16.972656 111.554688 11.628906 102.757812 7.984375 C 93.957031 4.339844 84.523438 2.460938 75 2.460938 Z M 75 2.460938 "/>
</g>
</svg>
