<?xml version="1.0" encoding="UTF-8"?>
<svg xmlns="http://www.w3.org/2000/svg" xmlns:xlink="http://www.w3.org/1999/xlink" width="150px" height="150px" viewBox="0 0 150 150" version="1.1">
<g id="surface1">
<path style=" stroke:none;fill-rule:nonzero;fill:rgb(16.078431%,70.980392%,90.980392%);fill-opacity:1;" d="M 23.109375 35.855469 L 53.597656 54.136719 C 57.074219 56.226562 61.53125 55.640625 64.351562 52.726562 C 66.203125 50.945312 67.242188 48.480469 67.226562 45.910156 L 67.226562 9.273438 C 67.351562 6.003906 65.679688 2.925781 62.867188 1.257812 C 60.054688 -0.414062 56.554688 -0.414062 53.742188 1.257812 C 50.929688 2.925781 49.257812 6.003906 49.378906 9.273438 L 49.378906 30.121094 L 32.066406 19.738281 C 30.003906 18.515625 27.535156 18.175781 25.21875 18.800781 C 22.90625 19.421875 20.957031 21.003906 19.828125 23.125 C 17.351562 27.578125 18.796875 33.15625 23.109375 35.832031 M 96.398438 54.113281 L 126.886719 35.832031 C 131.199219 33.152344 132.648438 27.550781 130.167969 23.117188 C 129.035156 21.003906 127.085938 19.445312 124.777344 18.804688 C 122.464844 18.160156 119.996094 18.492188 117.933594 19.714844 L 100.824219 29.957031 L 100.824219 9.238281 C 100.941406 5.972656 99.265625 2.90625 96.457031 1.238281 C 93.648438 -0.429688 90.152344 -0.429688 87.339844 1.238281 C 84.53125 2.90625 82.859375 5.972656 82.976562 9.238281 L 82.976562 45.152344 C 82.792969 47.074219 83.195312 49.011719 84.132812 50.699219 C 85.261719 52.816406 87.214844 54.378906 89.523438 55.023438 C 91.839844 55.667969 94.316406 55.328125 96.371094 54.085938 M 69.261719 74.929688 C 69.292969 74.34375 69.515625 73.757812 69.898438 73.335938 L 73.460938 69.632812 C 73.882812 69.242188 74.429688 69.007812 75.003906 68.972656 L 75.136719 68.972656 C 75.710938 69.003906 76.257812 69.238281 76.675781 69.632812 L 80.238281 73.335938 C 80.625 73.78125 80.847656 74.34375 80.875 74.933594 L 80.875 75.074219 C 80.847656 75.664062 80.625 76.226562 80.238281 76.671875 L 76.675781 80.375 C 76.257812 80.773438 75.714844 81.007812 75.136719 81.042969 L 75.003906 81.042969 C 74.429688 81.007812 73.878906 80.773438 73.460938 80.375 L 69.898438 76.671875 C 69.515625 76.226562 69.289062 75.664062 69.261719 75.074219 Z M 58.472656 73.40625 L 58.472656 76.601562 C 58.511719 77.40625 58.816406 78.171875 59.34375 78.78125 L 71.4375 91.339844 C 72.007812 91.878906 72.75 92.199219 73.535156 92.242188 L 76.609375 92.242188 C 77.394531 92.199219 78.136719 91.878906 78.707031 91.339844 L 90.800781 78.78125 C 91.328125 78.171875 91.632812 77.40625 91.671875 76.601562 L 91.671875 73.40625 C 91.632812 72.601562 91.328125 71.835938 90.800781 71.226562 L 78.707031 58.671875 C 78.136719 58.132812 77.394531 57.8125 76.609375 57.765625 L 73.535156 57.765625 C 72.75 57.8125 72.007812 58.132812 71.4375 58.671875 L 59.34375 71.25 C 58.820312 71.859375 58.511719 72.625 58.472656 73.429688 M 7.335938 64.734375 L 24.597656 75.085938 L 7.335938 85.429688 C 3.027344 88.113281 1.582031 93.707031 4.058594 98.140625 C 5.1875 100.257812 7.136719 101.820312 9.449219 102.464844 C 11.757812 103.105469 14.234375 102.777344 16.296875 101.546875 L 46.785156 83.265625 C 49.597656 81.476562 51.238281 78.394531 51.238281 75.078125 C 51.234375 71.773438 49.558594 68.691406 46.785156 66.894531 L 16.296875 48.613281 C 14.234375 47.390625 11.761719 47.050781 9.449219 47.675781 C 7.136719 48.296875 5.1875 49.878906 4.058594 52 C 1.578125 56.453125 3.027344 62.023438 7.339844 64.707031 M 98.734375 75.117188 C 98.679688 78.433594 100.378906 81.535156 103.210938 83.265625 L 133.679688 101.546875 C 135.742188 102.777344 138.210938 103.109375 140.523438 102.464844 C 142.832031 101.824219 144.78125 100.261719 145.914062 98.148438 C 148.398438 93.714844 146.953125 88.109375 142.632812 85.433594 L 125.390625 75.089844 L 142.652344 64.738281 C 146.964844 62.058594 148.410156 56.464844 145.933594 52.027344 C 144.804688 49.910156 142.855469 48.347656 140.542969 47.707031 C 138.230469 47.066406 135.757812 47.394531 133.699219 48.644531 L 103.230469 66.925781 C 100.378906 68.671875 98.675781 71.804688 98.753906 75.144531 M 59.71875 94.941406 C 57.613281 94.535156 55.433594 94.921875 53.597656 96.027344 L 23.113281 114.308594 C 18.800781 116.988281 17.355469 122.582031 19.832031 127.015625 C 20.960938 129.132812 22.910156 130.695312 25.222656 131.335938 C 27.535156 131.976562 30.007812 131.644531 32.070312 130.417969 L 49.382812 120.035156 L 49.382812 140.730469 C 49.253906 144.003906 50.925781 147.082031 53.738281 148.757812 C 56.554688 150.433594 60.058594 150.433594 62.871094 148.757812 C 65.6875 147.082031 67.359375 144.003906 67.226562 140.730469 L 67.226562 104.0625 C 67.292969 99.589844 64.117188 95.722656 59.714844 94.914062 M 126.886719 114.3125 L 96.402344 96.03125 C 94.339844 94.800781 91.863281 94.46875 89.550781 95.113281 C 87.238281 95.753906 85.292969 97.3125 84.160156 99.429688 C 83.222656 101.125 82.820312 103.058594 83.003906 104.984375 L 83.003906 140.726562 C 82.875 144 84.546875 147.082031 87.359375 148.757812 C 90.175781 150.429688 93.679688 150.429688 96.492188 148.757812 C 99.308594 147.082031 100.980469 144 100.847656 140.726562 L 100.847656 120.1875 L 117.929688 130.429688 C 119.992188 131.652344 122.460938 131.992188 124.777344 131.367188 C 127.085938 130.746094 129.039062 129.164062 130.167969 127.046875 C 132.644531 122.59375 131.199219 117.015625 126.886719 114.335938 "/>
</g>
</svg>
