<?xml version="1.0" encoding="UTF-8"?>
<svg xmlns="http://www.w3.org/2000/svg" xmlns:xlink="http://www.w3.org/1999/xlink" width="150px" height="150px" viewBox="0 0 150 150" version="1.1">
<g id="surface1">
<rect x="0" y="0" width="150" height="150" style="fill:rgb(100%,100%,100%);fill-opacity:1;stroke:none;"/>
<path style=" stroke:none;fill-rule:evenodd;fill:rgb(0%,0%,0%);fill-opacity:1;" d="M 104.742188 81.789062 L 106.148438 77.761719 L 118.363281 77.761719 L 120.277344 72.097656 L 102.300781 72.101562 C 102.300781 72.101562 98.492188 84.136719 99.011719 84.210938 C 99.222656 84.976562 100.15625 87.558594 103.035156 87.558594 L 119.152344 87.558594 L 121.011719 81.796875 Z M 104.742188 81.789062 "/>
<path style=" stroke:none;fill-rule:evenodd;fill:rgb(0%,0%,0%);fill-opacity:1;" d="M 136.789062 62.402344 C 133.238281 62.402344 105.628906 62.417969 105.628906 62.417969 L 103.765625 67.964844 L 137.996094 67.964844 C 139.445312 68.550781 139.347656 72.011719 136.769531 72.195312 L 122.363281 72.195312 L 132 87.558594 L 138.648438 87.550781 L 132.765625 77.761719 L 135.269531 77.761719 C 145.980469 77.761719 145.683594 62.402344 136.789062 62.402344 Z M 90.019531 62.402344 L 75.253906 62.402344 L 65.355469 72.519531 L 61.617188 62.457031 L 56.09375 62.441406 L 61.027344 76.308594 L 53.585938 84.21875 L 50.289062 87.5 L 58.066406 87.5 L 77.078125 67.964844 L 92.035156 67.964844 C 94.898438 69.339844 97.074219 79.042969 88.007812 81.769531 L 79.398438 81.769531 L 82.128906 72.195312 L 76.4375 72.195312 L 71.480469 87.582031 C 71.480469 87.582031 80.664062 87.601562 84.382812 87.601562 C 101.925781 87.601562 105.195312 62.402344 90.019531 62.402344 Z M 19.476562 81.769531 L 8.195312 81.769531 L 6.617188 87.558594 L 18.28125 87.558594 C 27.082031 87.558594 29.269531 75.644531 29.269531 75.644531 L 23.410156 75.644531 C 23.410156 75.648438 21.632812 81.914062 19.476562 81.769531 Z M 19.476562 81.769531 "/>
<path style=" stroke:none;fill-rule:evenodd;fill:rgb(0%,0%,0%);fill-opacity:1;" d="M 50.910156 62.402344 L 23.75 62.402344 C 11.933594 62.402344 10.675781 74.644531 10.675781 74.644531 L 16.421875 74.644531 C 16.421875 74.644531 18.269531 67.964844 22.425781 67.964844 L 49.109375 67.964844 C 50.363281 68.746094 50.660156 71.71875 48.464844 72.253906 L 35.019531 72.265625 L 30.511719 87.5 L 35.976562 87.507812 L 39 77.761719 C 43.070312 77.761719 48.003906 77.816406 48.996094 77.761719 C 57.871094 77.261719 57.472656 63.5 50.910156 62.402344 Z M 142.523438 86.460938 L 142.867188 85.335938 L 143.199219 85.335938 L 143.199219 86.863281 L 142.980469 86.863281 L 142.980469 85.621094 L 142.976562 85.621094 L 142.59375 86.863281 L 142.449219 86.863281 L 142.066406 85.621094 L 142.058594 85.621094 L 142.058594 86.863281 L 141.84375 86.863281 L 141.84375 85.335938 L 142.175781 85.335938 Z M 141.628906 85.558594 L 141.253906 85.558594 L 141.253906 86.863281 L 141.039062 86.863281 L 141.039062 85.558594 L 140.660156 85.558594 L 140.660156 85.335938 L 141.628906 85.335938 Z M 141.628906 85.558594 "/>
</g>
</svg>
