<?xml version="1.0" encoding="UTF-8"?>
<svg xmlns="http://www.w3.org/2000/svg" xmlns:xlink="http://www.w3.org/1999/xlink" width="150px" height="150px" viewBox="0 0 150 150" version="1.1">
<defs>
<linearGradient id="linear0" gradientUnits="userSpaceOnUse" x1="-15.615" y1="-9.108" x2="-6.741" y2="-9.108" gradientTransform="matrix(0.000000000000000665,10.864687,-10.864687,0.000000000000000665,-30.295312,181.78125)">
<stop offset="0" style="stop-color:rgb(58.431373%,84.313725%,95.686275%);stop-opacity:1;"/>
<stop offset="0.92" style="stop-color:rgb(5.882353%,49.803922%,80%);stop-opacity:1;"/>
<stop offset="1" style="stop-color:rgb(5.882353%,49.803922%,80%);stop-opacity:1;"/>
</linearGradient>
</defs>
<g id="surface1">
<path style=" stroke:none;fill-rule:nonzero;fill:rgb(4.313725%,49.803922%,80%);fill-opacity:1;" d="M 81.445312 116.222656 C 81.375 115.367188 81.335938 114.816406 81.335938 114.816406 C 81.335938 114.816406 78.75 97.367188 75.667969 92.160156 C 75.183594 91.328125 75.71875 87.945312 77.082031 82.925781 C 77.878906 84.292969 81.230469 90.179688 81.90625 92.078125 C 82.667969 94.214844 82.820312 94.828125 82.820312 94.828125 C 82.820312 94.828125 80.980469 85.355469 77.964844 79.832031 C 37.992188 168.3125 -62.214844 212.472656 -154.492188 182.277344 C -246.769531 152.082031 -301.484375 57.226562 -281.417969 -37.769531 C -261.355469 -132.765625 -172.957031 -197.394531 -76.347656 -187.699219 C 20.257812 -178 94.046875 -97.089844 94.828125 0 C 95.96875 2.003906 98.710938 6.867188 99.3125 8.554688 C 99.433594 8.898438 99.539062 9.191406 99.628906 9.460938 C 99.65625 9.300781 99.6875 9.140625 99.714844 8.976562 C 99.023438 6.042969 97.664062 0.9375 95.804688 -2.839844 C 99.929688 -24.316406 114.007812 -53.023438 128.429688 -65.832031 L 19.804688 -65.832031 C 13.492188 -65.832031 8.332031 -60.667969 8.332031 -54.359375 L 8.332031 49.433594 C 8.332031 55.742188 13.496094 60.90625 19.804688 60.90625 L 81.792969 60.90625 C 84.988281 131.46875 34.773438 193.214844 -34.957031 204.46875 C -104.691406 215.722656 -171.78125 172.910156 -190.949219 104.925781 C -210.113281 36.9375 -175.265625 -34.613281 -109.925781 -61.4375 C -44.582031 -88.265625 30.492188 -61.839844 64.625 0 "/>
<path style=" stroke:none;fill-rule:nonzero;fill:url(#linear0);" d="M 77.082031 82.925781 C 77.878906 84.292969 81.230469 90.175781 81.90625 92.074219 C 82.667969 94.210938 82.824219 94.824219 82.824219 94.824219 C 82.824219 94.824219 80.984375 85.355469 77.964844 79.828125 C 37.664062 169.757812 -63.96875 214.824219 -157.675781 184.316406 C -251.382812 153.808594 -307.003906 57.550781 -286.640625 -38.871094 C -266.273438 -135.289062 -176.480469 -200.835938 -78.441406 -190.847656 C 19.601562 -180.859375 94.328125 -98.546875 94.824219 0 C 95.863281 1.835938 98.25 6.058594 99.105469 8.054688 L 99.203125 6.925781 C 98.441406 4 97.289062 0.167969 95.804688 -2.832031 C 99.605469 -22.601562 111.835938 -48.5 125.015625 -62.480469 L 19.804688 -62.480469 C 37.054688 -64.722656 52.863281 -52.554688 55.105469 -35.300781 C 57.347656 -18.046875 45.179688 -2.242188 27.929688 0 L 27.929688 96.222656 C 48.46875 88.335938 73.238281 81.128906 94.554688 81.441406 C 93.765625 78.386719 92.867188 75.628906 91.917969 74.03125 C 91.433594 73.203125 91.96875 69.8125 93.332031 64.796875 "/>
<path style=" stroke:none;fill-rule:nonzero;fill:rgb(0%,22.352941%,33.72549%);fill-opacity:1;" d="M 135.878906 3.257812 C 129.433594 -2.492188 121.625 -0.179688 113.925781 6.65625 C 114.882812 4.359375 116 2.136719 117.273438 0 C 104.09375 13.976562 91.863281 39.871094 88.066406 59.644531 C 89.542969 62.644531 90.703125 66.476562 91.457031 69.402344 C 91.652344 70.152344 91.832031 70.859375 91.976562 71.457031 C 92.308594 72.871094 92.488281 73.796875 92.488281 73.796875 C 92.488281 73.796875 92.367188 73.347656 91.882812 71.941406 C 91.792969 71.671875 91.6875 71.375 91.566406 71.035156 C 91.515625 70.890625 91.445312 70.714844 91.367188 70.527344 C 90.503906 68.53125 88.125 64.3125 87.082031 62.480469 C 86.1875 65.117188 85.398438 67.589844 84.730469 69.824219 C 87.753906 75.347656 89.59375 84.820312 89.59375 84.820312 C 89.59375 84.820312 89.433594 84.207031 88.679688 82.070312 C 88 80.167969 84.644531 74.289062 83.851562 72.917969 C 82.488281 77.933594 81.949219 81.324219 82.4375 82.152344 C 83.386719 83.75 84.285156 86.515625 85.074219 89.5625 C 86.863281 96.4375 88.105469 104.808594 88.105469 104.808594 C 88.105469 104.808594 88.140625 105.359375 88.214844 106.214844 C 53.496094 162.609375 -16.179688 186.6875 -78.3125 163.765625 C -140.445312 140.84375 -177.789062 77.285156 -167.566406 11.851562 C -157.34375 -53.578125 -102.394531 -102.722656 -36.230469 -105.601562 C 29.929688 -108.480469 88.941406 -64.296875 104.808594 0 C 105.402344 7.160156 106.511719 13.316406 107.933594 16.609375 L 108.902344 16.082031 C 106.816406 9.59375 105.96875 1.089844 106.339844 -8.710938 C 106.902344 -23.703125 110.347656 -41.773438 116.714844 -60.613281 C 127.488281 -89.054688 142.425781 -111.867188 156.09375 -122.761719 C 143.632812 -111.507812 126.769531 -75.085938 121.71875 -61.597656 C 116.070312 -46.488281 112.066406 -32.316406 109.648438 -18.734375 C 113.808594 -31.464844 127.28125 -36.933594 127.28125 -36.933594 C 127.28125 -36.933594 133.886719 -45.089844 141.609375 -56.726562 C 136.980469 -55.667969 129.386719 -53.863281 126.847656 -52.796875 C 123.097656 -51.222656 122.082031 -50.6875 122.082031 -50.6875 C 122.082031 -50.6875 134.234375 -58.085938 144.664062 -61.4375 C 159 -84.019531 174.617188 -116.101562 158.890625 -130.132812 "/>
</g>
</svg>
