<?xml version="1.0" encoding="UTF-8"?>
<svg xmlns="http://www.w3.org/2000/svg" xmlns:xlink="http://www.w3.org/1999/xlink" width="150px" height="150px" viewBox="0 0 150 150" version="1.1">
<g id="surface1">
<path style=" stroke:none;fill-rule:nonzero;fill:rgb(100%,29.411765%,29.411765%);fill-opacity:1;" d="M 74.992188 84.984375 L 48.695312 71.085938 L 3.050781 46.960938 C 3.007812 46.921875 2.925781 46.921875 2.882812 46.921875 C 1.21875 46.128906 -0.492188 47.796875 0.132812 49.460938 L 23.390625 108.78125 L 23.394531 108.792969 C 23.421875 108.851562 23.441406 108.910156 23.46875 108.96875 C 24.421875 111.179688 26.503906 112.546875 28.769531 113.085938 C 28.960938 113.128906 29.101562 113.164062 29.328125 113.210938 C 29.558594 113.261719 29.878906 113.332031 30.15625 113.351562 C 30.199219 113.355469 30.242188 113.355469 30.289062 113.359375 L 30.320312 113.359375 C 30.355469 113.367188 30.386719 113.367188 30.421875 113.367188 L 30.46875 113.367188 C 30.496094 113.371094 30.53125 113.371094 30.558594 113.371094 L 30.613281 113.371094 C 30.644531 113.378906 30.679688 113.378906 30.710938 113.378906 C 60.167969 116.589844 89.886719 116.589844 119.339844 113.378906 C 119.695312 113.378906 120.039062 113.359375 120.375 113.328125 C 120.480469 113.316406 120.585938 113.304688 120.691406 113.289062 C 120.703125 113.285156 120.71875 113.285156 120.730469 113.28125 C 120.800781 113.273438 120.875 113.261719 120.945312 113.25 C 121.046875 113.234375 121.152344 113.214844 121.257812 113.195312 C 121.464844 113.148438 121.558594 113.117188 121.84375 113.019531 C 122.125 112.921875 122.59375 112.75 122.886719 112.609375 C 123.183594 112.46875 123.386719 112.332031 123.632812 112.179688 C 123.9375 111.984375 124.226562 111.789062 124.519531 111.570312 C 124.644531 111.472656 124.730469 111.410156 124.824219 111.324219 L 124.773438 111.292969 Z M 74.992188 84.984375 "/>
<path style=" stroke:none;fill-rule:nonzero;fill:rgb(49.019608%,20.784314%,23.137255%);fill-opacity:1;" d="M 147.007812 46.960938 L 146.964844 46.960938 L 101.304688 71.085938 L 126.6875 108.890625 L 149.886719 49.460938 L 149.886719 49.378906 C 150.46875 47.628906 148.679688 46.046875 147.007812 46.960938 "/>
<path style=" stroke:none;fill-rule:nonzero;fill:rgb(74.117647%,25.098039%,26.27451%);fill-opacity:1;" d="M 77.425781 35.492188 C 76.257812 33.789062 73.714844 33.789062 72.589844 35.492188 L 48.695312 71.085938 L 74.992188 84.988281 L 124.824219 111.324219 C 125.136719 111.015625 125.386719 110.71875 125.652344 110.402344 C 126.027344 109.941406 126.378906 109.445312 126.6875 108.890625 L 101.304688 71.085938 Z M 77.425781 35.492188 "/>
</g>
</svg>
