<?xml version="1.0" encoding="UTF-8"?>
<svg xmlns="http://www.w3.org/2000/svg" xmlns:xlink="http://www.w3.org/1999/xlink" width="150px" height="150px" viewBox="0 0 150 147" version="1.1">
<g id="surface1">
<path style=" stroke:none;fill-rule:nonzero;fill:rgb(43.921569%,60%,65.098039%);fill-opacity:1;" d="M 72.613281 6.789062 L 72.613281 13.605469 L 60.414062 13.605469 L 60.414062 18.042969 L 72.613281 18.042969 L 72.613281 31.621094 L 77.382812 31.621094 L 77.382812 18.042969 L 89.886719 18.042969 L 89.886719 13.605469 L 77.382812 13.605469 L 77.382812 0 L 72.613281 0 Z M 72.613281 6.789062 "/>
<path style=" stroke:none;fill-rule:nonzero;fill:rgb(92.156863%,56.862745%,17.254902%);fill-opacity:1;" d="M 32.746094 24.082031 L 32.746094 33.976562 L 14.277344 33.976562 L 14.277344 40.183594 L 32.746094 40.183594 L 32.746094 60.277344 L 39.59375 60.277344 L 39.59375 40.183594 L 58.335938 40.183594 L 58.335938 33.976562 L 39.59375 33.976562 L 39.59375 14.1875 L 32.746094 14.1875 Z M 32.746094 24.082031 "/>
<path style=" stroke:none;fill-rule:nonzero;fill:rgb(34.901961%,52.941176%,60.784314%);fill-opacity:1;" d="M 110.128906 24.082031 L 110.128906 33.976562 L 91.664062 33.976562 L 91.664062 40.488281 L 110.128906 40.488281 L 110.128906 60.277344 L 117.253906 60.277344 L 117.253906 40.488281 L 135.71875 40.488281 L 135.71875 33.976562 L 117.253906 33.976562 L 117.253906 14.1875 L 110.128906 14.1875 Z M 110.128906 24.082031 "/>
<path style=" stroke:none;fill-rule:nonzero;fill:rgb(90.980392%,46.27451%,17.254902%);fill-opacity:1;" d="M 70.839844 57.78125 L 70.839844 68.867188 L 50.296875 68.867188 L 50.296875 77.125 L 70.839844 77.125 L 70.839844 99.296875 L 79.160156 99.296875 L 79.160156 77.125 L 99.703125 77.125 L 99.703125 68.867188 L 79.160156 68.867188 L 79.160156 46.695312 L 70.839844 46.695312 Z M 70.839844 57.78125 "/>
<path style=" stroke:none;fill-rule:nonzero;fill:rgb(35.686275%,39.607843%,56.862745%);fill-opacity:1;" d="M 131.253906 63.378906 L 131.253906 70.335938 L 118.75 70.335938 L 118.75 75.960938 L 131.253906 75.960938 L 131.253906 89.84375 L 137.496094 89.84375 L 137.496094 75.960938 L 150 75.960938 L 150 70.335938 L 137.496094 70.335938 L 137.496094 56.453125 L 131.253906 56.453125 Z M 131.253906 63.378906 "/>
<path style=" stroke:none;fill-rule:nonzero;fill:rgb(43.921569%,60%,65.098039%);fill-opacity:1;" d="M 12.199219 63.988281 L 12.199219 70.640625 L 0 70.640625 L 0 75.351562 L 12.199219 75.351562 L 12.199219 88.652344 L 16.96875 88.652344 L 16.96875 75.351562 L 29.472656 74.90625 L 29.472656 70.640625 L 16.96875 70.640625 L 16.96875 57.339844 L 12.199219 57.339844 Z M 12.199219 63.988281 "/>
<path style=" stroke:none;fill-rule:nonzero;fill:rgb(78.039216%,12.54902%,20.784314%);fill-opacity:1;" d="M 32.746094 95.304688 L 32.746094 105.199219 L 14.277344 105.199219 L 14.277344 111.710938 L 32.746094 111.710938 L 32.746094 131.496094 L 39.871094 131.496094 L 39.871094 111.710938 L 58.335938 111.710938 L 58.335938 105.199219 L 39.871094 105.199219 L 39.871094 85.410156 L 32.746094 85.410156 Z M 32.746094 95.304688 "/>
<path style=" stroke:none;fill-rule:nonzero;fill:rgb(12.156863%,26.666667%,49.411765%);fill-opacity:1;" d="M 110.128906 95.304688 L 110.128906 105.199219 L 91.664062 105.199219 L 91.664062 111.40625 L 110.128906 111.40625 L 110.128906 131.496094 L 117.253906 131.496094 L 117.253906 111.40625 L 135.71875 111.40625 L 135.71875 105.199219 L 117.253906 105.199219 L 117.253906 85.410156 L 110.128906 85.410156 Z M 110.128906 95.304688 "/>
<path style=" stroke:none;fill-rule:nonzero;fill:rgb(35.686275%,39.607843%,56.862745%);fill-opacity:1;" d="M 72.03125 120.441406 L 72.03125 127.367188 L 59.527344 127.367188 L 59.527344 132.996094 L 72.03125 132.996094 L 72.03125 146.878906 L 78.269531 146.878906 L 78.269531 132.996094 L 90.777344 132.996094 L 90.777344 127.367188 L 78.269531 127.367188 L 78.269531 113.484375 L 72.03125 113.484375 Z M 72.03125 120.441406 "/>
</g>
</svg>
