<?xml version="1.0" encoding="UTF-8"?>
<svg xmlns="http://www.w3.org/2000/svg" xmlns:xlink="http://www.w3.org/1999/xlink" width="150px" height="150px" viewBox="0 0 150 150" version="1.1">
<g id="surface1">
<path style=" stroke:none;fill-rule:nonzero;fill:rgb(86.666667%,28.235294%,7.843137%);fill-opacity:1;" d="M 75 3.804688 C 35.675781 3.804688 3.804688 35.679688 3.804688 75 C 3.804688 114.320312 35.679688 146.195312 75 146.195312 C 114.320312 146.195312 146.195312 114.320312 146.195312 75 C 146.195312 35.679688 114.320312 3.804688 75 3.804688 Z M 90.972656 28.320312 C 83.152344 52.394531 57.300781 65.566406 33.226562 57.746094 C 9.15625 49.925781 -4.015625 24.070312 3.804688 0 C 6.65625 2.664062 7.585938 6.800781 6.15625 10.433594 C 4.722656 14.0625 1.21875 16.449219 -2.683594 16.449219 C -6.585938 16.449219 -10.09375 14.0625 -11.527344 10.433594 C -12.957031 6.800781 -12.027344 2.664062 -9.175781 0 Z M 75 33.707031 C 78.824219 33.707031 82.519531 34.238281 86.03125 35.207031 C 86.046875 27.863281 92.003906 21.917969 99.347656 21.921875 C 106.691406 21.929688 112.644531 27.878906 112.648438 35.222656 C 112.65625 42.566406 106.710938 48.527344 99.367188 48.542969 C 106.394531 55.453125 110.96875 64.851562 111.636719 75.324219 L 98.089844 75.523438 C 101.40625 58.355469 89.503906 47.234375 75 47.234375 C 75.882812 47.625 76.746094 48.0625 77.582031 48.542969 L 56.699219 37.980469 C 41.832031 23.949219 39.519531 1.128906 51.269531 -15.601562 C 63.023438 -32.328125 85.273438 -37.894531 103.515625 -28.667969 C 121.761719 -19.441406 130.464844 1.777344 123.953125 21.15625 C 117.445312 40.539062 97.695312 52.199219 77.582031 48.542969 Z M 26.589844 84.507812 C 16.65625 70.425781 20.019531 50.957031 34.101562 41.027344 C 48.183594 31.097656 67.648438 34.460938 77.582031 48.542969 C 77.582031 43.292969 81.839844 39.039062 87.085938 39.039062 C 92.335938 39.039062 96.589844 43.292969 96.589844 48.542969 C 96.59375 53.792969 92.339844 58.046875 87.089844 58.046875 Z M 35.015625 85.351562 C 27.476562 70.972656 33.019531 53.203125 47.402344 45.664062 C 61.78125 38.125 79.550781 43.667969 87.089844 58.046875 C 87.089844 53.871094 85.167969 50.140625 82.167969 47.695312 C 84.738281 37.746094 90.925781 29.25 99.242188 23.691406 L 106.191406 35.332031 C 51.902344 57.308594 47.234375 65.605469 47.234375 75 C 47.234375 84.394531 51.902344 92.691406 59.042969 97.714844 L 52.089844 109.359375 C 43.773438 103.800781 37.582031 95.300781 35.015625 85.351562 Z M 103.957031 125.152344 C 85.425781 126.113281 69.625 111.871094 68.667969 93.339844 C 67.707031 74.808594 81.949219 59.007812 100.480469 58.046875 C 97.851562 53.503906 99.410156 47.695312 103.957031 45.070312 C 108.5 42.445312 114.316406 44.003906 116.9375 48.546875 C 117.269531 43.859375 120.980469 40.121094 125.667969 39.75 C 130.351562 39.378906 134.605469 42.492188 135.667969 47.070312 C 136.730469 51.648438 134.289062 56.316406 129.917969 58.046875 Z M 103.929688 104.441406 C 106.601562 108.394531 106.953125 113.472656 104.851562 117.753906 C 127.121094 118.914062 144.410156 137.609375 143.832031 159.898438 C 143.25 182.191406 125.015625 199.957031 102.714844 199.957031 C 80.417969 199.957031 62.179688 182.191406 61.601562 159.898438 C 61.019531 137.609375 78.308594 118.914062 100.578125 117.753906 L 107.183594 105.917969 C 116.761719 95.773438 132.398438 94.351562 143.648438 102.601562 C 154.902344 110.851562 158.242188 126.195312 151.445312 138.378906 C 144.644531 150.566406 129.832031 155.777344 116.902344 150.535156 C 103.972656 145.289062 96.972656 131.234375 100.578125 117.753906 C 115.082031 117.753906 126.980469 106.636719 128.230469 92.453125 L 141.777344 92.652344 C 141.109375 103.121094 136.535156 112.519531 129.507812 119.433594 Z M 103.929688 104.441406 "/>
</g>
</svg>
