<?xml version="1.0" encoding="UTF-8"?>
<svg xmlns="http://www.w3.org/2000/svg" xmlns:xlink="http://www.w3.org/1999/xlink" width="150px" height="150px" viewBox="0 0 150 150" version="1.1">
<g id="surface1">
<path style=" stroke:none;fill-rule:nonzero;fill:rgb(0%,0%,0%);fill-opacity:1;" d="M 91.464844 114.273438 C 90.132812 114.273438 88.859375 113.746094 87.90625 112.792969 L 43.886719 68.773438 C 41.925781 66.8125 41.925781 63.632812 43.886719 61.671875 L 87.921875 17.636719 C 89.882812 15.671875 93.0625 15.671875 95.023438 17.636719 C 96.988281 19.597656 96.988281 22.777344 95.023438 24.742188 L 54.550781 65.230469 L 91.464844 102.144531 L 128.378906 65.230469 L 111.828125 48.675781 C 109.863281 46.714844 109.863281 43.535156 111.828125 41.570312 C 113.789062 39.609375 116.96875 39.609375 118.929688 41.570312 L 139.058594 61.671875 C 139.996094 62.609375 140.539062 63.898438 140.539062 65.230469 C 140.539062 66.5625 140.007812 67.835938 139.058594 68.789062 L 95.023438 112.808594 C 94.085938 113.746094 92.796875 114.273438 91.464844 114.273438 Z M 34.527344 55.546875 C 33.238281 55.546875 31.949219 55.046875 30.964844 54.066406 L 11.042969 34.144531 C 9.082031 32.183594 9.082031 29.003906 11.046875 27.039062 C 13.007812 25.078125 16.1875 25.078125 18.148438 27.039062 L 38.085938 46.960938 C 40.046875 48.925781 40.046875 52.105469 38.085938 54.066406 C 37.105469 55.0625 35.816406 55.546875 34.527344 55.546875 Z M 13.125 106.507812 C 11.835938 106.507812 10.546875 106.011719 9.566406 105.03125 C 7.601562 103.066406 7.601562 99.886719 9.566406 97.925781 L 29.5 77.988281 C 31.464844 76.023438 34.644531 76.023438 36.605469 77.988281 C 38.570312 79.953125 38.570312 83.128906 36.605469 85.09375 L 16.671875 105.03125 C 15.6875 106.011719 14.414062 106.507812 13.125 106.507812 Z M 13.125 106.507812 "/>
</g>
</svg>
